STARTFONT 2.3
FONT -FontForge-Roboto-Book-I-Normal--12-120-72-72-P-65-ISO10646-1
SIZE 12 72 72  2
FONTBOUNDINGBOX 23 18 -9 -3
COMMENT "Generated by fontforge, http://fontforge.sourceforge.net"
COMMENT "Copyright 2011 Google Inc. All Rights Reserved."
STARTPROPERTIES 43
FOUNDRY "FontForge"
FAMILY_NAME "Roboto"
WEIGHT_NAME "Book"
SLANT "I"
SETWIDTH_NAME "Normal"
ADD_STYLE_NAME ""
PIXEL_SIZE 12
POINT_SIZE 120
RESOLUTION_X 72
RESOLUTION_Y 72
SPACING "P"
AVERAGE_WIDTH 65
CHARSET_REGISTRY "ISO10646"
CHARSET_ENCODING "1"
FONTNAME_REGISTRY ""
CHARSET_COLLECTIONS "ISO8859-2 ISO8859-5 ISO8859-7 ISO8859-9 ISO8859-4 ISO10646-1"
BITS_PER_PIXEL 2
FONT_NAME "Roboto-Italic"
FACE_NAME "Roboto Italic"
COPYRIGHT "Copyright 2011 Google Inc. All Rights Reserved."
FONT_VERSION "2.137; 2017"
FONT_ASCENT 9
FONT_DESCENT 3
UNDERLINE_POSITION -1
UNDERLINE_THICKNESS 1
X_HEIGHT 6
CAP_HEIGHT 8
DEFAULT_CHAR 1
RAW_ASCENT 750
RAW_DESCENT 250
ITALIC_ANGLE 4992
NORM_SPACE 3
RELATIVE_WEIGHT 40
RELATIVE_SETWIDTH 50
SUPERSCRIPT_X 0
SUPERSCRIPT_Y 5
SUPERSCRIPT_SIZE 7
SUBSCRIPT_X 0
SUBSCRIPT_Y 1
SUBSCRIPT_SIZE 7
FIGURE_WIDTH 7
AVG_LOWERCASE_WIDTH 64
AVG_UPPERCASE_WIDTH 77
ENDPROPERTIES
CHARS 1296
STARTCHAR glyph1.dup1
ENCODING 0
SWIDTH 0 0
DWIDTH 0 0
BBX 1 1 0 0
BITMAP
00
ENDCHAR
STARTCHAR uni0002
ENCODING 2
SWIDTH 0 0
DWIDTH 0 0
BBX 1 1 0 0
BITMAP
00
ENDCHAR
STARTCHAR uni000D
ENCODING 13
SWIDTH 245 0
DWIDTH 3 0
BBX 1 1 0 0
BITMAP
00
ENDCHAR
STARTCHAR space
ENCODING 32
SWIDTH 245 0
DWIDTH 3 0
BBX 1 1 0 0
BITMAP
00
ENDCHAR
STARTCHAR exclam
ENCODING 33
SWIDTH 254 0
DWIDTH 3 0
BBX 3 9 0 0
BITMAP
1C
18
24
24
30
30
00
00
60
ENDCHAR
STARTCHAR quotedbl
ENCODING 34
SWIDTH 314 0
DWIDTH 4 0
BBX 3 3 1 6
BITMAP
58
98
94
ENDCHAR
STARTCHAR numbersign
ENCODING 35
SWIDTH 602 0
DWIDTH 7 0
BBX 8 9 0 0
BITMAP
0188
0258
2FFD
0620
0850
7FF4
1880
2580
2240
ENDCHAR
STARTCHAR dollar
ENCODING 36
SWIDTH 549 0
DWIDTH 7 0
BBX 7 12 0 -1
BITMAP
0040
0080
07E0
1C30
2824
1C00
0B80
00A0
5060
6090
2F80
0800
ENDCHAR
STARTCHAR percent
ENCODING 37
SWIDTH 715 0
DWIDTH 9 0
BBX 7 9 1 0
BITMAP
7D00
9620
8950
7980
0200
09B4
2658
5258
01F4
ENDCHAR
STARTCHAR ampersand
ENCODING 38
SWIDTH 607 0
DWIDTH 7 0
BBX 7 9 0 0
BITMAP
07D0
0D60
1C60
0E80
1F00
7658
A0E4
60B0
2FA4
ENDCHAR
STARTCHAR quotesingle
ENCODING 39
SWIDTH 173 0
DWIDTH 2 0
BBX 2 3 1 6
BITMAP
90
80
80
ENDCHAR
STARTCHAR parenleft
ENCODING 40
SWIDTH 336 0
DWIDTH 4 0
BBX 5 13 0 -3
BITMAP
0140
0600
0D00
1800
2400
3000
7000
6000
6000
6000
3000
2400
0800
ENDCHAR
STARTCHAR parenright
ENCODING 41
SWIDTH 342 0
DWIDTH 4 0
BBX 5 13 -1 -3
BITMAP
0800
0600
0300
0200
0240
0240
0340
0300
0600
0900
1C00
2400
5000
ENDCHAR
STARTCHAR asterisk
ENCODING 42
SWIDTH 422 0
DWIDTH 5 0
BBX 5 5 1 4
BITMAP
0800
9A40
7900
9C00
4400
ENDCHAR
STARTCHAR plus
ENCODING 43
SWIDTH 554 0
DWIDTH 7 0
BBX 7 7 0 1
BITMAP
0140
0240
0300
7FF4
0600
0A00
0500
ENDCHAR
STARTCHAR comma
ENCODING 44
SWIDTH 195 0
DWIDTH 2 0
BBX 3 4 -1 -2
BITMAP
10
24
30
50
ENDCHAR
STARTCHAR hyphen
ENCODING 45
SWIDTH 272 0
DWIDTH 3 0
BBX 3 1 0 3
BITMAP
BC
ENDCHAR
STARTCHAR period
ENCODING 46
SWIDTH 260 0
DWIDTH 3 0
BBX 2 1 0 0
BITMAP
90
ENDCHAR
STARTCHAR slash
ENCODING 47
SWIDTH 404 0
DWIDTH 5 0
BBX 6 10 -1 -1
BITMAP
0020
0060
0080
0180
0200
0600
0C00
1800
3000
6000
ENDCHAR
STARTCHAR zero
ENCODING 48
SWIDTH 549 0
DWIDTH 7 0
BBX 7 9 0 0
BITMAP
07D0
1870
2434
3030
7030
6070
6060
31D0
1F40
ENDCHAR
STARTCHAR one
ENCODING 49
SWIDTH 549 0
DWIDTH 7 0
BBX 4 9 1 0
BITMAP
1A
6A
06
09
09
0C
0C
18
18
ENDCHAR
STARTCHAR two
ENCODING 50
SWIDTH 549 0
DWIDTH 7 0
BBX 6 9 0 0
BITMAP
0BD0
2870
2030
0060
01C0
0740
1D00
7400
BFE0
ENDCHAR
STARTCHAR three
ENCODING 51
SWIDTH 549 0
DWIDTH 7 0
BBX 6 9 0 0
BITMAP
0BD0
2870
1030
00A0
0BC0
0090
4060
61D0
2F40
ENDCHAR
STARTCHAR four
ENCODING 52
SWIDTH 549 0
DWIDTH 7 0
BBX 6 9 0 0
BITMAP
00B0
01E0
03A0
0990
2890
60C0
FFF0
0180
0180
ENDCHAR
STARTCHAR five
ENCODING 53
SWIDTH 549 0
DWIDTH 7 0
BBX 6 9 1 0
BITMAP
2FE0
3000
6000
BF40
5280
00C0
4180
C240
7E00
ENDCHAR
STARTCHAR six
ENCODING 54
SWIDTH 549 0
DWIDTH 7 0
BBX 6 9 0 0
BITMAP
02E0
0A00
1800
3BD0
34A0
6070
6060
3490
1F40
ENDCHAR
STARTCHAR seven
ENCODING 55
SWIDTH 549 0
DWIDTH 7 0
BBX 6 9 1 0
BITMAP
FFE0
0090
0180
0340
0600
0C00
2400
7000
9000
ENDCHAR
STARTCHAR eight
ENCODING 56
SWIDTH 549 0
DWIDTH 7 0
BBX 7 9 0 0
BITMAP
07D0
1C70
2434
1860
0FC0
34A0
6060
6090
2F40
ENDCHAR
STARTCHAR nine
ENCODING 57
SWIDTH 549 0
DWIDTH 7 0
BBX 5 9 1 0
BITMAP
2F40
A180
C0C0
C0C0
D2C0
7E80
0240
1A00
B400
ENDCHAR
STARTCHAR colon
ENCODING 58
SWIDTH 239 0
DWIDTH 3 0
BBX 3 7 0 0
BITMAP
24
00
00
00
00
00
90
ENDCHAR
STARTCHAR semicolon
ENCODING 59
SWIDTH 209 0
DWIDTH 3 0
BBX 4 9 -1 -2
BITMAP
09
04
00
00
00
10
24
30
50
ENDCHAR
STARTCHAR less
ENCODING 60
SWIDTH 498 0
DWIDTH 6 0
BBX 6 5 0 2
BITMAP
0090
1A40
B400
1E40
0180
ENDCHAR
STARTCHAR equal
ENCODING 61
SWIDTH 537 0
DWIDTH 6 0
BBX 6 3 0 2
BITMAP
3FF0
0000
7FD0
ENDCHAR
STARTCHAR greater
ENCODING 62
SWIDTH 511 0
DWIDTH 6 0
BBX 6 5 0 2
BITMAP
2400
1B40
01E0
1A40
6000
ENDCHAR
STARTCHAR question
ENCODING 63
SWIDTH 462 0
DWIDTH 6 0
BBX 5 9 1 0
BITMAP
6E00
9240
0240
0340
0A00
2800
3000
0000
6000
ENDCHAR
STARTCHAR at
ENCODING 64
SWIDTH 875 0
DWIDTH 11 0
BBX 10 11 0 -3
BITMAP
01BE40
074190
187D20
258920
624820
530820
932890
92DB40
600000
241000
0BE000
ENDCHAR
STARTCHAR A
ENCODING 65
SWIDTH 637 0
DWIDTH 8 0
BBX 8 9 -1 0
BITMAP
0034
00B4
00D8
0298
030C
0A0C
1FFD
280A
7006
ENDCHAR
STARTCHAR B
ENCODING 66
SWIDTH 608 0
DWIDTH 7 0
BBX 7 9 0 0
BITMAP
1FE0
1828
2818
2424
3FE0
3034
7024
6070
BF90
ENDCHAR
STARTCHAR C
ENCODING 67
SWIDTH 636 0
DWIDTH 8 0
BBX 8 9 0 0
BITMAP
06F4
0D1C
2809
3000
7000
6000
7018
3474
1B90
ENDCHAR
STARTCHAR D
ENCODING 68
SWIDTH 641 0
DWIDTH 8 0
BBX 7 9 0 0
BITMAP
1FE0
1828
280C
240C
340C
301C
7024
60A0
BF80
ENDCHAR
STARTCHAR E
ENCODING 69
SWIDTH 556 0
DWIDTH 7 0
BBX 7 9 0 0
BITMAP
1FFC
1800
2800
2400
3FE0
3000
7000
6000
BFE0
ENDCHAR
STARTCHAR F
ENCODING 70
SWIDTH 541 0
DWIDTH 7 0
BBX 7 9 0 0
BITMAP
1FFC
1800
2800
2400
3FE0
3000
7000
6000
A000
ENDCHAR
STARTCHAR G
ENCODING 71
SWIDTH 665 0
DWIDTH 8 0
BBX 8 9 0 0
BITMAP
06F4
0D1D
2805
3000
30FC
700C
301C
2828
0BE0
ENDCHAR
STARTCHAR H
ENCODING 72
SWIDTH 696 0
DWIDTH 8 0
BBX 8 9 0 0
BITMAP
1C03
1803
2806
2406
3FFD
3009
700C
600C
A018
ENDCHAR
STARTCHAR I
ENCODING 73
SWIDTH 268 0
DWIDTH 3 0
BBX 3 9 0 0
BITMAP
1C
18
28
24
34
30
70
60
60
ENDCHAR
STARTCHAR J
ENCODING 74
SWIDTH 540 0
DWIDTH 6 0
BBX 7 9 0 0
BITMAP
0024
0034
0030
0070
0060
00A0
4090
A1C0
2E40
ENDCHAR
STARTCHAR K
ENCODING 75
SWIDTH 612 0
DWIDTH 7 0
BBX 8 9 0 0
BITMAP
1C0D
1824
28A0
2680
3B40
3580
7090
6070
A024
ENDCHAR
STARTCHAR L
ENCODING 76
SWIDTH 526 0
DWIDTH 6 0
BBX 6 9 0 0
BITMAP
1C00
1800
2800
2400
3400
3000
7000
6000
BFD0
ENDCHAR
STARTCHAR M
ENCODING 77
SWIDTH 851 0
DWIDTH 10 0
BBX 10 9 0 0
BITMAP
1D00B0
1E01E0
2A02A0
2707A0
330990
3258D0
71A4C0
61E1C0
A0D180
ENDCHAR
STARTCHAR N
ENCODING 78
SWIDTH 696 0
DWIDTH 8 0
BBX 8 9 0 0
BITMAP
1C03
1E03
2B06
2646
35C9
30D9
706C
603C
A028
ENDCHAR
STARTCHAR O
ENCODING 79
SWIDTH 671 0
DWIDTH 8 0
BBX 8 9 0 0
BITMAP
06F4
0D1C
2809
300A
7009
700D
301C
3474
1B90
ENDCHAR
STARTCHAR P
ENCODING 80
SWIDTH 616 0
DWIDTH 7 0
BBX 8 9 0 0
BITMAP
1FF4
181C
2409
241C
3FE4
3000
6000
6000
A000
ENDCHAR
STARTCHAR Q
ENCODING 81
SWIDTH 671 0
DWIDTH 8 0
BBX 8 10 0 -1
BITMAP
06F4
0D1C
2409
3009
7009
600D
701C
3474
1BE0
0074
ENDCHAR
STARTCHAR R
ENCODING 82
SWIDTH 602 0
DWIDTH 7 0
BBX 7 9 0 0
BITMAP
1FE4
181C
240C
2428
3FE0
30D0
60A0
6070
A034
ENDCHAR
STARTCHAR S
ENCODING 83
SWIDTH 580 0
DWIDTH 7 0
BBX 7 9 0 0
BITMAP
0BE0
1828
2408
2800
0790
0070
5034
6070
2F90
ENDCHAR
STARTCHAR T
ENCODING 84
SWIDTH 583 0
DWIDTH 7 0
BBX 7 9 1 0
BITMAP
FFF4
0600
0900
0900
0C00
0C00
1C00
1800
2800
ENDCHAR
STARTCHAR U
ENCODING 85
SWIDTH 633 0
DWIDTH 8 0
BBX 8 9 0 0
BITMAP
180A
2809
240D
340C
300C
7018
6028
3470
1F90
ENDCHAR
STARTCHAR V
ENCODING 86
SWIDTH 622 0
DWIDTH 7 0
BBX 7 9 1 0
BITMAP
D018
9034
A060
6090
71C0
3240
2700
2D00
1C00
ENDCHAR
STARTCHAR W
ENCODING 87
SWIDTH 865 0
DWIDTH 10 0
BBX 10 9 1 0
BITMAP
90A060
90E090
91A0C0
937180
A63340
693700
6C2900
742C00
702800
ENDCHAR
STARTCHAR X
ENCODING 88
SWIDTH 612 0
DWIDTH 7 0
BBX 8 9 0 0
BITMAP
280D
0C28
0A70
07D0
0380
0BC0
1CD0
7460
D034
ENDCHAR
STARTCHAR Y
ENCODING 89
SWIDTH 587 0
DWIDTH 7 0
BBX 7 9 1 0
BITMAP
D024
A060
30C0
2640
1E00
1C00
1C00
1800
2800
ENDCHAR
STARTCHAR Z
ENCODING 90
SWIDTH 585 0
DWIDTH 7 0
BBX 7 9 0 0
BITMAP
2FFC
0028
00A0
01C0
0740
0D00
2800
A000
FFF0
ENDCHAR
STARTCHAR bracketleft
ENCODING 91
SWIDTH 262 0
DWIDTH 3 0
BBX 4 12 0 -2
BITMAP
1F
18
24
24
34
30
70
60
60
90
90
F4
ENDCHAR
STARTCHAR backslash
ENCODING 92
SWIDTH 402 0
DWIDTH 5 0
BBX 3 10 1 -1
BITMAP
90
90
60
60
30
30
24
14
18
08
ENDCHAR
STARTCHAR bracketright
ENCODING 93
SWIDTH 262 0
DWIDTH 3 0
BBX 4 12 -1 -2
BITMAP
0F
03
06
06
0A
09
0D
0C
0C
18
18
B4
ENDCHAR
STARTCHAR asciicircum
ENCODING 94
SWIDTH 410 0
DWIDTH 5 0
BBX 5 4 0 5
BITMAP
0600
0F00
2640
6140
ENDCHAR
STARTCHAR underscore
ENCODING 95
SWIDTH 442 0
DWIDTH 5 0
BBX 6 1 -1 -1
BITMAP
BFE0
ENDCHAR
STARTCHAR grave
ENCODING 96
SWIDTH 304 0
DWIDTH 4 0
BBX 2 2 1 7
BITMAP
60
20
ENDCHAR
STARTCHAR a
ENCODING 97
SWIDTH 532 0
DWIDTH 6 0
BBX 6 7 0 0
BITMAP
0B80
24A0
0060
2FD0
6090
A1C0
7EC0
ENDCHAR
STARTCHAR b
ENCODING 98
SWIDTH 549 0
DWIDTH 7 0
BBX 6 9 0 0
BITMAP
1800
2400
2BD0
3860
3030
6070
6060
B0D0
AF40
ENDCHAR
STARTCHAR c
ENCODING 99
SWIDTH 512 0
DWIDTH 6 0
BBX 6 7 0 0
BITMAP
0B80
34A0
6010
6000
6000
70D0
2F40
ENDCHAR
STARTCHAR d
ENCODING 100
SWIDTH 551 0
DWIDTH 7 0
BBX 7 9 0 0
BITMAP
0018
0024
1BB4
3470
6070
6060
A0A0
61D0
2ED0
ENDCHAR
STARTCHAR e
ENCODING 101
SWIDTH 518 0
DWIDTH 6 0
BBX 6 7 0 0
BITMAP
0B80
28A0
7060
7FE0
6000
7080
1F80
ENDCHAR
STARTCHAR f
ENCODING 102
SWIDTH 341 0
DWIDTH 4 0
BBX 5 9 0 0
BITMAP
07C0
0D00
7F00
1800
2400
2400
3000
3000
7000
ENDCHAR
STARTCHAR g
ENCODING 103
SWIDTH 549 0
DWIDTH 7 0
BBX 6 9 0 -2
BITMAP
1BB0
3470
6060
6060
A090
71D0
2EC0
4180
7E00
ENDCHAR
STARTCHAR h
ENCODING 104
SWIDTH 539 0
DWIDTH 6 0
BBX 6 9 0 0
BITMAP
1800
2400
2BD0
38A0
3060
6060
6090
9090
90C0
ENDCHAR
STARTCHAR i
ENCODING 105
SWIDTH 240 0
DWIDTH 3 0
BBX 3 9 0 0
BITMAP
18
00
24
34
30
70
60
60
90
ENDCHAR
STARTCHAR j
ENCODING 106
SWIDTH 236 0
DWIDTH 3 0
BBX 5 11 -2 -2
BITMAP
0180
0000
0240
0300
0300
0600
0600
0900
0900
0C00
7800
ENDCHAR
STARTCHAR k
ENCODING 107
SWIDTH 496 0
DWIDTH 6 0
BBX 6 9 0 0
BITMAP
1800
2800
24A0
3680
3A00
7900
6300
9240
90C0
ENDCHAR
STARTCHAR l
ENCODING 108
SWIDTH 240 0
DWIDTH 3 0
BBX 3 9 0 0
BITMAP
18
18
24
24
30
30
60
60
90
ENDCHAR
STARTCHAR m
ENCODING 109
SWIDTH 854 0
DWIDTH 10 0
BBX 10 7 0 0
BITMAP
2BDB80
34B490
306090
60A090
6090D0
9090C0
90C1C0
ENDCHAR
STARTCHAR n
ENCODING 110
SWIDTH 540 0
DWIDTH 6 0
BBX 6 7 0 0
BITMAP
2BD0
38A0
3060
6060
6090
9090
90C0
ENDCHAR
STARTCHAR o
ENCODING 111
SWIDTH 558 0
DWIDTH 7 0
BBX 6 7 0 0
BITMAP
0B90
2860
6030
6030
6070
7090
1F40
ENDCHAR
STARTCHAR p
ENCODING 112
SWIDTH 549 0
DWIDTH 7 0
BBX 6 9 0 -2
BITMAP
2BD0
38A0
3030
6030
6060
A1D0
AF40
C000
C000
ENDCHAR
STARTCHAR q
ENCODING 113
SWIDTH 556 0
DWIDTH 7 0
BBX 6 9 0 -2
BITMAP
1BB0
3870
7060
6060
6090
71D0
2EC0
00C0
0180
ENDCHAR
STARTCHAR r
ENCODING 114
SWIDTH 333 0
DWIDTH 4 0
BBX 5 7 0 0
BITMAP
2B40
3800
3000
6000
6000
9000
9000
ENDCHAR
STARTCHAR s
ENCODING 115
SWIDTH 504 0
DWIDTH 6 0
BBX 6 7 0 0
BITMAP
1B80
3490
3400
1B40
00C0
A1C0
2F40
ENDCHAR
STARTCHAR t
ENCODING 116
SWIDTH 321 0
DWIDTH 4 0
BBX 4 9 0 0
BITMAP
0C
18
BE
24
24
34
30
30
2C
ENDCHAR
STARTCHAR u
ENCODING 117
SWIDTH 539 0
DWIDTH 6 0
BBX 6 7 0 0
BITMAP
2430
3030
3060
7060
6090
71D0
2EC0
ENDCHAR
STARTCHAR v
ENCODING 118
SWIDTH 474 0
DWIDTH 6 0
BBX 6 7 0 0
BITMAP
6060
30D0
3180
2640
2A00
1D00
1C00
ENDCHAR
STARTCHAR w
ENCODING 119
SWIDTH 733 0
DWIDTH 9 0
BBX 9 7 0 0
BITMAP
609180
31D240
32A300
326600
292800
2C3800
282400
ENDCHAR
STARTCHAR x
ENCODING 120
SWIDTH 485 0
DWIDTH 6 0
BBX 6 7 0 0
BITMAP
30A0
2580
0F00
0E00
2A00
7240
D180
ENDCHAR
STARTCHAR y
ENCODING 121
SWIDTH 463 0
DWIDTH 6 0
BBX 7 9 -1 -2
BITMAP
1828
0C30
0C60
09C0
0A80
0700
0600
1C00
7400
ENDCHAR
STARTCHAR z
ENCODING 122
SWIDTH 485 0
DWIDTH 6 0
BBX 6 7 0 0
BITMAP
3FE0
01C0
0340
0900
2800
A000
FFC0
ENDCHAR
STARTCHAR braceleft
ENCODING 123
SWIDTH 333 0
DWIDTH 4 0
BBX 5 11 0 -2
BITMAP
0240
0A00
0C00
0C00
2800
B000
3400
2400
3400
2400
1800
ENDCHAR
STARTCHAR bar
ENCODING 124
SWIDTH 241 0
DWIDTH 3 0
BBX 3 11 0 -2
BITMAP
18
14
24
20
30
20
20
60
50
90
80
ENDCHAR
STARTCHAR braceright
ENCODING 125
SWIDTH 333 0
DWIDTH 4 0
BBX 5 11 -1 -2
BITMAP
0800
0600
0600
0600
0600
0380
0900
0C00
1C00
2800
6000
ENDCHAR
STARTCHAR asciitilde
ENCODING 126
SWIDTH 664 0
DWIDTH 8 0
BBX 7 2 0 3
BITMAP
2E48
61B8
ENDCHAR
STARTCHAR uni00A0
ENCODING 160
SWIDTH 245 0
DWIDTH 3 0
BBX 1 1 0 0
BITMAP
00
ENDCHAR
STARTCHAR exclamdown
ENCODING 161
SWIDTH 241 0
DWIDTH 3 0
BBX 3 9 0 -2
BITMAP
24
00
30
60
60
A0
90
D0
C0
ENDCHAR
STARTCHAR cent
ENCODING 162
SWIDTH 535 0
DWIDTH 6 0
BBX 6 10 0 -2
BITMAP
0240
0BD0
2860
7010
6000
6000
7090
2F40
0C00
0400
ENDCHAR
STARTCHAR sterling
ENCODING 163
SWIDTH 568 0
DWIDTH 7 0
BBX 7 9 0 0
BITMAP
02E0
0D28
1C04
1800
7F40
2800
2400
3000
FFF0
ENDCHAR
STARTCHAR currency
ENCODING 164
SWIDTH 696 0
DWIDTH 8 0
BBX 8 7 0 0
BITMAP
2AF7
1D1D
340A
2006
7009
3828
9BD8
ENDCHAR
STARTCHAR yen
ENCODING 165
SWIDTH 514 0
DWIDTH 6 0
BBX 7 9 0 0
BITMAP
3428
2870
0890
0940
7FE0
0A00
BFD0
0D00
0C00
ENDCHAR
STARTCHAR brokenbar
ENCODING 166
SWIDTH 237 0
DWIDTH 3 0
BBX 3 11 0 -2
BITMAP
18
28
24
34
30
00
60
60
90
90
C0
ENDCHAR
STARTCHAR section
ENCODING 167
SWIDTH 599 0
DWIDTH 7 0
BBX 7 12 0 -3
BITMAP
0BE0
1828
2404
1D00
2AE0
6034
6024
2EA0
01D0
80A0
D1D0
6F40
ENDCHAR
STARTCHAR dieresis
ENCODING 168
SWIDTH 410 0
DWIDTH 5 0
BBX 4 1 1 7
BITMAP
96
ENDCHAR
STARTCHAR copyright
ENCODING 169
SWIDTH 767 0
DWIDTH 9 0
BBX 9 9 0 0
BITMAP
02F900
0A0700
25F580
221480
560080
562580
22E200
281900
0BE400
ENDCHAR
STARTCHAR ordfeminine
ENCODING 170
SWIDTH 438 0
DWIDTH 5 0
BBX 4 5 1 4
BITMAP
3D
03
7E
96
7E
ENDCHAR
STARTCHAR guillemotleft
ENCODING 171
SWIDTH 459 0
DWIDTH 6 0
BBX 5 5 0 1
BITMAP
0980
2640
6600
2200
1640
ENDCHAR
STARTCHAR logicalnot
ENCODING 172
SWIDTH 541 0
DWIDTH 7 0
BBX 5 2 1 3
BITMAP
FF80
0240
ENDCHAR
STARTCHAR uni00AD
ENCODING 173
SWIDTH 272 0
DWIDTH 3 0
BBX 3 1 0 3
BITMAP
BC
ENDCHAR
STARTCHAR registered
ENCODING 174
SWIDTH 767 0
DWIDTH 9 0
BBX 9 9 0 0
BITMAP
02F900
0A0600
26F580
221880
53F080
522580
262600
281900
0BE400
ENDCHAR
STARTCHAR macron
ENCODING 175
SWIDTH 449 0
DWIDTH 5 0
BBX 5 1 1 7
BITMAP
7F40
ENDCHAR
STARTCHAR degree
ENCODING 176
SWIDTH 367 0
DWIDTH 4 0
BBX 4 3 1 6
BITMAP
78
99
78
ENDCHAR
STARTCHAR plusminus
ENCODING 177
SWIDTH 522 0
DWIDTH 6 0
BBX 6 8 0 0
BITMAP
0100
0200
0300
7FF0
0600
0600
0000
BFC0
ENDCHAR
STARTCHAR uni00B2
ENCODING 178
SWIDTH 360 0
DWIDTH 4 0
BBX 5 5 0 4
BITMAP
1E00
2240
0A00
2800
7F00
ENDCHAR
STARTCHAR uni00B3
ENCODING 179
SWIDTH 360 0
DWIDTH 4 0
BBX 4 5 1 4
BITMAP
78
49
38
4C
B8
ENDCHAR
STARTCHAR acute
ENCODING 180
SWIDTH 309 0
DWIDTH 4 0
BBX 3 2 1 7
BITMAP
28
60
ENDCHAR
STARTCHAR mu
ENCODING 181
SWIDTH 554 0
DWIDTH 7 0
BBX 6 9 0 -2
BITMAP
2430
3430
3060
7060
60A0
B1D0
AED0
D000
C000
ENDCHAR
STARTCHAR paragraph
ENCODING 182
SWIDTH 479 0
DWIDTH 6 0
BBX 5 9 1 0
BITMAP
2F80
BF40
FF40
FF00
FF00
2E00
0600
0900
0900
ENDCHAR
STARTCHAR periodcentered
ENCODING 183
SWIDTH 257 0
DWIDTH 3 0
BBX 1 2 1 3
BITMAP
C0
40
ENDCHAR
STARTCHAR cedilla
ENCODING 184
SWIDTH 245 0
DWIDTH 3 0
BBX 3 2 -1 -2
BITMAP
24
74
ENDCHAR
STARTCHAR uni00B9
ENCODING 185
SWIDTH 360 0
DWIDTH 4 0
BBX 3 5 1 4
BITMAP
28
A4
24
20
30
ENDCHAR
STARTCHAR ordmasculine
ENCODING 186
SWIDTH 445 0
DWIDTH 5 0
BBX 4 5 1 4
BITMAP
2E
A3
92
97
7D
ENDCHAR
STARTCHAR guillemotright
ENCODING 187
SWIDTH 459 0
DWIDTH 6 0
BBX 5 5 0 1
BITMAP
2200
1980
0CC0
2640
9900
ENDCHAR
STARTCHAR onequarter
ENCODING 188
SWIDTH 715 0
DWIDTH 9 0
BBX 7 9 1 0
BITMAP
2400
B420
2090
3180
2228
08A4
25A4
53F8
0030
ENDCHAR
STARTCHAR onehalf
ENCODING 189
SWIDTH 757 0
DWIDTH 9 0
BBX 7 9 1 0
BITMAP
2400
B420
2090
3240
6678
188C
2028
5090
02FC
ENDCHAR
STARTCHAR threequarters
ENCODING 190
SWIDTH 759 0
DWIDTH 9 0
BBX 8 9 1 0
BITMAP
3D00
5A08
2C20
8990
B99C
062C
0898
15FD
0014
ENDCHAR
STARTCHAR questiondown
ENCODING 191
SWIDTH 463 0
DWIDTH 6 0
BBX 5 9 0 -2
BITMAP
0600
0000
0900
1C00
7400
D000
C000
C340
7D00
ENDCHAR
STARTCHAR Agrave
ENCODING 192
SWIDTH 637 0
DWIDTH 8 0
BBX 8 12 -1 0
BITMAP
0060
0020
0000
0034
00B4
00D8
0298
030C
0A0C
1FFD
280A
7006
ENDCHAR
STARTCHAR Aacute
ENCODING 193
SWIDTH 637 0
DWIDTH 8 0
BBX 8 12 -1 0
BITMAP
000D
0018
0000
0034
00B4
00D8
0298
030C
0A0C
1FFD
280A
7006
ENDCHAR
STARTCHAR Acircumflex
ENCODING 194
SWIDTH 637 0
DWIDTH 8 0
BBX 8 12 -1 0
BITMAP
0068
00DA
0000
0034
00B4
00D8
0298
030C
0A0C
1FFD
280A
7006
ENDCHAR
STARTCHAR Atilde
ENCODING 195
SWIDTH 637 0
DWIDTH 8 0
BBX 8 12 -1 0
BITMAP
00A2
009D
0000
0034
00B4
00D8
0298
030C
0A0C
1FFD
280A
7006
ENDCHAR
STARTCHAR Adieresis
ENCODING 196
SWIDTH 637 0
DWIDTH 8 0
BBX 8 11 -1 0
BITMAP
0096
0000
0034
00B4
00D8
0298
030C
0A0C
1FFD
280A
7006
ENDCHAR
STARTCHAR Aring
ENCODING 197
SWIDTH 637 0
DWIDTH 8 0
BBX 8 13 -1 0
BITMAP
0028
0068
0038
0000
0034
00B4
00D8
0298
030C
0A0C
1FFD
280A
7006
ENDCHAR
STARTCHAR AE
ENCODING 198
SWIDTH 911 0
DWIDTH 11 0
BBX 12 9 -1 0
BITMAP
000BFF
001F00
003700
00A600
01C7FC
074600
0FFD00
280900
700FFC
ENDCHAR
STARTCHAR Ccedilla
ENCODING 199
SWIDTH 636 0
DWIDTH 8 0
BBX 8 11 0 -2
BITMAP
06F4
0D1C
2809
3000
7000
6000
7018
3474
1B90
0600
0A00
ENDCHAR
STARTCHAR Egrave
ENCODING 200
SWIDTH 556 0
DWIDTH 7 0
BBX 7 12 0 0
BITMAP
0280
0080
0000
1FFC
1800
2800
2400
3FE0
3000
7000
6000
BFE0
ENDCHAR
STARTCHAR Eacute
ENCODING 201
SWIDTH 556 0
DWIDTH 7 0
BBX 7 12 0 0
BITMAP
0074
0090
0000
1FFC
1800
2800
2400
3FE0
3000
7000
6000
BFE0
ENDCHAR
STARTCHAR Ecircumflex
ENCODING 202
SWIDTH 556 0
DWIDTH 7 0
BBX 7 12 0 0
BITMAP
01E0
0734
0000
1FFC
1800
2800
2400
3FE0
3000
7000
6000
BFE0
ENDCHAR
STARTCHAR Edieresis
ENCODING 203
SWIDTH 556 0
DWIDTH 7 0
BBX 7 11 0 0
BITMAP
0324
0000
1FFC
1800
2800
2400
3FE0
3000
7000
6000
BFE0
ENDCHAR
STARTCHAR Igrave
ENCODING 204
SWIDTH 268 0
DWIDTH 3 0
BBX 3 12 0 0
BITMAP
28
08
00
1C
18
28
24
34
30
70
60
60
ENDCHAR
STARTCHAR Iacute
ENCODING 205
SWIDTH 268 0
DWIDTH 3 0
BBX 5 12 0 0
BITMAP
0740
0900
0000
1C00
1800
2800
2400
3400
3000
7000
6000
6000
ENDCHAR
STARTCHAR Icircumflex
ENCODING 206
SWIDTH 268 0
DWIDTH 3 0
BBX 5 12 0 0
BITMAP
1E00
3640
0000
1C00
1800
2800
2400
3400
3000
7000
6000
6000
ENDCHAR
STARTCHAR Idieresis
ENCODING 207
SWIDTH 268 0
DWIDTH 3 0
BBX 5 11 0 0
BITMAP
3240
0000
1C00
1800
2800
2400
3400
3000
7000
6000
6000
ENDCHAR
STARTCHAR Eth
ENCODING 208
SWIDTH 655 0
DWIDTH 8 0
BBX 8 9 0 0
BITMAP
0FE0
1C28
180D
2809
BE0D
340C
3028
70B0
7F80
ENDCHAR
STARTCHAR Ntilde
ENCODING 209
SWIDTH 696 0
DWIDTH 8 0
BBX 8 12 0 0
BITMAP
01D9
0228
0000
1C03
1E03
2B06
2646
35C9
30D9
706C
603C
A028
ENDCHAR
STARTCHAR Ograve
ENCODING 210
SWIDTH 671 0
DWIDTH 8 0
BBX 8 12 0 0
BITMAP
01C0
0090
0000
06F4
0D1C
2809
300A
7009
700D
301C
3474
1B90
ENDCHAR
STARTCHAR Oacute
ENCODING 211
SWIDTH 671 0
DWIDTH 8 0
BBX 8 12 0 0
BITMAP
0028
0060
0000
06F4
0D1C
2809
300A
7009
700D
301C
3474
1B90
ENDCHAR
STARTCHAR Ocircumflex
ENCODING 212
SWIDTH 671 0
DWIDTH 8 0
BBX 8 12 0 0
BITMAP
00B4
0298
0000
06F4
0D1C
2809
300A
7009
700D
301C
3474
1B90
ENDCHAR
STARTCHAR Otilde
ENCODING 213
SWIDTH 671 0
DWIDTH 8 0
BBX 8 12 0 0
BITMAP
01D8
0228
0000
06F4
0D1C
2809
300A
7009
700D
301C
3474
1B90
ENDCHAR
STARTCHAR Odieresis
ENCODING 214
SWIDTH 671 0
DWIDTH 8 0
BBX 8 11 0 0
BITMAP
0258
0000
06F4
0D1C
2809
300A
7009
700D
301C
3474
1B90
ENDCHAR
STARTCHAR multiply
ENCODING 215
SWIDTH 521 0
DWIDTH 6 0
BBX 6 6 0 1
BITMAP
2060
29D0
0B40
1F00
7580
5080
ENDCHAR
STARTCHAR Oslash
ENCODING 216
SWIDTH 671 0
DWIDTH 8 0
BBX 8 10 0 -1
BITMAP
06F6
0D1D
2829
306A
7089
620D
791C
3874
2BD0
4000
ENDCHAR
STARTCHAR Ugrave
ENCODING 217
SWIDTH 633 0
DWIDTH 8 0
BBX 8 12 0 0
BITMAP
0180
0080
0000
180A
2809
240D
340C
300C
7018
6028
3470
1F90
ENDCHAR
STARTCHAR Uacute
ENCODING 218
SWIDTH 633 0
DWIDTH 8 0
BBX 8 12 0 0
BITMAP
0034
00A0
0000
180A
2809
240D
340C
300C
7018
6028
3470
1F90
ENDCHAR
STARTCHAR Ucircumflex
ENCODING 219
SWIDTH 633 0
DWIDTH 8 0
BBX 8 12 0 0
BITMAP
01A0
0368
0000
180A
2809
240D
340C
300C
7018
6028
3470
1F90
ENDCHAR
STARTCHAR Udieresis
ENCODING 220
SWIDTH 633 0
DWIDTH 8 0
BBX 8 11 0 0
BITMAP
0258
0000
180A
2809
240D
340C
300C
7018
6028
3470
1F90
ENDCHAR
STARTCHAR Yacute
ENCODING 221
SWIDTH 587 0
DWIDTH 7 0
BBX 7 12 1 0
BITMAP
01D0
0240
0000
D024
A060
30C0
2640
1E00
1C00
1C00
1800
2800
ENDCHAR
STARTCHAR Thorn
ENCODING 222
SWIDTH 578 0
DWIDTH 7 0
BBX 7 9 0 0
BITMAP
1800
1800
2FE0
2424
3024
3070
7F90
6000
9000
ENDCHAR
STARTCHAR germandbls
ENCODING 223
SWIDTH 581 0
DWIDTH 7 0
BBX 6 9 0 0
BITMAP
0BD0
1860
2460
34C0
3180
7090
6030
9470
9BD0
ENDCHAR
STARTCHAR agrave
ENCODING 224
SWIDTH 532 0
DWIDTH 6 0
BBX 6 10 0 0
BITMAP
0700
0240
0000
0B80
24A0
0060
2FD0
6090
A1C0
7EC0
ENDCHAR
STARTCHAR aacute
ENCODING 225
SWIDTH 532 0
DWIDTH 6 0
BBX 6 10 0 0
BITMAP
00A0
0180
0000
0B80
24A0
0060
2FD0
6090
A1C0
7EC0
ENDCHAR
STARTCHAR acircumflex
ENCODING 226
SWIDTH 532 0
DWIDTH 6 0
BBX 6 10 0 0
BITMAP
02D0
0A60
0000
0B80
24A0
0060
2FD0
6090
A1C0
7EC0
ENDCHAR
STARTCHAR atilde
ENCODING 227
SWIDTH 532 0
DWIDTH 6 0
BBX 6 10 0 0
BITMAP
0B60
08A0
0000
0B80
24A0
0060
2FD0
6090
A1C0
7EC0
ENDCHAR
STARTCHAR adieresis
ENCODING 228
SWIDTH 532 0
DWIDTH 6 0
BBX 6 9 0 0
BITMAP
0960
0000
0B80
24A0
0060
2FD0
6090
A1C0
7EC0
ENDCHAR
STARTCHAR aring
ENCODING 229
SWIDTH 532 0
DWIDTH 6 0
BBX 6 11 0 0
BITMAP
02C0
0250
02C0
0000
0B80
24A0
0060
2FD0
6090
A1C0
7EC0
ENDCHAR
STARTCHAR ae
ENCODING 230
SWIDTH 823 0
DWIDTH 10 0
BBX 10 7 0 0
BITMAP
1B9B80
34B490
00A090
2FFFD0
A0D000
91E040
7E2F40
ENDCHAR
STARTCHAR ccedilla
ENCODING 231
SWIDTH 512 0
DWIDTH 6 0
BBX 6 9 0 -2
BITMAP
0B80
34A0
6010
6000
6000
70D0
2F40
0900
1D00
ENDCHAR
STARTCHAR egrave
ENCODING 232
SWIDTH 518 0
DWIDTH 6 0
BBX 6 10 0 0
BITMAP
0600
0200
0000
0B80
28A0
7060
7FE0
6000
7080
1F80
ENDCHAR
STARTCHAR eacute
ENCODING 233
SWIDTH 518 0
DWIDTH 6 0
BBX 6 10 0 0
BITMAP
0090
0180
0000
0B80
28A0
7060
7FE0
6000
7080
1F80
ENDCHAR
STARTCHAR ecircumflex
ENCODING 234
SWIDTH 518 0
DWIDTH 6 0
BBX 6 10 0 0
BITMAP
0680
0DA0
0000
0B80
28A0
7060
7FE0
6000
7080
1F80
ENDCHAR
STARTCHAR edieresis
ENCODING 235
SWIDTH 518 0
DWIDTH 6 0
BBX 6 9 0 0
BITMAP
0960
0000
0B80
28A0
7060
7FE0
6000
7080
1F80
ENDCHAR
STARTCHAR igrave
ENCODING 236
SWIDTH 244 0
DWIDTH 3 0
BBX 3 10 0 0
BITMAP
30
14
00
24
34
30
70
60
60
90
ENDCHAR
STARTCHAR iacute
ENCODING 237
SWIDTH 244 0
DWIDTH 3 0
BBX 4 10 0 0
BITMAP
0A
18
00
24
34
30
70
60
60
90
ENDCHAR
STARTCHAR icircumflex
ENCODING 238
SWIDTH 244 0
DWIDTH 3 0
BBX 4 10 0 0
BITMAP
2D
A7
00
24
34
30
70
60
60
90
ENDCHAR
STARTCHAR idieresis
ENCODING 239
SWIDTH 244 0
DWIDTH 3 0
BBX 4 9 0 0
BITMAP
53
00
24
34
30
70
60
60
90
ENDCHAR
STARTCHAR eth
ENCODING 240
SWIDTH 573 0
DWIDTH 7 0
BBX 7 9 0 0
BITMAP
0654
01E0
0270
0BB0
2874
7030
6070
3490
1F80
ENDCHAR
STARTCHAR ntilde
ENCODING 241
SWIDTH 540 0
DWIDTH 6 0
BBX 6 10 0 0
BITMAP
0B20
08A0
0000
2BD0
38A0
3060
6060
6090
9090
90C0
ENDCHAR
STARTCHAR ograve
ENCODING 242
SWIDTH 558 0
DWIDTH 7 0
BBX 6 10 0 0
BITMAP
0700
0240
0000
0B90
2860
6030
6030
6070
7090
1F40
ENDCHAR
STARTCHAR oacute
ENCODING 243
SWIDTH 558 0
DWIDTH 7 0
BBX 6 10 0 0
BITMAP
00A0
0180
0000
0B90
2860
6030
6030
6070
7090
1F40
ENDCHAR
STARTCHAR ocircumflex
ENCODING 244
SWIDTH 558 0
DWIDTH 7 0
BBX 6 10 0 0
BITMAP
0680
0DA0
0000
0B90
2860
6030
6030
6070
7090
1F40
ENDCHAR
STARTCHAR otilde
ENCODING 245
SWIDTH 558 0
DWIDTH 7 0
BBX 6 10 0 0
BITMAP
0A20
09E0
0000
0B90
2860
6030
6030
6070
7090
1F40
ENDCHAR
STARTCHAR odieresis
ENCODING 246
SWIDTH 558 0
DWIDTH 7 0
BBX 6 9 0 0
BITMAP
0960
0000
0B90
2860
6030
6030
6070
7090
1F40
ENDCHAR
STARTCHAR divide
ENCODING 247
SWIDTH 558 0
DWIDTH 7 0
BBX 7 7 0 1
BITMAP
0100
0240
0000
7FF4
0000
0500
0500
ENDCHAR
STARTCHAR oslash
ENCODING 248
SWIDTH 554 0
DWIDTH 7 0
BBX 6 9 0 -1
BITMAP
0010
0BA0
28A0
6170
A230
9860
75D0
3F40
5000
ENDCHAR
STARTCHAR ugrave
ENCODING 249
SWIDTH 539 0
DWIDTH 6 0
BBX 6 10 0 0
BITMAP
0700
0240
0000
2430
3030
3060
7060
6090
71D0
2EC0
ENDCHAR
STARTCHAR uacute
ENCODING 250
SWIDTH 539 0
DWIDTH 6 0
BBX 6 10 0 0
BITMAP
00A0
0180
0000
2430
3030
3060
7060
6090
71D0
2EC0
ENDCHAR
STARTCHAR ucircumflex
ENCODING 251
SWIDTH 539 0
DWIDTH 6 0
BBX 6 10 0 0
BITMAP
0690
0960
0000
2430
3030
3060
7060
6090
71D0
2EC0
ENDCHAR
STARTCHAR udieresis
ENCODING 252
SWIDTH 539 0
DWIDTH 6 0
BBX 6 9 0 0
BITMAP
0960
0000
2430
3030
3060
7060
6090
71D0
2EC0
ENDCHAR
STARTCHAR yacute
ENCODING 253
SWIDTH 463 0
DWIDTH 6 0
BBX 7 12 -1 -2
BITMAP
0074
0090
0000
1828
0C30
0C60
09C0
0A80
0700
0600
1C00
7400
ENDCHAR
STARTCHAR thorn
ENCODING 254
SWIDTH 563 0
DWIDTH 7 0
BBX 6 11 0 -2
BITMAP
1800
1800
2BD0
3860
3030
7030
6060
B1D0
AF80
D000
C000
ENDCHAR
STARTCHAR ydieresis
ENCODING 255
SWIDTH 463 0
DWIDTH 6 0
BBX 7 11 -1 -2
BITMAP
0324
0000
1828
0C30
0C60
09C0
0A80
0700
0600
1C00
7400
ENDCHAR
STARTCHAR Amacron
ENCODING 256
SWIDTH 637 0
DWIDTH 8 0
BBX 8 11 -1 0
BITMAP
00FF
0000
0034
00B4
00D8
0298
030C
0A0C
1FFD
280A
7006
ENDCHAR
STARTCHAR amacron
ENCODING 257
SWIDTH 532 0
DWIDTH 6 0
BBX 6 9 0 0
BITMAP
0BF0
0000
0B80
24A0
0060
2FD0
6090
A1C0
7EC0
ENDCHAR
STARTCHAR Abreve
ENCODING 258
SWIDTH 637 0
DWIDTH 8 0
BBX 8 12 -1 0
BITMAP
0096
007C
0000
0034
00B4
00D8
0298
030C
0A0C
1FFD
280A
7006
ENDCHAR
STARTCHAR abreve
ENCODING 259
SWIDTH 532 0
DWIDTH 6 0
BBX 6 10 0 0
BITMAP
0660
02D0
0000
0B80
24A0
0060
2FD0
6090
A1C0
7EC0
ENDCHAR
STARTCHAR Aogonek
ENCODING 260
SWIDTH 637 0
DWIDTH 8 0
BBX 8 11 -1 -2
BITMAP
0034
00B4
00D8
0298
030C
0A0C
1FFD
280A
7006
0008
001D
ENDCHAR
STARTCHAR aogonek
ENCODING 261
SWIDTH 532 0
DWIDTH 6 0
BBX 6 9 0 -2
BITMAP
0B80
24A0
0060
2FD0
6090
A1C0
7EC0
0240
0380
ENDCHAR
STARTCHAR Cacute
ENCODING 262
SWIDTH 636 0
DWIDTH 8 0
BBX 8 12 0 0
BITMAP
0028
0060
0000
06F4
0D1C
2809
3000
7000
6000
7018
3474
1B90
ENDCHAR
STARTCHAR cacute
ENCODING 263
SWIDTH 512 0
DWIDTH 6 0
BBX 6 10 0 0
BITMAP
00D0
0240
0000
0B80
34A0
6010
6000
6000
70D0
2F40
ENDCHAR
STARTCHAR Ccircumflex
ENCODING 264
SWIDTH 636 0
DWIDTH 8 0
BBX 8 12 0 0
BITMAP
01A0
0258
0000
06F4
0D1C
2809
3000
7000
6000
7018
3474
1B90
ENDCHAR
STARTCHAR ccircumflex
ENCODING 265
SWIDTH 512 0
DWIDTH 6 0
BBX 6 10 0 0
BITMAP
0780
0D90
0000
0B80
34A0
6010
6000
6000
70D0
2F40
ENDCHAR
STARTCHAR Cdotaccent
ENCODING 266
SWIDTH 636 0
DWIDTH 8 0
BBX 8 11 0 0
BITMAP
0090
0000
06F4
0D1C
2809
3000
7000
6000
7018
3474
1B90
ENDCHAR
STARTCHAR cdotaccent
ENCODING 267
SWIDTH 512 0
DWIDTH 6 0
BBX 6 9 0 0
BITMAP
0240
0000
0B80
34A0
6010
6000
6000
70D0
2F40
ENDCHAR
STARTCHAR Ccaron
ENCODING 268
SWIDTH 636 0
DWIDTH 8 0
BBX 8 12 0 0
BITMAP
0198
00A0
0000
06F4
0D1C
2809
3000
7000
6000
7018
3474
1B90
ENDCHAR
STARTCHAR ccaron
ENCODING 269
SWIDTH 512 0
DWIDTH 6 0
BBX 6 10 0 0
BITMAP
0990
0340
0000
0B80
34A0
6010
6000
6000
70D0
2F40
ENDCHAR
STARTCHAR Dcaron
ENCODING 270
SWIDTH 641 0
DWIDTH 8 0
BBX 7 12 0 0
BITMAP
0260
01D0
0000
1FE0
1828
280C
240C
340C
301C
7024
60A0
BF80
ENDCHAR
STARTCHAR dcaron
ENCODING 271
SWIDTH 625 0
DWIDTH 8 0
BBX 9 9 0 0
BITMAP
001A40
002A00
1BB400
347000
607000
606000
A0A000
61D000
2ED000
ENDCHAR
STARTCHAR Dcroat
ENCODING 272
SWIDTH 655 0
DWIDTH 8 0
BBX 8 9 0 0
BITMAP
0FE0
1C28
180D
2809
BE0D
340C
3028
70B0
7F80
ENDCHAR
STARTCHAR dcroat
ENCODING 273
SWIDTH 583 0
DWIDTH 7 0
BBX 8 9 0 0
BITMAP
0018
00FE
0B64
3470
6070
A060
A0A0
61D0
2ED0
ENDCHAR
STARTCHAR Emacron
ENCODING 274
SWIDTH 556 0
DWIDTH 7 0
BBX 7 11 0 0
BITMAP
07F8
0000
1FFC
1800
2800
2400
3FE0
3000
7000
6000
BFE0
ENDCHAR
STARTCHAR emacron
ENCODING 275
SWIDTH 518 0
DWIDTH 6 0
BBX 6 9 0 0
BITMAP
0FF0
0000
0B80
28A0
7060
7FE0
6000
7080
1F80
ENDCHAR
STARTCHAR Ebreve
ENCODING 276
SWIDTH 556 0
DWIDTH 7 0
BBX 7 12 0 0
BITMAP
0324
01E0
0000
1FFC
1800
2800
2400
3FE0
3000
7000
6000
BFE0
ENDCHAR
STARTCHAR ebreve
ENCODING 277
SWIDTH 518 0
DWIDTH 6 0
BBX 6 10 0 0
BITMAP
0960
07C0
0000
0B80
28A0
7060
7FE0
6000
7080
1F80
ENDCHAR
STARTCHAR Edotaccent
ENCODING 278
SWIDTH 556 0
DWIDTH 7 0
BBX 7 11 0 0
BITMAP
00C0
0000
1FFC
1800
2800
2400
3FE0
3000
7000
6000
BFE0
ENDCHAR
STARTCHAR edotaccent
ENCODING 279
SWIDTH 518 0
DWIDTH 6 0
BBX 6 9 0 0
BITMAP
0240
0000
0B80
28A0
7060
7FE0
6000
7080
1F80
ENDCHAR
STARTCHAR Eogonek
ENCODING 280
SWIDTH 556 0
DWIDTH 7 0
BBX 7 11 0 -2
BITMAP
1FFC
1800
2800
2400
3FE0
3000
7000
6000
BFE0
0140
02C0
ENDCHAR
STARTCHAR eogonek
ENCODING 281
SWIDTH 518 0
DWIDTH 6 0
BBX 6 9 0 -2
BITMAP
0B80
24A0
6060
7FE0
A000
7080
2F40
0900
0A00
ENDCHAR
STARTCHAR Ecaron
ENCODING 282
SWIDTH 556 0
DWIDTH 7 0
BBX 7 12 0 0
BITMAP
0264
00D0
0000
1FFC
1800
2800
2400
3FE0
3000
7000
6000
BFE0
ENDCHAR
STARTCHAR ecaron
ENCODING 283
SWIDTH 518 0
DWIDTH 6 0
BBX 6 10 0 0
BITMAP
0590
0280
0000
0B80
28A0
7060
7FE0
6000
7080
1F80
ENDCHAR
STARTCHAR Gcircumflex
ENCODING 284
SWIDTH 665 0
DWIDTH 8 0
BBX 8 12 0 0
BITMAP
01A0
0368
0000
06F4
0D1D
2805
3000
30FC
700C
301C
2828
0BE0
ENDCHAR
STARTCHAR gcircumflex
ENCODING 285
SWIDTH 549 0
DWIDTH 7 0
BBX 6 12 0 -2
BITMAP
0680
0DA0
0000
1BB0
3470
6060
6060
A090
71D0
2EC0
4180
7E00
ENDCHAR
STARTCHAR Gbreve
ENCODING 286
SWIDTH 665 0
DWIDTH 8 0
BBX 8 12 0 0
BITMAP
0258
01F0
0000
06F4
0D1D
2805
3000
30FC
700C
301C
2828
0BE0
ENDCHAR
STARTCHAR gbreve
ENCODING 287
SWIDTH 549 0
DWIDTH 7 0
BBX 6 12 0 -2
BITMAP
0960
07C0
0000
1BB0
3470
6060
6060
A090
71D0
2EC0
4180
7E00
ENDCHAR
STARTCHAR Gdotaccent
ENCODING 288
SWIDTH 665 0
DWIDTH 8 0
BBX 8 11 0 0
BITMAP
0090
0000
06F4
0D1D
2805
3000
30FC
700C
301C
2828
0BE0
ENDCHAR
STARTCHAR gdotaccent
ENCODING 289
SWIDTH 549 0
DWIDTH 7 0
BBX 6 11 0 -2
BITMAP
0240
0000
1BB0
3470
6060
6060
A090
71D0
2EC0
4180
7E00
ENDCHAR
STARTCHAR uni0122
ENCODING 290
SWIDTH 665 0
DWIDTH 8 0
BBX 8 12 0 -3
BITMAP
06F4
0D1D
2805
3000
30FC
700C
301C
2828
0BE0
0000
0600
0900
ENDCHAR
STARTCHAR uni0123
ENCODING 291
SWIDTH 549 0
DWIDTH 7 0
BBX 6 13 0 -2
BITMAP
0080
0180
0240
0000
1BB0
3470
6060
6060
A090
71D0
2EC0
4180
7E00
ENDCHAR
STARTCHAR Hcircumflex
ENCODING 292
SWIDTH 696 0
DWIDTH 8 0
BBX 8 12 0 0
BITMAP
00B4
0298
0000
1C03
1803
2806
2406
3FFD
3009
700C
600C
A018
ENDCHAR
STARTCHAR hcircumflex
ENCODING 293
SWIDTH 539 0
DWIDTH 6 0
BBX 6 12 0 0
BITMAP
0680
0DA0
0000
1800
2400
2BD0
38A0
3060
6060
6090
9090
90C0
ENDCHAR
STARTCHAR Hbar
ENCODING 294
SWIDTH 684 0
DWIDTH 8 0
BBX 9 9 0 0
BITMAP
1C0300
180300
7FFF80
240600
3FFD00
300900
700C00
600C00
A01800
ENDCHAR
STARTCHAR hbar
ENCODING 295
SWIDTH 553 0
DWIDTH 7 0
BBX 6 9 0 0
BITMAP
0C00
7F00
1AD0
2860
3070
3060
6060
6090
A090
ENDCHAR
STARTCHAR Itilde
ENCODING 296
SWIDTH 268 0
DWIDTH 3 0
BBX 5 12 0 0
BITMAP
2880
6740
0000
1C00
1800
2800
2400
3400
3000
7000
6000
6000
ENDCHAR
STARTCHAR itilde
ENCODING 297
SWIDTH 244 0
DWIDTH 3 0
BBX 5 10 0 0
BITMAP
7640
8A00
0000
2400
3400
3000
7000
6000
6000
9000
ENDCHAR
STARTCHAR Imacron
ENCODING 298
SWIDTH 268 0
DWIDTH 3 0
BBX 5 11 0 0
BITMAP
7F80
0000
1C00
1800
2800
2400
3400
3000
7000
6000
6000
ENDCHAR
STARTCHAR imacron
ENCODING 299
SWIDTH 244 0
DWIDTH 3 0
BBX 5 9 0 0
BITMAP
BF40
0000
2400
3400
3000
7000
6000
6000
9000
ENDCHAR
STARTCHAR Ibreve
ENCODING 300
SWIDTH 268 0
DWIDTH 3 0
BBX 5 12 0 0
BITMAP
2240
1E00
0000
1C00
1800
2800
2400
3400
3000
7000
6000
6000
ENDCHAR
STARTCHAR ibreve
ENCODING 301
SWIDTH 244 0
DWIDTH 3 0
BBX 4 10 0 0
BITMAP
63
2D
00
24
34
30
70
60
60
90
ENDCHAR
STARTCHAR Iogonek
ENCODING 302
SWIDTH 268 0
DWIDTH 3 0
BBX 4 11 -1 -2
BITMAP
07
06
0A
09
0D
0C
1C
18
18
50
74
ENDCHAR
STARTCHAR iogonek
ENCODING 303
SWIDTH 240 0
DWIDTH 3 0
BBX 4 11 -1 -2
BITMAP
06
00
09
0D
0C
1C
18
18
24
50
B0
ENDCHAR
STARTCHAR Idotaccent
ENCODING 304
SWIDTH 268 0
DWIDTH 3 0
BBX 4 11 0 0
BITMAP
09
00
1C
18
28
24
34
30
70
60
60
ENDCHAR
STARTCHAR dotlessi
ENCODING 305
SWIDTH 244 0
DWIDTH 3 0
BBX 3 7 0 0
BITMAP
24
34
30
70
60
60
90
ENDCHAR
STARTCHAR IJ
ENCODING 306
SWIDTH 808 0
DWIDTH 10 0
BBX 10 9 0 0
BITMAP
1C00A0
180090
2800D0
2400C0
3401C0
300180
714280
628740
60BD00
ENDCHAR
STARTCHAR ij
ENCODING 307
SWIDTH 476 0
DWIDTH 6 0
BBX 6 11 0 -2
BITMAP
1850
0000
24D0
34C0
31C0
7180
6280
6240
9340
0700
1D00
ENDCHAR
STARTCHAR Jcircumflex
ENCODING 308
SWIDTH 540 0
DWIDTH 6 0
BBX 8 12 0 0
BITMAP
0068
00DA
0000
0024
0034
0030
0070
0060
00A0
4090
A1C0
2E40
ENDCHAR
STARTCHAR jcircumflex
ENCODING 309
SWIDTH 249 0
DWIDTH 3 0
BBX 6 12 -2 -2
BITMAP
02D0
0A70
0000
0240
0240
0300
0300
0600
0600
0900
0D00
7800
ENDCHAR
STARTCHAR uni0136
ENCODING 310
SWIDTH 612 0
DWIDTH 7 0
BBX 8 12 0 -3
BITMAP
1C0D
1824
28A0
2680
3B40
3580
7090
6070
A024
0000
0900
0800
ENDCHAR
STARTCHAR uni0137
ENCODING 311
SWIDTH 496 0
DWIDTH 6 0
BBX 6 12 0 -3
BITMAP
1800
2800
24A0
3680
3A00
7900
6300
9240
90C0
0000
1800
2400
ENDCHAR
STARTCHAR kgreenlandic
ENCODING 312
SWIDTH 544 0
DWIDTH 7 0
BBX 6 7 0 0
BITMAP
2470
35D0
3740
7E00
6700
A280
90D0
ENDCHAR
STARTCHAR Lacute
ENCODING 313
SWIDTH 526 0
DWIDTH 6 0
BBX 6 12 0 0
BITMAP
0740
0900
0000
1C00
1800
2800
2400
3400
3000
7000
6000
BFD0
ENDCHAR
STARTCHAR lacute
ENCODING 314
SWIDTH 240 0
DWIDTH 3 0
BBX 5 12 0 0
BITMAP
0740
0900
0000
1800
1800
2400
2400
3000
3000
6000
6000
9000
ENDCHAR
STARTCHAR uni013B
ENCODING 315
SWIDTH 526 0
DWIDTH 6 0
BBX 6 12 0 -3
BITMAP
1C00
1800
2800
2400
3400
3000
7000
6000
BFD0
0000
0D00
1800
ENDCHAR
STARTCHAR uni013C
ENCODING 316
SWIDTH 240 0
DWIDTH 3 0
BBX 4 12 -1 -3
BITMAP
06
06
09
09
0C
0C
18
18
24
00
30
60
ENDCHAR
STARTCHAR Lcaron
ENCODING 317
SWIDTH 526 0
DWIDTH 6 0
BBX 6 9 0 0
BITMAP
1C90
1880
2800
2400
3400
3000
7000
6000
BFD0
ENDCHAR
STARTCHAR lcaron
ENCODING 318
SWIDTH 313 0
DWIDTH 4 0
BBX 5 9 0 0
BITMAP
1980
1A40
2400
2400
3000
3000
6000
6000
9000
ENDCHAR
STARTCHAR Ldot
ENCODING 319
SWIDTH 526 0
DWIDTH 6 0
BBX 6 9 0 0
BITMAP
1C00
1800
2800
2400
3580
3000
7000
6000
BFD0
ENDCHAR
STARTCHAR ldot
ENCODING 320
SWIDTH 347 0
DWIDTH 4 0
BBX 4 9 0 0
BITMAP
18
18
24
24
37
30
60
60
90
ENDCHAR
STARTCHAR Lslash
ENCODING 321
SWIDTH 527 0
DWIDTH 6 0
BBX 6 9 0 0
BITMAP
1C00
1800
2400
2A00
B400
3000
7000
6000
BFD0
ENDCHAR
STARTCHAR lslash
ENCODING 322
SWIDTH 266 0
DWIDTH 3 0
BBX 4 9 0 0
BITMAP
0C
18
18
24
2D
B4
30
60
60
ENDCHAR
STARTCHAR Nacute
ENCODING 323
SWIDTH 696 0
DWIDTH 8 0
BBX 8 12 0 0
BITMAP
0028
0060
0000
1C03
1E03
2B06
2646
35C9
30D9
706C
603C
A028
ENDCHAR
STARTCHAR nacute
ENCODING 324
SWIDTH 540 0
DWIDTH 6 0
BBX 6 10 0 0
BITMAP
00A0
0180
0000
2BD0
38A0
3060
6060
6090
9090
90C0
ENDCHAR
STARTCHAR uni0145
ENCODING 325
SWIDTH 696 0
DWIDTH 8 0
BBX 8 12 0 -3
BITMAP
1C03
1E03
2B06
2646
35C9
30D9
706C
603C
A028
0000
0600
0900
ENDCHAR
STARTCHAR uni0146
ENCODING 326
SWIDTH 540 0
DWIDTH 6 0
BBX 6 10 0 -3
BITMAP
2BD0
38A0
3060
6060
6090
9090
90C0
0000
0C00
2400
ENDCHAR
STARTCHAR Ncaron
ENCODING 327
SWIDTH 696 0
DWIDTH 8 0
BBX 8 12 0 0
BITMAP
0098
00A0
0000
1C03
1E03
2B06
2646
35C9
30D9
706C
603C
A028
ENDCHAR
STARTCHAR ncaron
ENCODING 328
SWIDTH 540 0
DWIDTH 6 0
BBX 6 10 0 0
BITMAP
0660
0280
0000
2BD0
38A0
3060
6060
6090
9090
90C0
ENDCHAR
STARTCHAR napostrophe
ENCODING 329
SWIDTH 540 0
DWIDTH 6 0
BBX 6 9 0 0
BITMAP
3000
9000
2BD0
38A0
3060
6060
6090
9090
90C0
ENDCHAR
STARTCHAR Eng
ENCODING 330
SWIDTH 676 0
DWIDTH 8 0
BBX 8 11 0 -2
BITMAP
1C03
1D06
2B06
2649
3189
308C
606C
6038
9028
0024
01E0
ENDCHAR
STARTCHAR eng
ENCODING 331
SWIDTH 554 0
DWIDTH 7 0
BBX 6 9 0 -2
BITMAP
2BD0
38A0
3060
7060
6090
A090
90C0
01C0
0B40
ENDCHAR
STARTCHAR Omacron
ENCODING 332
SWIDTH 671 0
DWIDTH 8 0
BBX 8 11 0 0
BITMAP
02FC
0000
06F4
0D1C
2809
300A
7009
700D
301C
3474
1B90
ENDCHAR
STARTCHAR omacron
ENCODING 333
SWIDTH 558 0
DWIDTH 7 0
BBX 6 9 0 0
BITMAP
0FF0
0000
0B90
2860
6030
6030
6070
7090
1F40
ENDCHAR
STARTCHAR Obreve
ENCODING 334
SWIDTH 671 0
DWIDTH 8 0
BBX 8 12 0 0
BITMAP
0198
00B4
0000
06F4
0D1C
2809
300A
7009
700D
301C
3474
1B90
ENDCHAR
STARTCHAR obreve
ENCODING 335
SWIDTH 558 0
DWIDTH 7 0
BBX 6 10 0 0
BITMAP
0960
03D0
0000
0B90
2860
6030
6030
6070
7090
1F40
ENDCHAR
STARTCHAR Ohungarumlaut
ENCODING 336
SWIDTH 671 0
DWIDTH 8 0
BBX 8 12 0 0
BITMAP
00AA
01A8
0000
06F4
0D1C
2809
300A
7009
700D
301C
3474
1B90
ENDCHAR
STARTCHAR ohungarumlaut
ENCODING 337
SWIDTH 558 0
DWIDTH 7 0
BBX 7 10 0 0
BITMAP
02B4
0690
0000
0B90
2860
6030
6030
6070
7090
1F40
ENDCHAR
STARTCHAR OE
ENCODING 338
SWIDTH 929 0
DWIDTH 11 0
BBX 11 9 0 0
BITMAP
06FFFC
1D1800
242800
302400
603FF0
603000
607000
346000
1FFFE0
ENDCHAR
STARTCHAR oe
ENCODING 339
SWIDTH 885 0
DWIDTH 11 0
BBX 11 7 0 0
BITMAP
0BD7D0
287D70
703424
603FF4
607000
71F450
2F5B90
ENDCHAR
STARTCHAR Racute
ENCODING 340
SWIDTH 602 0
DWIDTH 7 0
BBX 7 12 0 0
BITMAP
0070
0090
0000
1FE4
181C
240C
2428
3FE0
30D0
60A0
6070
A034
ENDCHAR
STARTCHAR racute
ENCODING 341
SWIDTH 333 0
DWIDTH 4 0
BBX 5 10 0 0
BITMAP
0280
0600
0000
2B40
3800
3000
6000
6000
9000
9000
ENDCHAR
STARTCHAR uni0156
ENCODING 342
SWIDTH 602 0
DWIDTH 7 0
BBX 7 12 0 -3
BITMAP
1FE4
181C
240C
2428
3FE0
30D0
60A0
6070
A034
0000
0C00
1800
ENDCHAR
STARTCHAR uni0157
ENCODING 343
SWIDTH 333 0
DWIDTH 4 0
BBX 6 10 -1 -3
BITMAP
0AD0
0E00
0C00
1800
1800
2400
2400
0000
3000
5000
ENDCHAR
STARTCHAR Rcaron
ENCODING 344
SWIDTH 602 0
DWIDTH 7 0
BBX 7 12 0 0
BITMAP
0260
01D0
0000
1FE4
181C
240C
2428
3FE0
30D0
60A0
6070
A034
ENDCHAR
STARTCHAR rcaron
ENCODING 345
SWIDTH 333 0
DWIDTH 4 0
BBX 5 10 0 0
BITMAP
1980
0A00
0000
2B40
3800
3000
6000
6000
9000
9000
ENDCHAR
STARTCHAR Sacute
ENCODING 346
SWIDTH 580 0
DWIDTH 7 0
BBX 7 12 0 0
BITMAP
0074
0090
0000
0BE0
1828
2408
2800
0790
0070
5034
6070
2F90
ENDCHAR
STARTCHAR sacute
ENCODING 347
SWIDTH 504 0
DWIDTH 6 0
BBX 6 10 0 0
BITMAP
00D0
0180
0000
1B80
3490
3400
1B40
00C0
A1C0
2F40
ENDCHAR
STARTCHAR Scircumflex
ENCODING 348
SWIDTH 580 0
DWIDTH 7 0
BBX 7 12 0 0
BITMAP
01E0
0734
0000
0BE0
1828
2408
2800
0790
0070
5034
6070
2F90
ENDCHAR
STARTCHAR scircumflex
ENCODING 349
SWIDTH 504 0
DWIDTH 6 0
BBX 6 10 0 0
BITMAP
0680
0DA0
0000
1B80
3490
3400
1B40
00C0
A1C0
2F40
ENDCHAR
STARTCHAR Scedilla
ENCODING 350
SWIDTH 580 0
DWIDTH 7 0
BBX 7 11 0 -2
BITMAP
0BE0
1828
2408
2800
0790
0070
5034
6070
2F90
0600
0E00
ENDCHAR
STARTCHAR scedilla
ENCODING 351
SWIDTH 504 0
DWIDTH 6 0
BBX 6 9 0 -2
BITMAP
1B80
3490
3400
1B40
00C0
A1C0
2F40
0900
1D00
ENDCHAR
STARTCHAR Scaron
ENCODING 352
SWIDTH 580 0
DWIDTH 7 0
BBX 7 12 0 0
BITMAP
0264
00D0
0000
0BE0
1828
2408
2800
0790
0070
5034
6070
2F90
ENDCHAR
STARTCHAR scaron
ENCODING 353
SWIDTH 504 0
DWIDTH 6 0
BBX 6 10 0 0
BITMAP
0590
0280
0000
1B80
3490
3400
1B40
00C0
A1C0
2F40
ENDCHAR
STARTCHAR uni0162
ENCODING 354
SWIDTH 583 0
DWIDTH 7 0
BBX 7 11 1 -2
BITMAP
FFF4
0600
0900
0900
0C00
0C00
1C00
1800
2800
1800
3800
ENDCHAR
STARTCHAR uni0163
ENCODING 355
SWIDTH 321 0
DWIDTH 4 0
BBX 4 11 0 -2
BITMAP
0C
18
BE
24
24
34
30
30
2C
18
38
ENDCHAR
STARTCHAR Tcaron
ENCODING 356
SWIDTH 583 0
DWIDTH 7 0
BBX 7 12 1 0
BITMAP
0980
0740
0000
FFF4
0600
0900
0900
0C00
0C00
1C00
1800
2800
ENDCHAR
STARTCHAR tcaron
ENCODING 357
SWIDTH 341 0
DWIDTH 4 0
BBX 6 9 0 0
BITMAP
0C90
1980
BE00
2400
2400
3400
3000
3000
2C00
ENDCHAR
STARTCHAR Tbar
ENCODING 358
SWIDTH 583 0
DWIDTH 7 0
BBX 7 9 1 0
BITMAP
FFF4
0600
0900
3F80
0C00
0C00
1C00
1800
2800
ENDCHAR
STARTCHAR tbar
ENCODING 359
SWIDTH 321 0
DWIDTH 4 0
BBX 4 9 0 0
BITMAP
0C
18
BE
24
FE
30
30
30
2C
ENDCHAR
STARTCHAR Utilde
ENCODING 360
SWIDTH 633 0
DWIDTH 8 0
BBX 8 12 0 0
BITMAP
0288
0274
0000
180A
2809
240D
340C
300C
7018
6028
3470
1F90
ENDCHAR
STARTCHAR utilde
ENCODING 361
SWIDTH 539 0
DWIDTH 6 0
BBX 6 10 0 0
BITMAP
0B20
08E0
0000
2430
3030
3060
7060
6090
71D0
2EC0
ENDCHAR
STARTCHAR Umacron
ENCODING 362
SWIDTH 633 0
DWIDTH 8 0
BBX 8 11 0 0
BITMAP
03FC
0000
180A
2809
240D
340C
300C
7018
6028
3470
1F90
ENDCHAR
STARTCHAR umacron
ENCODING 363
SWIDTH 539 0
DWIDTH 6 0
BBX 6 9 0 0
BITMAP
0FF0
0000
2430
3030
3060
7060
6090
71D0
2EC0
ENDCHAR
STARTCHAR Ubreve
ENCODING 364
SWIDTH 633 0
DWIDTH 8 0
BBX 8 12 0 0
BITMAP
0258
01F0
0000
180A
2809
240D
340C
300C
7018
6028
3470
1F90
ENDCHAR
STARTCHAR ubreve
ENCODING 365
SWIDTH 539 0
DWIDTH 6 0
BBX 6 10 0 0
BITMAP
0960
03D0
0000
2430
3030
3060
7060
6090
71D0
2EC0
ENDCHAR
STARTCHAR Uring
ENCODING 366
SWIDTH 633 0
DWIDTH 8 0
BBX 8 13 0 0
BITMAP
00A0
0160
00E0
0000
180A
2809
240D
340C
300C
7018
6028
3470
1F90
ENDCHAR
STARTCHAR uring
ENCODING 367
SWIDTH 539 0
DWIDTH 6 0
BBX 6 11 0 0
BITMAP
02C0
0250
0280
0000
2430
3030
3060
7060
6090
71D0
2EC0
ENDCHAR
STARTCHAR Uhungarumlaut
ENCODING 368
SWIDTH 633 0
DWIDTH 8 0
BBX 8 12 0 0
BITMAP
00AD
01A4
0000
180A
2809
240D
340C
300C
7018
6028
3470
1F90
ENDCHAR
STARTCHAR uhungarumlaut
ENCODING 369
SWIDTH 539 0
DWIDTH 6 0
BBX 7 10 0 0
BITMAP
02A4
06A0
0000
2430
3030
3060
7060
6090
71D0
2EC0
ENDCHAR
STARTCHAR Uogonek
ENCODING 370
SWIDTH 633 0
DWIDTH 8 0
BBX 8 11 0 -2
BITMAP
1806
2809
2409
340C
300C
701C
7028
3474
1FD0
0200
0380
ENDCHAR
STARTCHAR uogonek
ENCODING 371
SWIDTH 539 0
DWIDTH 6 0
BBX 6 9 0 -2
BITMAP
2430
3030
3060
7060
6090
71D0
2EC0
0240
0380
ENDCHAR
STARTCHAR Wcircumflex
ENCODING 372
SWIDTH 865 0
DWIDTH 10 0
BBX 10 12 1 0
BITMAP
00B400
029C00
000000
90A060
90E090
91A0C0
937180
A63340
693700
6C2900
742C00
702800
ENDCHAR
STARTCHAR wcircumflex
ENCODING 373
SWIDTH 733 0
DWIDTH 9 0
BBX 9 10 0 0
BITMAP
00B400
029800
000000
609180
31D240
32A300
326600
292800
2C3800
282400
ENDCHAR
STARTCHAR Ycircumflex
ENCODING 374
SWIDTH 587 0
DWIDTH 7 0
BBX 7 12 1 0
BITMAP
0780
1CD0
0000
D024
A060
30C0
2640
1E00
1C00
1C00
1800
2800
ENDCHAR
STARTCHAR ycircumflex
ENCODING 375
SWIDTH 463 0
DWIDTH 6 0
BBX 7 12 -1 -2
BITMAP
01E0
0364
0000
1828
0C30
0C60
09C0
0A80
0700
0600
1C00
7400
ENDCHAR
STARTCHAR Ydieresis
ENCODING 376
SWIDTH 587 0
DWIDTH 7 0
BBX 7 11 1 0
BITMAP
0C90
0000
D024
A060
30C0
2640
1E00
1C00
1C00
1800
2800
ENDCHAR
STARTCHAR Zacute
ENCODING 377
SWIDTH 585 0
DWIDTH 7 0
BBX 7 12 0 0
BITMAP
0074
0090
0000
2FFC
0028
00A0
01C0
0740
0D00
2800
A000
FFF0
ENDCHAR
STARTCHAR zacute
ENCODING 378
SWIDTH 485 0
DWIDTH 6 0
BBX 6 10 0 0
BITMAP
01D0
0240
0000
3FE0
01C0
0340
0900
2800
A000
FFC0
ENDCHAR
STARTCHAR Zdotaccent
ENCODING 379
SWIDTH 585 0
DWIDTH 7 0
BBX 7 11 0 0
BITMAP
00C0
0000
2FFC
0028
00A0
01C0
0740
0D00
2800
A000
FFF0
ENDCHAR
STARTCHAR zdotaccent
ENCODING 380
SWIDTH 485 0
DWIDTH 6 0
BBX 6 9 0 0
BITMAP
0240
0000
3FE0
01C0
0340
0900
2800
A000
FFC0
ENDCHAR
STARTCHAR Zcaron
ENCODING 381
SWIDTH 585 0
DWIDTH 7 0
BBX 7 12 0 0
BITMAP
0264
00D0
0000
2FFC
0028
00A0
01C0
0740
0D00
2800
A000
FFF0
ENDCHAR
STARTCHAR zcaron
ENCODING 382
SWIDTH 485 0
DWIDTH 6 0
BBX 6 10 0 0
BITMAP
0990
0340
0000
3FE0
01C0
0340
0900
2800
A000
FFC0
ENDCHAR
STARTCHAR longs
ENCODING 383
SWIDTH 245 0
DWIDTH 3 0
BBX 5 9 0 0
BITMAP
0B40
1C00
2800
2400
3000
3000
6000
6000
9000
ENDCHAR
STARTCHAR uni018F
ENCODING 399
SWIDTH 675 0
DWIDTH 8 0
BBX 8 9 0 0
BITMAP
0BE4
041C
0009
0006
7FFE
6009
601C
3474
1B90
ENDCHAR
STARTCHAR florin
ENCODING 402
SWIDTH 334 0
DWIDTH 4 0
BBX 6 11 -1 -2
BITMAP
02E0
0700
1FC0
0A00
0900
0D00
0C00
0C00
1800
2800
E000
ENDCHAR
STARTCHAR Ohorn
ENCODING 416
SWIDTH 670 0
DWIDTH 8 0
BBX 9 10 0 0
BITMAP
000040
06E5C0
1D1F40
240900
300900
600900
600D00
701C00
347400
1B9000
ENDCHAR
STARTCHAR ohorn
ENCODING 417
SWIDTH 559 0
DWIDTH 7 0
BBX 8 8 0 0
BITMAP
0001
0B99
2878
7030
6030
6070
70D0
2F40
ENDCHAR
STARTCHAR Uhorn
ENCODING 431
SWIDTH 679 0
DWIDTH 8 0
BBX 10 10 0 0
BITMAP
000020
1806A0
280B80
240900
340C00
300C00
701800
702800
347400
1F9000
ENDCHAR
STARTCHAR uhorn
ENCODING 432
SWIDTH 604 0
DWIDTH 7 0
BBX 8 8 0 0
BITMAP
0001
2436
303D
3070
7060
60A0
71D0
2EC0
ENDCHAR
STARTCHAR uni01F0
ENCODING 496
SWIDTH 249 0
DWIDTH 3 0
BBX 6 12 -2 -2
BITMAP
0260
0180
0000
0240
0240
0300
0300
0600
0600
0900
0D00
7800
ENDCHAR
STARTCHAR Aringacute
ENCODING 506
SWIDTH 637 0
DWIDTH 8 0
BBX 8 13 -1 0
BITMAP
000A
0008
0038
0038
0034
00B4
00D8
0298
030C
0A0C
1FFD
280A
7006
ENDCHAR
STARTCHAR aringacute
ENCODING 507
SWIDTH 532 0
DWIDTH 6 0
BBX 6 11 0 0
BITMAP
0060
0080
0280
0280
0B80
24A0
0060
2FD0
6090
A1C0
7EC0
ENDCHAR
STARTCHAR AEacute
ENCODING 508
SWIDTH 911 0
DWIDTH 11 0
BBX 12 12 -1 0
BITMAP
0001C0
000200
000000
000BFF
001F00
003700
00A600
01C7FC
074600
0FFD00
280900
700FFC
ENDCHAR
STARTCHAR aeacute
ENCODING 509
SWIDTH 823 0
DWIDTH 10 0
BBX 10 10 0 0
BITMAP
001D00
002400
000000
1B9B80
34B490
00A090
2FFFD0
A0D000
91E040
7E2F40
ENDCHAR
STARTCHAR Oslashacute
ENCODING 510
SWIDTH 671 0
DWIDTH 8 0
BBX 8 13 0 -1
BITMAP
0028
0060
0000
06F6
0D1D
2829
306A
7089
620D
791C
3874
2BD0
4000
ENDCHAR
STARTCHAR oslashacute
ENCODING 511
SWIDTH 554 0
DWIDTH 7 0
BBX 6 11 0 -1
BITMAP
00D0
0240
0010
0BA0
28A0
6170
A230
9860
75D0
3F40
5000
ENDCHAR
STARTCHAR uni0218
ENCODING 536
SWIDTH 580 0
DWIDTH 7 0
BBX 7 12 0 -3
BITMAP
0BE0
1828
2408
2800
0790
0070
5034
6070
2F90
0000
0900
1800
ENDCHAR
STARTCHAR uni0219
ENCODING 537
SWIDTH 504 0
DWIDTH 6 0
BBX 6 10 0 -3
BITMAP
1B80
3490
3400
1B40
00C0
A1C0
2F40
0000
0C00
1400
ENDCHAR
STARTCHAR uni021A
ENCODING 538
SWIDTH 583 0
DWIDTH 7 0
BBX 7 12 1 -3
BITMAP
FFF4
0600
0900
0900
0C00
0C00
1C00
1800
2800
0000
3000
6000
ENDCHAR
STARTCHAR uni021B
ENCODING 539
SWIDTH 321 0
DWIDTH 4 0
BBX 4 12 0 -3
BITMAP
0C
18
BE
24
24
34
30
30
2C
00
24
60
ENDCHAR
STARTCHAR uni0237
ENCODING 567
SWIDTH 249 0
DWIDTH 3 0
BBX 5 9 -2 -2
BITMAP
0240
0240
0300
0300
0600
0600
0900
0D00
7800
ENDCHAR
STARTCHAR uni0259
ENCODING 601
SWIDTH 516 0
DWIDTH 6 0
BBX 6 7 0 0
BITMAP
1F80
1090
0060
7FE0
6090
61C0
2E40
ENDCHAR
STARTCHAR uni02BC
ENCODING 700
SWIDTH 198 0
DWIDTH 2 0
BBX 2 3 1 6
BITMAP
60
90
80
ENDCHAR
STARTCHAR circumflex
ENCODING 710
SWIDTH 461 0
DWIDTH 6 0
BBX 4 2 1 7
BITMAP
2D
73
ENDCHAR
STARTCHAR caron
ENCODING 711
SWIDTH 435 0
DWIDTH 5 0
BBX 3 2 2 7
BITMAP
98
70
ENDCHAR
STARTCHAR uni02C9
ENCODING 713
SWIDTH 449 0
DWIDTH 5 0
BBX 5 1 1 7
BITMAP
7F40
ENDCHAR
STARTCHAR breve
ENCODING 728
SWIDTH 418 0
DWIDTH 5 0
BBX 4 2 1 7
BITMAP
66
2D
ENDCHAR
STARTCHAR dotaccent
ENCODING 729
SWIDTH 240 0
DWIDTH 3 0
BBX 2 1 1 7
BITMAP
60
ENDCHAR
STARTCHAR ring
ENCODING 730
SWIDTH 329 0
DWIDTH 4 0
BBX 3 3 1 7
BITMAP
38
58
78
ENDCHAR
STARTCHAR ogonek
ENCODING 731
SWIDTH 267 0
DWIDTH 3 0
BBX 3 2 -1 -2
BITMAP
24
74
ENDCHAR
STARTCHAR tilde
ENCODING 732
SWIDTH 462 0
DWIDTH 6 0
BBX 5 2 1 7
BITMAP
7540
9B00
ENDCHAR
STARTCHAR hungarumlaut
ENCODING 733
SWIDTH 366 0
DWIDTH 4 0
BBX 5 2 1 7
BITMAP
3B40
A900
ENDCHAR
STARTCHAR uni02F3
ENCODING 755
SWIDTH 290 0
DWIDTH 3 0
BBX 2 2 0 -3
BITMAP
E0
E0
ENDCHAR
STARTCHAR gravecomb
ENCODING 768
SWIDTH 0 0
DWIDTH 0 0
BBX 2 2 -4 7
BITMAP
A0
20
ENDCHAR
STARTCHAR acutecomb
ENCODING 769
SWIDTH 0 0
DWIDTH 0 0
BBX 3 2 -3 7
BITMAP
74
90
ENDCHAR
STARTCHAR tildecomb
ENCODING 771
SWIDTH 0 0
DWIDTH 0 0
BBX 5 2 -5 7
BITMAP
3880
5740
ENDCHAR
STARTCHAR hookabovecomb
ENCODING 777
SWIDTH 0 0
DWIDTH 0 0
BBX 2 3 -3 7
BITMAP
90
60
C0
ENDCHAR
STARTCHAR uni030F
ENCODING 783
SWIDTH 0 0
DWIDTH 0 0
BBX 4 2 -5 7
BITMAP
7A
2A
ENDCHAR
STARTCHAR dotbelowcomb
ENCODING 803
SWIDTH 0 0
DWIDTH 0 0
BBX 2 1 -5 -2
BITMAP
90
ENDCHAR
STARTCHAR tonos
ENCODING 900
SWIDTH 253 0
DWIDTH 3 0
BBX 1 2 2 7
BITMAP
C0
80
ENDCHAR
STARTCHAR dieresistonos
ENCODING 901
SWIDTH 495 0
DWIDTH 6 0
BBX 5 3 1 7
BITMAP
0600
0500
6180
ENDCHAR
STARTCHAR Alphatonos
ENCODING 902
SWIDTH 637 0
DWIDTH 8 0
BBX 8 9 -1 0
BITMAP
0274
02B4
00D8
0298
030C
0A0C
1FFD
280A
7006
ENDCHAR
STARTCHAR anoteleia
ENCODING 903
SWIDTH 258 0
DWIDTH 3 0
BBX 1 2 1 3
BITMAP
C0
40
ENDCHAR
STARTCHAR Epsilontonos
ENCODING 904
SWIDTH 556 0
DWIDTH 7 0
BBX 8 9 -1 0
BITMAP
37FF
5600
0A00
0900
0FF8
0C00
1C00
1800
2FF8
ENDCHAR
STARTCHAR Etatonos
ENCODING 905
SWIDTH 696 0
DWIDTH 8 0
BBX 9 9 -1 0
BITMAP
3700C0
5600C0
0A0180
090180
0FFF40
0C0240
1C0300
180300
280600
ENDCHAR
STARTCHAR Iotatonos
ENCODING 906
SWIDTH 268 0
DWIDTH 3 0
BBX 4 9 -1 0
BITMAP
37
56
0A
09
0D
0C
1C
18
18
ENDCHAR
STARTCHAR Omicrontonos
ENCODING 908
SWIDTH 681 0
DWIDTH 8 0
BBX 8 9 0 0
BITMAP
32F4
5D1D
280A
3406
300A
3009
300C
2864
0BD0
ENDCHAR
STARTCHAR Upsilontonos
ENCODING 910
SWIDTH 636 0
DWIDTH 8 0
BBX 9 9 -1 0
BITMAP
6701C0
534340
028A00
01DC00
00F400
00A000
009000
00D000
00C000
ENDCHAR
STARTCHAR Omegatonos
ENCODING 911
SWIDTH 659 0
DWIDTH 8 0
BBX 8 9 0 0
BITMAP
36F4
6D1C
2809
3409
300D
300C
3018
2860
BDF8
ENDCHAR
STARTCHAR iotadieresistonos
ENCODING 912
SWIDTH 318 0
DWIDTH 4 0
BBX 5 11 0 0
BITMAP
0900
0800
9180
0000
1800
2400
2400
3000
3000
3000
2800
ENDCHAR
STARTCHAR Alpha
ENCODING 913
SWIDTH 637 0
DWIDTH 8 0
BBX 8 9 -1 0
BITMAP
0034
00B4
00D8
0298
030C
0A0C
1FFD
280A
7006
ENDCHAR
STARTCHAR Beta
ENCODING 914
SWIDTH 608 0
DWIDTH 7 0
BBX 7 9 0 0
BITMAP
1FE0
1828
2818
2424
3FE0
3034
7024
6070
BF90
ENDCHAR
STARTCHAR Gamma
ENCODING 915
SWIDTH 544 0
DWIDTH 7 0
BBX 7 9 0 0
BITMAP
1FFC
1800
2800
2400
3400
3000
7000
6000
A000
ENDCHAR
STARTCHAR uni0394
ENCODING 916
SWIDTH 688 0
DWIDTH 8 0
BBX 9 9 -1 0
BITMAP
002800
007800
00DC00
018900
030900
0A0600
0C0600
280300
7FFF40
ENDCHAR
STARTCHAR Epsilon
ENCODING 917
SWIDTH 556 0
DWIDTH 7 0
BBX 7 9 0 0
BITMAP
1FFC
1800
2800
2400
3FE0
3000
7000
6000
BFE0
ENDCHAR
STARTCHAR Zeta
ENCODING 918
SWIDTH 585 0
DWIDTH 7 0
BBX 7 9 0 0
BITMAP
2FFC
0028
00A0
01C0
0740
0D00
2800
A000
FFF0
ENDCHAR
STARTCHAR Eta
ENCODING 919
SWIDTH 696 0
DWIDTH 8 0
BBX 8 9 0 0
BITMAP
1C03
1803
2806
2406
3FFD
3009
700C
600C
A018
ENDCHAR
STARTCHAR Theta
ENCODING 920
SWIDTH 664 0
DWIDTH 8 0
BBX 8 9 0 0
BITMAP
06E4
1D1C
2409
3009
67E9
600D
7018
3474
1B90
ENDCHAR
STARTCHAR Iota
ENCODING 921
SWIDTH 268 0
DWIDTH 3 0
BBX 3 9 0 0
BITMAP
1C
18
28
24
34
30
70
60
60
ENDCHAR
STARTCHAR Kappa
ENCODING 922
SWIDTH 612 0
DWIDTH 7 0
BBX 8 9 0 0
BITMAP
1C0D
1824
28A0
2680
3B40
3580
7090
6070
A024
ENDCHAR
STARTCHAR Lambda
ENCODING 923
SWIDTH 640 0
DWIDTH 8 0
BBX 7 9 0 0
BITMAP
00D0
02D0
03A0
0A60
0C70
2830
3034
A024
C028
ENDCHAR
STARTCHAR Mu
ENCODING 924
SWIDTH 851 0
DWIDTH 10 0
BBX 10 9 0 0
BITMAP
1D00B0
1E01E0
2A02A0
2707A0
330990
3258D0
71A4C0
61E1C0
A0D180
ENDCHAR
STARTCHAR Nu
ENCODING 925
SWIDTH 696 0
DWIDTH 8 0
BBX 8 9 0 0
BITMAP
1C03
1E03
2B06
2646
35C9
30D9
706C
603C
A028
ENDCHAR
STARTCHAR Xi
ENCODING 926
SWIDTH 558 0
DWIDTH 7 0
BBX 7 9 0 0
BITMAP
2FF8
0000
0000
0000
2FE0
0000
0000
0000
FFD0
ENDCHAR
STARTCHAR Omicron
ENCODING 927
SWIDTH 671 0
DWIDTH 8 0
BBX 8 9 0 0
BITMAP
06F4
0D1C
2809
300A
7009
700D
301C
3474
1B90
ENDCHAR
STARTCHAR Pi
ENCODING 928
SWIDTH 696 0
DWIDTH 8 0
BBX 8 9 0 0
BITMAP
1FFF
1807
2806
240A
3409
300D
700C
601C
A018
ENDCHAR
STARTCHAR Rho
ENCODING 929
SWIDTH 616 0
DWIDTH 7 0
BBX 8 9 0 0
BITMAP
1FF4
181C
2409
241C
3FE4
3000
6000
6000
A000
ENDCHAR
STARTCHAR Sigma
ENCODING 931
SWIDTH 558 0
DWIDTH 7 0
BBX 7 9 0 0
BITMAP
2FF8
1800
0D00
0700
0340
0A00
2800
A000
FFE0
ENDCHAR
STARTCHAR Tau
ENCODING 932
SWIDTH 583 0
DWIDTH 7 0
BBX 7 9 1 0
BITMAP
FFF4
0600
0900
0900
0C00
0C00
1C00
1800
2800
ENDCHAR
STARTCHAR Upsilon
ENCODING 933
SWIDTH 587 0
DWIDTH 7 0
BBX 7 9 1 0
BITMAP
D024
A060
30C0
2640
1E00
1C00
1C00
1800
2800
ENDCHAR
STARTCHAR Phi
ENCODING 934
SWIDTH 699 0
DWIDTH 8 0
BBX 8 9 0 0
BITMAP
00A0
07F8
28DA
30C3
61C3
6186
369D
1FE4
0340
ENDCHAR
STARTCHAR Chi
ENCODING 935
SWIDTH 612 0
DWIDTH 7 0
BBX 8 9 0 0
BITMAP
280D
0C28
0A70
07D0
0380
0BC0
1CD0
7460
D034
ENDCHAR
STARTCHAR Psi
ENCODING 936
SWIDTH 675 0
DWIDTH 8 0
BBX 8 9 1 0
BITMAP
9249
934D
D30C
C71C
C628
AA70
2F80
0D00
0C00
ENDCHAR
STARTCHAR uni03A9
ENCODING 937
SWIDTH 649 0
DWIDTH 8 0
BBX 8 9 0 0
BITMAP
06E4
1D1C
240D
300D
700C
601C
3024
2460
FDF4
ENDCHAR
STARTCHAR Iotadieresis
ENCODING 938
SWIDTH 268 0
DWIDTH 3 0
BBX 5 11 0 0
BITMAP
3240
0000
1C00
1800
2800
2400
3400
3000
7000
6000
6000
ENDCHAR
STARTCHAR Upsilondieresis
ENCODING 939
SWIDTH 587 0
DWIDTH 7 0
BBX 7 11 1 0
BITMAP
0C90
0000
D024
A060
30C0
2640
1E00
1C00
1C00
1800
2800
ENDCHAR
STARTCHAR alphatonos
ENCODING 940
SWIDTH 552 0
DWIDTH 7 0
BBX 7 10 0 0
BITMAP
0090
0080
0000
0BA4
2870
3030
6060
6060
71E0
2E70
ENDCHAR
STARTCHAR epsilontonos
ENCODING 941
SWIDTH 527 0
DWIDTH 6 0
BBX 6 10 0 0
BITMAP
0180
0140
0000
1F90
3460
2F40
6000
9000
A1D0
2F40
ENDCHAR
STARTCHAR etatonos
ENCODING 942
SWIDTH 554 0
DWIDTH 7 0
BBX 6 12 0 -2
BITMAP
00C0
0140
0000
2BD0
38A0
3060
7060
6090
A090
90C0
00C0
0180
ENDCHAR
STARTCHAR iotatonos
ENCODING 943
SWIDTH 318 0
DWIDTH 4 0
BBX 3 10 1 0
BITMAP
24
20
00
60
90
90
C0
C0
C0
A0
ENDCHAR
STARTCHAR upsilondieresistonos
ENCODING 944
SWIDTH 533 0
DWIDTH 6 0
BBX 6 11 0 0
BITMAP
01C0
0140
1830
0000
2460
3470
3070
3060
60A0
31C0
2F40
ENDCHAR
STARTCHAR alpha
ENCODING 945
SWIDTH 552 0
DWIDTH 7 0
BBX 7 7 0 0
BITMAP
0BA4
2870
3030
6060
6060
71E0
2E70
ENDCHAR
STARTCHAR beta
ENCODING 946
SWIDTH 579 0
DWIDTH 7 0
BBX 7 11 0 -2
BITMAP
07E0
1D34
2424
2470
33D0
3070
6030
A0A0
AF80
D000
C000
ENDCHAR
STARTCHAR gamma
ENCODING 947
SWIDTH 490 0
DWIDTH 6 0
BBX 5 9 1 -2
BITMAP
C1C0
C240
9700
9900
6800
7400
7000
6000
A000
ENDCHAR
STARTCHAR delta
ENCODING 948
SWIDTH 554 0
DWIDTH 7 0
BBX 6 9 0 0
BITMAP
07E0
0D00
0D00
0B80
24A0
6030
A070
7090
2F40
ENDCHAR
STARTCHAR epsilon
ENCODING 949
SWIDTH 527 0
DWIDTH 6 0
BBX 6 7 0 0
BITMAP
1F90
3460
2F40
6000
9000
A1D0
2F40
ENDCHAR
STARTCHAR zeta
ENCODING 950
SWIDTH 507 0
DWIDTH 6 0
BBX 6 11 1 -2
BITMAP
BFD0
0280
0A00
1800
7000
9000
C000
C000
B800
0900
0800
ENDCHAR
STARTCHAR eta
ENCODING 951
SWIDTH 554 0
DWIDTH 7 0
BBX 6 9 0 -2
BITMAP
2BD0
38A0
3060
7060
6090
A090
90C0
00C0
0180
ENDCHAR
STARTCHAR theta
ENCODING 952
SWIDTH 557 0
DWIDTH 7 0
BBX 7 9 0 0
BITMAP
07D0
1C70
2424
3034
3FF0
6030
6060
31D0
1F40
ENDCHAR
STARTCHAR iota
ENCODING 953
SWIDTH 318 0
DWIDTH 4 0
BBX 2 7 1 0
BITMAP
60
90
90
C0
C0
C0
A0
ENDCHAR
STARTCHAR kappa
ENCODING 954
SWIDTH 544 0
DWIDTH 7 0
BBX 6 7 0 0
BITMAP
2470
35D0
3740
7E00
6700
A280
90D0
ENDCHAR
STARTCHAR lambda
ENCODING 955
SWIDTH 541 0
DWIDTH 7 0
BBX 6 9 0 0
BITMAP
1D00
0600
0700
0700
0F40
2A80
3180
A0C0
C0A0
ENDCHAR
STARTCHAR uni03BC
ENCODING 956
SWIDTH 554 0
DWIDTH 7 0
BBX 6 9 0 -2
BITMAP
2430
3430
3060
7060
60A0
B1D0
AED0
D000
C000
ENDCHAR
STARTCHAR nu
ENCODING 957
SWIDTH 474 0
DWIDTH 6 0
BBX 6 7 0 0
BITMAP
6060
30D0
3180
2640
2A00
1D00
1C00
ENDCHAR
STARTCHAR xi
ENCODING 958
SWIDTH 480 0
DWIDTH 6 0
BBX 6 11 0 -2
BITMAP
07E0
1D00
1800
0BC0
2400
6000
6000
7400
1B40
0180
0200
ENDCHAR
STARTCHAR omicron
ENCODING 959
SWIDTH 558 0
DWIDTH 7 0
BBX 6 7 0 0
BITMAP
0B90
2860
6030
6030
6070
7090
1F40
ENDCHAR
STARTCHAR pi
ENCODING 960
SWIDTH 582 0
DWIDTH 7 0
BBX 7 7 0 0
BITMAP
7FFC
2870
2460
34A0
3090
7090
6074
ENDCHAR
STARTCHAR rho
ENCODING 961
SWIDTH 554 0
DWIDTH 7 0
BBX 6 9 0 -2
BITMAP
0B80
2860
3030
6030
6060
A1D0
AF80
C000
C000
ENDCHAR
STARTCHAR sigma1
ENCODING 962
SWIDTH 526 0
DWIDTH 6 0
BBX 6 9 0 -2
BITMAP
0B80
2860
7010
6000
6000
3400
1B40
0240
0200
ENDCHAR
STARTCHAR sigma
ENCODING 963
SWIDTH 554 0
DWIDTH 7 0
BBX 7 7 0 0
BITMAP
0BFC
2460
6030
6030
6060
71D0
2F40
ENDCHAR
STARTCHAR tau
ENCODING 964
SWIDTH 510 0
DWIDTH 6 0
BBX 5 7 1 0
BITMAP
FFC0
1800
1800
2400
2400
3400
2D00
ENDCHAR
STARTCHAR upsilon
ENCODING 965
SWIDTH 533 0
DWIDTH 6 0
BBX 6 7 0 0
BITMAP
2460
3470
3070
3060
60A0
31C0
2F40
ENDCHAR
STARTCHAR phi
ENCODING 966
SWIDTH 688 0
DWIDTH 8 0
BBX 8 10 0 -3
BITMAP
18B8
35C9
7186
6186
6249
366C
1BE0
0300
0600
0600
ENDCHAR
STARTCHAR chi
ENCODING 967
SWIDTH 485 0
DWIDTH 6 0
BBX 7 9 0 -2
BITMAP
3434
0CA0
09C0
0740
0A00
0F00
2640
6180
C0D0
ENDCHAR
STARTCHAR psi
ENCODING 968
SWIDTH 684 0
DWIDTH 8 0
BBX 8 10 0 -3
BITMAP
30C6
31C6
6186
6286
6249
3768
1BE0
0300
0600
0600
ENDCHAR
STARTCHAR omega
ENCODING 969
SWIDTH 803 0
DWIDTH 10 0
BBX 9 7 0 0
BITMAP
180180
3401C0
7091C0
609180
60D180
72D340
2E2D00
ENDCHAR
STARTCHAR iotadieresis
ENCODING 970
SWIDTH 318 0
DWIDTH 4 0
BBX 5 9 0 0
BITMAP
6240
0000
1800
2400
2400
3000
3000
3000
2800
ENDCHAR
STARTCHAR upsilondieresis
ENCODING 971
SWIDTH 533 0
DWIDTH 6 0
BBX 6 9 0 0
BITMAP
0C60
0000
2460
3470
3070
3060
60A0
31C0
2F40
ENDCHAR
STARTCHAR omicrontonos
ENCODING 972
SWIDTH 558 0
DWIDTH 7 0
BBX 6 10 0 0
BITMAP
00C0
0140
0000
0B90
2860
6030
6030
6070
7090
1F40
ENDCHAR
STARTCHAR upsilontonos
ENCODING 973
SWIDTH 533 0
DWIDTH 6 0
BBX 6 10 0 0
BITMAP
0180
0140
0000
2460
3470
3070
3060
60A0
31C0
2F40
ENDCHAR
STARTCHAR omegatonos
ENCODING 974
SWIDTH 803 0
DWIDTH 10 0
BBX 9 10 0 0
BITMAP
002400
002000
000000
180180
3401C0
7091C0
609180
60D180
72D340
2E2D00
ENDCHAR
STARTCHAR theta1
ENCODING 977
SWIDTH 565 0
DWIDTH 7 0
BBX 7 9 0 0
BITMAP
02E0
0634
0A30
0770
21F8
6060
6090
71C0
2F40
ENDCHAR
STARTCHAR Upsilon1
ENCODING 978
SWIDTH 520 0
DWIDTH 6 0
BBX 7 9 0 0
BITMAP
741C
2870
1C90
0D80
0B40
0A00
0900
0900
0C00
ENDCHAR
STARTCHAR omega1
ENCODING 982
SWIDTH 766 0
DWIDTH 9 0
BBX 10 7 0 0
BITMAP
3FFFD0
240240
308240
60C240
61C340
72D700
2E7D00
ENDCHAR
STARTCHAR uni0400
ENCODING 1024
SWIDTH 556 0
DWIDTH 7 0
BBX 7 12 0 0
BITMAP
0280
0080
0000
1FFC
1800
2800
2400
3FE0
3000
7000
6000
BFE0
ENDCHAR
STARTCHAR uni0401
ENCODING 1025
SWIDTH 556 0
DWIDTH 7 0
BBX 7 11 0 0
BITMAP
0324
0000
1FFC
1800
2800
2400
3FE0
3000
7000
6000
BFE0
ENDCHAR
STARTCHAR uni0402
ENCODING 1026
SWIDTH 731 0
DWIDTH 9 0
BBX 7 9 1 0
BITMAP
FFF4
0900
0C00
0FE4
181C
180C
240C
2428
34E0
ENDCHAR
STARTCHAR uni0403
ENCODING 1027
SWIDTH 544 0
DWIDTH 7 0
BBX 7 12 0 0
BITMAP
0074
0090
0000
1FFC
1800
2800
2400
3400
3000
7000
6000
A000
ENDCHAR
STARTCHAR uni0404
ENCODING 1028
SWIDTH 658 0
DWIDTH 8 0
BBX 8 9 0 0
BITMAP
06F4
0D1D
2809
3000
3FD0
7000
7018
3474
1B90
ENDCHAR
STARTCHAR uni0405
ENCODING 1029
SWIDTH 580 0
DWIDTH 7 0
BBX 7 9 0 0
BITMAP
0BE0
1828
2408
2800
0790
0070
5034
6070
2F90
ENDCHAR
STARTCHAR uni0406
ENCODING 1030
SWIDTH 268 0
DWIDTH 3 0
BBX 3 9 0 0
BITMAP
1C
18
28
24
34
30
70
60
60
ENDCHAR
STARTCHAR uni0407
ENCODING 1031
SWIDTH 268 0
DWIDTH 3 0
BBX 5 11 0 0
BITMAP
3240
0000
1C00
1800
2800
2400
3400
3000
7000
6000
6000
ENDCHAR
STARTCHAR uni0408
ENCODING 1032
SWIDTH 540 0
DWIDTH 6 0
BBX 7 9 0 0
BITMAP
0024
0034
0030
0070
0060
00A0
4090
A1C0
2E40
ENDCHAR
STARTCHAR uni0409
ENCODING 1033
SWIDTH 1043 0
DWIDTH 13 0
BBX 13 9 -1 0
BITMAP
00FFC000
01818000
02818000
0242FE00
03424280
03030180
06030180
0D060740
7407FD00
ENDCHAR
STARTCHAR uni040A
ENCODING 1034
SWIDTH 1052 0
DWIDTH 13 0
BBX 12 9 0 0
BITMAP
1C0300
180700
280600
240A00
3FFFF8
300D0A
700C07
601C0A
A01FF8
ENDCHAR
STARTCHAR uni040B
ENCODING 1035
SWIDTH 793 0
DWIDTH 10 0
BBX 8 9 1 0
BITMAP
FFF8
0900
0C00
0FF4
1C1C
1809
280D
240C
340C
ENDCHAR
STARTCHAR uni040C
ENCODING 1036
SWIDTH 612 0
DWIDTH 7 0
BBX 8 12 0 0
BITMAP
0070
0090
0000
1C0D
1824
28A0
2680
3B40
3580
7090
6070
A024
ENDCHAR
STARTCHAR uni040D
ENCODING 1037
SWIDTH 696 0
DWIDTH 8 0
BBX 8 12 0 0
BITMAP
00D0
0050
0000
1C07
180F
282A
24AA
35C9
374D
7D0C
781C
B018
ENDCHAR
STARTCHAR uni040E
ENCODING 1038
SWIDTH 614 0
DWIDTH 7 0
BBX 7 12 1 0
BITMAP
0990
0780
0000
A028
7070
30D0
25C0
1B40
1E00
0D00
2800
E000
ENDCHAR
STARTCHAR uni040F
ENCODING 1039
SWIDTH 696 0
DWIDTH 8 0
BBX 8 11 0 -2
BITMAP
1C03
1807
2806
240A
3409
300D
700C
601C
BFF8
0300
0700
ENDCHAR
STARTCHAR uni0410
ENCODING 1040
SWIDTH 637 0
DWIDTH 8 0
BBX 8 9 -1 0
BITMAP
0034
00B4
00D8
0298
030C
0A0C
1FFD
280A
7006
ENDCHAR
STARTCHAR uni0411
ENCODING 1041
SWIDTH 616 0
DWIDTH 7 0
BBX 7 9 0 0
BITMAP
1FF8
1800
2800
2400
3FE0
3028
7028
6074
BFD0
ENDCHAR
STARTCHAR uni0412
ENCODING 1042
SWIDTH 608 0
DWIDTH 7 0
BBX 7 9 0 0
BITMAP
1FE0
1828
2818
2424
3FE0
3034
7024
6070
BF90
ENDCHAR
STARTCHAR uni0413
ENCODING 1043
SWIDTH 544 0
DWIDTH 7 0
BBX 7 9 0 0
BITMAP
1FFC
1800
2800
2400
3400
3000
7000
6000
A000
ENDCHAR
STARTCHAR uni0414
ENCODING 1044
SWIDTH 734 0
DWIDTH 9 0
BBX 9 11 -1 -2
BITMAP
00FFC0
00C0C0
01C180
018180
024240
030240
060300
0C0300
7FFFC0
600180
A00280
ENDCHAR
STARTCHAR uni0415
ENCODING 1045
SWIDTH 556 0
DWIDTH 7 0
BBX 7 9 0 0
BITMAP
1FFC
1800
2800
2400
3FE0
3000
7000
6000
BFE0
ENDCHAR
STARTCHAR uni0416
ENCODING 1046
SWIDTH 885 0
DWIDTH 11 0
BBX 11 9 0 0
BITMAP
281828
0C2870
0924D0
073680
03FF00
0A7340
286180
70A0D0
D090A0
ENDCHAR
STARTCHAR uni0417
ENCODING 1047
SWIDTH 580 0
DWIDTH 7 0
BBX 7 9 0 0
BITMAP
0BE0
2828
1018
0024
07E0
0070
5034
A0B0
2F80
ENDCHAR
STARTCHAR uni0418
ENCODING 1048
SWIDTH 696 0
DWIDTH 8 0
BBX 8 9 0 0
BITMAP
1C07
180F
282A
24AA
35C9
374D
7D0C
781C
B018
ENDCHAR
STARTCHAR uni0419
ENCODING 1049
SWIDTH 696 0
DWIDTH 8 0
BBX 8 12 0 0
BITMAP
018C
00B4
0000
1C07
180F
282A
24AA
35C9
374D
7D0C
781C
B018
ENDCHAR
STARTCHAR uni041A
ENCODING 1050
SWIDTH 628 0
DWIDTH 8 0
BBX 8 9 0 0
BITMAP
1C0A
1828
28B0
25C0
3F40
3280
70D0
6070
A028
ENDCHAR
STARTCHAR uni041B
ENCODING 1051
SWIDTH 691 0
DWIDTH 8 0
BBX 9 9 -1 0
BITMAP
00FFC0
0181C0
028180
024280
030240
030340
060300
1D0700
740600
ENDCHAR
STARTCHAR uni041C
ENCODING 1052
SWIDTH 851 0
DWIDTH 10 0
BBX 10 9 0 0
BITMAP
1D00B0
1E01E0
2A02A0
2707A0
330990
3258D0
71A4C0
61E1C0
A0D180
ENDCHAR
STARTCHAR uni041D
ENCODING 1053
SWIDTH 696 0
DWIDTH 8 0
BBX 8 9 0 0
BITMAP
1C03
1803
2806
2406
3FFD
3009
700C
600C
A018
ENDCHAR
STARTCHAR uni041E
ENCODING 1054
SWIDTH 671 0
DWIDTH 8 0
BBX 8 9 0 0
BITMAP
06F4
0D1C
2809
300A
7009
700D
301C
3474
1B90
ENDCHAR
STARTCHAR uni041F
ENCODING 1055
SWIDTH 696 0
DWIDTH 8 0
BBX 8 9 0 0
BITMAP
1FFF
1807
2806
240A
3409
300D
700C
601C
A018
ENDCHAR
STARTCHAR uni0420
ENCODING 1056
SWIDTH 616 0
DWIDTH 7 0
BBX 8 9 0 0
BITMAP
1FF4
181C
2409
241C
3FE4
3000
6000
6000
A000
ENDCHAR
STARTCHAR uni0421
ENCODING 1057
SWIDTH 636 0
DWIDTH 8 0
BBX 8 9 0 0
BITMAP
06F4
0D1C
2809
3000
7000
6000
7018
3474
1B90
ENDCHAR
STARTCHAR uni0422
ENCODING 1058
SWIDTH 583 0
DWIDTH 7 0
BBX 7 9 1 0
BITMAP
FFF4
0600
0900
0900
0C00
0C00
1C00
1800
2800
ENDCHAR
STARTCHAR uni0423
ENCODING 1059
SWIDTH 614 0
DWIDTH 7 0
BBX 7 9 1 0
BITMAP
A028
7070
30D0
25C0
1B40
1E00
0D00
2800
E000
ENDCHAR
STARTCHAR uni0424
ENCODING 1060
SWIDTH 753 0
DWIDTH 9 0
BBX 9 9 0 0
BITMAP
007000
07FD00
29A740
309180
60D180
60C240
35CA00
1BF800
028000
ENDCHAR
STARTCHAR uni0425
ENCODING 1061
SWIDTH 612 0
DWIDTH 7 0
BBX 8 9 0 0
BITMAP
280D
0C28
0A70
07D0
0380
0BC0
1CD0
7460
D034
ENDCHAR
STARTCHAR uni0426
ENCODING 1062
SWIDTH 713 0
DWIDTH 9 0
BBX 8 11 0 -2
BITMAP
1C03
1807
2806
240A
3409
300D
700C
601C
BFFE
0009
000D
ENDCHAR
STARTCHAR uni0427
ENCODING 1063
SWIDTH 668 0
DWIDTH 8 0
BBX 7 9 1 0
BITMAP
6018
6028
9024
A074
2FB0
0030
0070
0060
00A0
ENDCHAR
STARTCHAR uni0428
ENCODING 1064
SWIDTH 917 0
DWIDTH 11 0
BBX 11 9 0 0
BITMAP
1C1818
181828
282424
242434
343030
303070
706060
6060A0
BFFFD0
ENDCHAR
STARTCHAR uni0429
ENCODING 1065
SWIDTH 944 0
DWIDTH 11 0
BBX 11 11 0 -2
BITMAP
1C1818
181828
282424
242434
343030
303070
706060
6060A0
BFFFF4
000030
000030
ENDCHAR
STARTCHAR uni042A
ENCODING 1066
SWIDTH 740 0
DWIDTH 9 0
BBX 7 9 1 0
BITMAP
FD00
0D00
0C00
1C00
1FF4
281C
240C
3428
3FE0
ENDCHAR
STARTCHAR uni042B
ENCODING 1067
SWIDTH 843 0
DWIDTH 10 0
BBX 10 9 0 0
BITMAP
1C0060
180060
280090
240090
3FE0C0
3028C0
701980
607580
BFD240
ENDCHAR
STARTCHAR uni042C
ENCODING 1068
SWIDTH 613 0
DWIDTH 7 0
BBX 7 9 0 0
BITMAP
1800
1800
2800
2400
3FE0
3028
7028
6074
BFD0
ENDCHAR
STARTCHAR uni042D
ENCODING 1069
SWIDTH 658 0
DWIDTH 8 0
BBX 8 9 0 0
BITMAP
06F4
1D1C
2409
0009
03FD
000C
6018
3474
1B90
ENDCHAR
STARTCHAR uni042E
ENCODING 1070
SWIDTH 872 0
DWIDTH 10 0
BBX 11 9 0 0
BITMAP
1C1F80
1874A0
28C030
258034
3F8030
324070
7280A0
61D1C0
607E00
ENDCHAR
STARTCHAR uni042F
ENCODING 1071
SWIDTH 622 0
DWIDTH 7 0
BBX 8 9 0 0
BITMAP
06FD
1D0C
241C
2418
1828
0BF4
1C34
3430
9070
ENDCHAR
STARTCHAR uni0430
ENCODING 1072
SWIDTH 532 0
DWIDTH 6 0
BBX 6 7 0 0
BITMAP
0B80
24A0
0060
2FD0
6090
A1C0
7EC0
ENDCHAR
STARTCHAR uni0431
ENCODING 1073
SWIDTH 541 0
DWIDTH 7 0
BBX 7 9 0 0
BITMAP
0064
0790
1800
2BD0
7470
6030
6070
7090
2F40
ENDCHAR
STARTCHAR uni0432
ENCODING 1074
SWIDTH 559 0
DWIDTH 7 0
BBX 6 7 0 0
BITMAP
2FE0
3070
3FD0
20A0
6060
6090
BF80
ENDCHAR
STARTCHAR uni0433
ENCODING 1075
SWIDTH 411 0
DWIDTH 5 0
BBX 6 7 0 0
BITMAP
2FD0
3400
3000
7000
6000
A000
9000
ENDCHAR
STARTCHAR uni0434
ENCODING 1076
SWIDTH 590 0
DWIDTH 7 0
BBX 8 9 -1 -2
BITMAP
02FD
030C
030C
0618
0918
1828
7FFC
600C
9018
ENDCHAR
STARTCHAR uni0435
ENCODING 1077
SWIDTH 518 0
DWIDTH 6 0
BBX 6 7 0 0
BITMAP
0B80
28A0
7060
7FE0
6000
7080
1F80
ENDCHAR
STARTCHAR uni0436
ENCODING 1078
SWIDTH 747 0
DWIDTH 9 0
BBX 10 7 -1 0
BITMAP
0D24A0
0A25C0
033340
03FE00
0A6700
1C6240
7491C0
ENDCHAR
STARTCHAR uni0437
ENCODING 1079
SWIDTH 497 0
DWIDTH 6 0
BBX 6 7 0 0
BITMAP
1F80
3490
00D0
0F80
00C0
A1C0
2E40
ENDCHAR
STARTCHAR uni0438
ENCODING 1080
SWIDTH 564 0
DWIDTH 7 0
BBX 7 7 0 0
BITMAP
2434
34B0
32B0
7660
6D60
7490
A090
ENDCHAR
STARTCHAR uni0439
ENCODING 1081
SWIDTH 564 0
DWIDTH 7 0
BBX 7 10 0 0
BITMAP
0660
02D0
0000
2434
34B0
32B0
7660
6D60
7490
A090
ENDCHAR
STARTCHAR uni043A
ENCODING 1082
SWIDTH 528 0
DWIDTH 6 0
BBX 6 7 0 0
BITMAP
2470
35D0
3340
7E00
6300
6280
90D0
ENDCHAR
STARTCHAR uni043B
ENCODING 1083
SWIDTH 565 0
DWIDTH 7 0
BBX 8 7 -1 0
BITMAP
03FD
030C
060C
0618
0918
1C24
7424
ENDCHAR
STARTCHAR uni043C
ENCODING 1084
SWIDTH 724 0
DWIDTH 9 0
BBX 8 7 0 0
BITMAP
2C07
3C0F
391B
3636
669A
63C9
924D
ENDCHAR
STARTCHAR uni043D
ENCODING 1085
SWIDTH 564 0
DWIDTH 7 0
BBX 7 7 0 0
BITMAP
2424
3430
3030
7FE0
6060
6090
9090
ENDCHAR
STARTCHAR uni043E
ENCODING 1086
SWIDTH 558 0
DWIDTH 7 0
BBX 6 7 0 0
BITMAP
0B90
2860
6030
6030
6070
7090
1F40
ENDCHAR
STARTCHAR uni043F
ENCODING 1087
SWIDTH 564 0
DWIDTH 7 0
BBX 7 7 0 0
BITMAP
2FF4
3430
3030
7060
6060
6090
9090
ENDCHAR
STARTCHAR uni0440
ENCODING 1088
SWIDTH 549 0
DWIDTH 7 0
BBX 6 9 0 -2
BITMAP
2BD0
38A0
3030
6030
6060
A1D0
AF40
C000
C000
ENDCHAR
STARTCHAR uni0441
ENCODING 1089
SWIDTH 512 0
DWIDTH 6 0
BBX 6 7 0 0
BITMAP
0B80
34A0
6010
6000
6000
70D0
2F40
ENDCHAR
STARTCHAR uni0442
ENCODING 1090
SWIDTH 470 0
DWIDTH 6 0
BBX 6 7 0 0
BITMAP
7FE0
0A00
0900
0900
0C00
0C00
1800
ENDCHAR
STARTCHAR uni0443
ENCODING 1091
SWIDTH 463 0
DWIDTH 6 0
BBX 7 9 -1 -2
BITMAP
1828
0C30
0C60
09C0
0A80
0700
0600
1C00
7400
ENDCHAR
STARTCHAR uni0444
ENCODING 1092
SWIDTH 708 0
DWIDTH 9 0
BBX 8 11 0 -2
BITMAP
00A0
0090
1BFD
34CA
6186
6186
A246
625D
2FF4
0300
0600
ENDCHAR
STARTCHAR uni0445
ENCODING 1093
SWIDTH 485 0
DWIDTH 6 0
BBX 6 7 0 0
BITMAP
30A0
2580
0F00
0E00
2A00
7240
D180
ENDCHAR
STARTCHAR uni0446
ENCODING 1094
SWIDTH 579 0
DWIDTH 7 0
BBX 7 9 0 -2
BITMAP
2424
3430
3030
7060
6060
6090
BFF0
0060
0060
ENDCHAR
STARTCHAR uni0447
ENCODING 1095
SWIDTH 532 0
DWIDTH 6 0
BBX 5 7 1 0
BITMAP
C0C0
C180
C280
BF40
0240
0300
0300
ENDCHAR
STARTCHAR uni0448
ENCODING 1096
SWIDTH 789 0
DWIDTH 9 0
BBX 9 7 0 0
BITMAP
2460C0
34A180
309180
70D280
60C240
61C340
BFFF00
ENDCHAR
STARTCHAR uni0449
ENCODING 1097
SWIDTH 807 0
DWIDTH 10 0
BBX 9 9 0 -2
BITMAP
2460C0
309180
309180
60C240
60C240
A18300
BFFF80
000180
000240
ENDCHAR
STARTCHAR uni044A
ENCODING 1098
SWIDTH 606 0
DWIDTH 7 0
BBX 7 7 0 0
BITMAP
7D00
0900
0FE0
0C28
1818
1824
2FE0
ENDCHAR
STARTCHAR uni044B
ENCODING 1099
SWIDTH 757 0
DWIDTH 9 0
BBX 9 7 0 0
BITMAP
240240
300240
3F8300
309300
60A600
60D600
BF4900
ENDCHAR
STARTCHAR uni044C
ENCODING 1100
SWIDTH 531 0
DWIDTH 6 0
BBX 6 7 0 0
BITMAP
2400
3000
3F80
3090
60A0
60D0
BF40
ENDCHAR
STARTCHAR uni044D
ENCODING 1101
SWIDTH 526 0
DWIDTH 6 0
BBX 6 7 0 0
BITMAP
1B80
3490
0060
0BE0
4090
A1C0
2E00
ENDCHAR
STARTCHAR uni044E
ENCODING 1102
SWIDTH 796 0
DWIDTH 10 0
BBX 9 7 0 0
BITMAP
246E00
31D280
3F80C0
2240C0
624180
618740
907D00
ENDCHAR
STARTCHAR uni044F
ENCODING 1103
SWIDTH 537 0
DWIDTH 6 0
BBX 6 7 0 0
BITMAP
1FF0
3460
70A0
2FD0
2490
60C0
C0C0
ENDCHAR
STARTCHAR uni0450
ENCODING 1104
SWIDTH 518 0
DWIDTH 6 0
BBX 6 10 0 0
BITMAP
0600
0200
0000
0B80
28A0
7060
7FE0
6000
7080
1F80
ENDCHAR
STARTCHAR uni0451
ENCODING 1105
SWIDTH 518 0
DWIDTH 6 0
BBX 6 9 0 0
BITMAP
0960
0000
0B80
28A0
7060
7FE0
6000
7080
1F80
ENDCHAR
STARTCHAR uni0452
ENCODING 1106
SWIDTH 539 0
DWIDTH 6 0
BBX 6 11 0 -2
BITMAP
1800
7F40
2BD0
38A0
3060
60A0
6090
90D0
90C0
0180
0B40
ENDCHAR
STARTCHAR uni0453
ENCODING 1107
SWIDTH 411 0
DWIDTH 5 0
BBX 6 10 0 0
BITMAP
0280
0600
0000
2FD0
3400
3000
7000
6000
A000
9000
ENDCHAR
STARTCHAR uni0454
ENCODING 1108
SWIDTH 526 0
DWIDTH 6 0
BBX 6 7 0 0
BITMAP
0BD0
2860
3010
7F00
6000
3090
1F40
ENDCHAR
STARTCHAR uni0455
ENCODING 1109
SWIDTH 504 0
DWIDTH 6 0
BBX 6 7 0 0
BITMAP
1B80
3490
3400
1B40
00C0
A1C0
2F40
ENDCHAR
STARTCHAR uni0456
ENCODING 1110
SWIDTH 240 0
DWIDTH 3 0
BBX 3 9 0 0
BITMAP
18
00
24
34
30
70
60
60
90
ENDCHAR
STARTCHAR uni0457
ENCODING 1111
SWIDTH 244 0
DWIDTH 3 0
BBX 4 9 0 0
BITMAP
53
00
24
34
30
70
60
60
90
ENDCHAR
STARTCHAR uni0458
ENCODING 1112
SWIDTH 236 0
DWIDTH 3 0
BBX 5 11 -2 -2
BITMAP
0180
0000
0240
0300
0300
0600
0600
0900
0900
0C00
7800
ENDCHAR
STARTCHAR uni0459
ENCODING 1113
SWIDTH 827 0
DWIDTH 10 0
BBX 10 7 -1 0
BITMAP
03FC00
031C00
061800
0A1FE0
092430
1C2470
743FD0
ENDCHAR
STARTCHAR uni045A
ENCODING 1114
SWIDTH 840 0
DWIDTH 10 0
BBX 10 7 0 0
BITMAP
242400
343000
303000
7FFF80
606090
6090D0
90BF40
ENDCHAR
STARTCHAR uni045B
ENCODING 1115
SWIDTH 554 0
DWIDTH 7 0
BBX 6 9 0 0
BITMAP
1800
7F40
2BD0
38A0
3060
6060
6090
9090
90C0
ENDCHAR
STARTCHAR uni045C
ENCODING 1116
SWIDTH 528 0
DWIDTH 6 0
BBX 6 10 0 0
BITMAP
00D0
0240
0000
2470
35D0
3340
7E00
6300
6280
90D0
ENDCHAR
STARTCHAR uni045D
ENCODING 1117
SWIDTH 564 0
DWIDTH 7 0
BBX 7 10 0 0
BITMAP
0700
0240
0000
2434
34B0
32B0
7660
6D60
7490
A090
ENDCHAR
STARTCHAR uni045E
ENCODING 1118
SWIDTH 463 0
DWIDTH 6 0
BBX 7 12 -1 -2
BITMAP
0324
01E0
0000
1828
0C30
0C60
09C0
0A80
0700
0600
1C00
7400
ENDCHAR
STARTCHAR uni045F
ENCODING 1119
SWIDTH 564 0
DWIDTH 7 0
BBX 7 9 0 -2
BITMAP
2424
3430
3030
7060
6060
6090
BFD0
0D00
0C00
ENDCHAR
STARTCHAR uni0460
ENCODING 1120
SWIDTH 857 0
DWIDTH 10 0
BBX 11 9 0 0
BITMAP
1C2834
182430
283470
243060
3470A0
306090
70A0D0
31E1C0
2F6E40
ENDCHAR
STARTCHAR uni0461
ENCODING 1121
SWIDTH 752 0
DWIDTH 9 0
BBX 9 7 0 0
BITMAP
249180
309180
30D240
60C240
61C300
62C600
2EB900
ENDCHAR
STARTCHAR uni0462
ENCODING 1122
SWIDTH 613 0
DWIDTH 7 0
BBX 7 9 0 0
BITMAP
1800
BF00
2400
2400
3FE0
3028
7028
6074
BFD0
ENDCHAR
STARTCHAR uni0463
ENCODING 1123
SWIDTH 530 0
DWIDTH 6 0
BBX 6 9 0 0
BITMAP
1C00
1800
BF40
2400
3400
3F80
60A0
6090
BF80
ENDCHAR
STARTCHAR uni0464
ENCODING 1124
SWIDTH 874 0
DWIDTH 10 0
BBX 10 9 0 0
BITMAP
1C1F80
1864A0
28C020
258000
3FFE00
324000
724090
61C1C0
60BE00
ENDCHAR
STARTCHAR uni0465
ENCODING 1125
SWIDTH 728 0
DWIDTH 9 0
BBX 8 7 0 0
BITMAP
24BE
3282
3FF8
6300
6301
A28A
90B8
ENDCHAR
STARTCHAR uni0466
ENCODING 1126
SWIDTH 589 0
DWIDTH 7 0
BBX 7 9 0 0
BITMAP
01C0
02D0
0790
0960
1860
2FF0
7330
9624
C624
ENDCHAR
STARTCHAR uni0467
ENCODING 1127
SWIDTH 522 0
DWIDTH 6 0
BBX 7 7 -1 0
BITMAP
01C0
02D0
0790
0960
1FF0
2770
6324
ENDCHAR
STARTCHAR uni0468
ENCODING 1128
SWIDTH 858 0
DWIDTH 10 0
BBX 10 9 0 0
BITMAP
0C0700
1C0B40
181E40
282580
246180
3FFFC0
31CCC0
725890
671890
ENDCHAR
STARTCHAR uni0469
ENCODING 1129
SWIDTH 737 0
DWIDTH 9 0
BBX 8 7 0 0
BITMAP
2828
2478
349C
31C9
3FFD
6766
6967
ENDCHAR
STARTCHAR uni046A
ENCODING 1130
SWIDTH 831 0
DWIDTH 10 0
BBX 9 9 0 0
BITMAP
07FFC0
034340
028900
01D800
1BFE00
34A280
609180
A0D180
90C280
ENDCHAR
STARTCHAR uni046B
ENCODING 1131
SWIDTH 717 0
DWIDTH 9 0
BBX 8 7 0 0
BITMAP
0BFD
0624
0360
1FF4
758C
A249
924C
ENDCHAR
STARTCHAR uni046C
ENCODING 1132
SWIDTH 1098 0
DWIDTH 13 0
BBX 13 9 0 0
BITMAP
1C0FFF40
18090900
28062800
24037000
3FFFF900
30A18700
70C28300
61824700
61834600
ENDCHAR
STARTCHAR uni046D
ENCODING 1133
SWIDTH 952 0
DWIDTH 11 0
BBX 10 7 0 0
BITMAP
243FF0
342890
300E80
7FFFD0
618970
624930
934C30
ENDCHAR
STARTCHAR uni046E
ENCODING 1134
SWIDTH 506 0
DWIDTH 6 0
BBX 7 14 -1 -2
BITMAP
0098
0070
0000
07E0
0028
0018
0074
07D0
0070
0030
00A0
2F80
7000
2400
ENDCHAR
STARTCHAR uni046F
ENCODING 1135
SWIDTH 472 0
DWIDTH 6 0
BBX 6 12 -1 -2
BITMAP
0260
01D0
0000
0FD0
0070
0070
0BD0
00A0
00A0
2F80
6000
2400
ENDCHAR
STARTCHAR uni0470
ENCODING 1136
SWIDTH 675 0
DWIDTH 8 0
BBX 8 9 1 0
BITMAP
9249
934D
D30C
C71C
C628
AA70
2F80
0D00
0C00
ENDCHAR
STARTCHAR uni0471
ENCODING 1137
SWIDTH 684 0
DWIDTH 8 0
BBX 8 10 0 -3
BITMAP
30C6
31C6
6186
6286
6249
3768
1BE0
0300
0600
0600
ENDCHAR
STARTCHAR uni0472
ENCODING 1138
SWIDTH 664 0
DWIDTH 8 0
BBX 8 9 0 0
BITMAP
06E4
1D1C
2409
3009
7FFD
600D
7018
3474
1B90
ENDCHAR
STARTCHAR uni0473
ENCODING 1139
SWIDTH 555 0
DWIDTH 7 0
BBX 6 7 0 0
BITMAP
0B90
2860
6030
7FF0
6070
70D0
2F40
ENDCHAR
STARTCHAR uni0474
ENCODING 1140
SWIDTH 615 0
DWIDTH 7 0
BBX 7 9 1 0
BITMAP
D01C
9070
9090
60C0
6280
3300
3600
2C00
2800
ENDCHAR
STARTCHAR uni0475
ENCODING 1141
SWIDTH 491 0
DWIDTH 6 0
BBX 6 7 1 0
BITMAP
C1D0
C340
C600
9900
9800
7400
7000
ENDCHAR
STARTCHAR uni0476
ENCODING 1142
SWIDTH 615 0
DWIDTH 7 0
BBX 7 10 1 0
BITMAP
3B00
DA5C
9070
9090
60C0
6280
3300
3600
2C00
2800
ENDCHAR
STARTCHAR uni0477
ENCODING 1143
SWIDTH 491 0
DWIDTH 6 0
BBX 6 10 1 0
BITMAP
AD00
2A00
0000
C1D0
C340
C600
9900
9800
7400
7000
ENDCHAR
STARTCHAR uni0478
ENCODING 1144
SWIDTH 1135 0
DWIDTH 14 0
BBX 14 11 0 -2
BITMAP
06F40000
0D1C0000
28097060
300A30D0
70093580
700D2740
301C2A00
34741D00
1B901800
00003400
0001D000
ENDCHAR
STARTCHAR uni0479
ENCODING 1145
SWIDTH 1021 0
DWIDTH 12 0
BBX 13 9 0 -2
BITMAP
0B928240
28618600
60318900
6030D800
6070E400
7090A000
1F409000
00018000
000A0000
ENDCHAR
STARTCHAR uni047A
ENCODING 1146
SWIDTH 664 0
DWIDTH 8 0
BBX 8 11 0 -1
BITMAP
0050
06F4
1D9C
2409
3009
6009
600D
601C
3674
1F90
0600
ENDCHAR
STARTCHAR uni047B
ENCODING 1147
SWIDTH 554 0
DWIDTH 7 0
BBX 6 9 0 -1
BITMAP
0140
0BD0
2A70
7030
6030
6070
7590
2F40
0800
ENDCHAR
STARTCHAR uni047C
ENCODING 1148
SWIDTH 854 0
DWIDTH 10 0
BBX 10 12 0 0
BITMAP
003D00
009280
000800
071480
1C00A0
240060
240060
306090
306090
70A0D0
31E180
2F6E40
ENDCHAR
STARTCHAR uni047D
ENCODING 1149
SWIDTH 749 0
DWIDTH 9 0
BBX 9 10 0 0
BITMAP
00B400
018B00
003000
195600
340240
300240
608240
61C300
62C600
2EB900
ENDCHAR
STARTCHAR uni047E
ENCODING 1150
SWIDTH 857 0
DWIDTH 10 0
BBX 11 12 0 0
BITMAP
00FF80
001800
000000
1C2834
182430
283470
243060
3470A0
306090
70A0D0
31E1C0
2F6E40
ENDCHAR
STARTCHAR uni047F
ENCODING 1151
SWIDTH 752 0
DWIDTH 9 0
BBX 9 10 0 0
BITMAP
03FE00
006000
000000
249180
309180
30D240
60C240
61C300
62C600
2EB900
ENDCHAR
STARTCHAR uni0480
ENCODING 1152
SWIDTH 634 0
DWIDTH 8 0
BBX 8 11 0 -2
BITMAP
06F4
1D1C
2409
3000
7000
6000
7000
3400
1F00
0600
0600
ENDCHAR
STARTCHAR uni0481
ENCODING 1153
SWIDTH 523 0
DWIDTH 6 0
BBX 6 9 0 -2
BITMAP
0B80
2860
7010
6000
6000
7000
2D00
0C00
0C00
ENDCHAR
STARTCHAR uni0482
ENCODING 1154
SWIDTH 609 0
DWIDTH 7 0
BBX 7 8 0 0
BITMAP
0018
0260
01E0
01A8
2600
1E00
2A40
6000
ENDCHAR
STARTCHAR uni0483
ENCODING 1155
SWIDTH 0 0
DWIDTH 0 0
BBX 5 3 -5 7
BITMAP
0140
7F80
5000
ENDCHAR
STARTCHAR uni0484
ENCODING 1156
SWIDTH 0 0
DWIDTH 0 0
BBX 5 2 -5 8
BITMAP
1B40
6480
ENDCHAR
STARTCHAR uni0485
ENCODING 1157
SWIDTH 0 0
DWIDTH 0 0
BBX 2 2 -3 8
BITMAP
90
50
ENDCHAR
STARTCHAR uni0486
ENCODING 1158
SWIDTH 0 0
DWIDTH 0 0
BBX 2 2 -3 8
BITMAP
30
50
ENDCHAR
STARTCHAR uni0488
ENCODING 1160
SWIDTH 0 0
DWIDTH 0 0
BBX 12 12 -9 -3
BITMAP
001D00
001100
0A0034
050054
000000
74002C
440015
000000
2801D0
140110
00A000
005000
ENDCHAR
STARTCHAR uni0489
ENCODING 1161
SWIDTH 0 0
DWIDTH 0 0
BBX 11 11 -9 -2
BITMAP
000800
000800
010064
020040
000000
640024
000004
000000
040140
245040
008000
ENDCHAR
STARTCHAR uni048A
ENCODING 1162
SWIDTH 736 0
DWIDTH 9 0
BBX 8 14 0 -2
BITMAP
018C
00B4
0000
1C07
180F
282A
24AA
35C9
374D
7D0C
781D
B01E
0009
0008
ENDCHAR
STARTCHAR uni048B
ENCODING 1163
SWIDTH 602 0
DWIDTH 7 0
BBX 7 12 0 -2
BITMAP
0560
03D0
0000
2434
34B0
32B0
7660
6D60
74A0
A0B4
0030
0050
ENDCHAR
STARTCHAR uni048C
ENCODING 1164
SWIDTH 613 0
DWIDTH 7 0
BBX 7 9 0 0
BITMAP
1800
BF00
2400
2400
3FE0
3028
7028
6074
BFD0
ENDCHAR
STARTCHAR uni048D
ENCODING 1165
SWIDTH 530 0
DWIDTH 6 0
BBX 6 10 0 0
BITMAP
0C00
7F80
1800
2400
2400
3F80
3090
60A0
60D0
BF40
ENDCHAR
STARTCHAR uni048E
ENCODING 1166
SWIDTH 624 0
DWIDTH 7 0
BBX 8 9 0 0
BITMAP
1FF4
181D
240D
247C
3FE8
3004
6000
6000
A000
ENDCHAR
STARTCHAR uni048F
ENCODING 1167
SWIDTH 554 0
DWIDTH 7 0
BBX 6 9 0 -2
BITMAP
2BD0
38A0
3030
6030
6160
A2D0
AFD0
C000
C000
ENDCHAR
STARTCHAR uni0490
ENCODING 1168
SWIDTH 536 0
DWIDTH 6 0
BBX 7 11 0 0
BITMAP
000C
000C
1FFC
1800
2400
2400
3000
3000
6000
6000
9000
ENDCHAR
STARTCHAR uni0491
ENCODING 1169
SWIDTH 437 0
DWIDTH 5 0
BBX 6 8 0 0
BITMAP
0090
2FD0
3000
3000
6000
6000
A000
9000
ENDCHAR
STARTCHAR uni0492
ENCODING 1170
SWIDTH 544 0
DWIDTH 7 0
BBX 7 9 0 0
BITMAP
1FFC
1800
2800
2400
BE00
3000
7000
6000
A000
ENDCHAR
STARTCHAR uni0493
ENCODING 1171
SWIDTH 411 0
DWIDTH 5 0
BBX 6 7 0 0
BITMAP
2FD0
3400
3000
FE00
6000
6000
9000
ENDCHAR
STARTCHAR uni0494
ENCODING 1172
SWIDTH 593 0
DWIDTH 7 0
BBX 7 11 0 -2
BITMAP
1FFC
1800
2800
2400
3F80
30A0
7030
6030
A030
00A0
0380
ENDCHAR
STARTCHAR uni0495
ENCODING 1173
SWIDTH 492 0
DWIDTH 6 0
BBX 5 9 0 -2
BITMAP
2FC0
3000
3000
7E00
6280
A0C0
91C0
0240
0900
ENDCHAR
STARTCHAR uni0496
ENCODING 1174
SWIDTH 930 0
DWIDTH 11 0
BBX 11 11 0 -2
BITMAP
281828
0C2870
0924D0
073680
03FF00
0A7340
286180
70A0D0
D090B4
000034
000030
ENDCHAR
STARTCHAR uni0497
ENCODING 1175
SWIDTH 778 0
DWIDTH 9 0
BBX 10 9 -1 -2
BITMAP
0D24A0
0A25C0
033340
03FE00
0A6700
1C6240
7491E0
000090
0000D0
ENDCHAR
STARTCHAR uni0498
ENCODING 1176
SWIDTH 580 0
DWIDTH 7 0
BBX 7 11 0 -2
BITMAP
0BE0
2828
1018
0024
07E0
0070
5034
A0B0
2F80
0D00
0C00
ENDCHAR
STARTCHAR uni0499
ENCODING 1177
SWIDTH 497 0
DWIDTH 6 0
BBX 6 9 0 -2
BITMAP
1F80
3490
00D0
0F80
00C0
A1C0
3E40
1800
2800
ENDCHAR
STARTCHAR uni049A
ENCODING 1178
SWIDTH 684 0
DWIDTH 8 0
BBX 8 11 0 -2
BITMAP
1C0A
1828
28B0
25C0
3F40
3280
70D0
6070
A02C
000C
0018
ENDCHAR
STARTCHAR uni049B
ENCODING 1179
SWIDTH 577 0
DWIDTH 7 0
BBX 6 9 0 -2
BITMAP
2470
35D0
3340
7E00
6300
6280
90F0
0070
0060
ENDCHAR
STARTCHAR uni049C
ENCODING 1180
SWIDTH 615 0
DWIDTH 7 0
BBX 8 9 0 0
BITMAP
180A
181C
2534
2690
3FC0
35D0
74A0
6070
A034
ENDCHAR
STARTCHAR uni049D
ENCODING 1181
SWIDTH 549 0
DWIDTH 7 0
BBX 7 7 0 0
BITMAP
2424
3460
36C0
7F80
69C0
A0D0
90A0
ENDCHAR
STARTCHAR uni049E
ENCODING 1182
SWIDTH 638 0
DWIDTH 8 0
BBX 8 9 0 0
BITMAP
0C0A
7F2C
1870
29D0
2F40
35C0
3090
7070
6028
ENDCHAR
STARTCHAR uni049F
ENCODING 1183
SWIDTH 508 0
DWIDTH 6 0
BBX 6 9 0 0
BITMAP
1C00
BF00
2870
25D0
3740
3E00
6300
6280
90C0
ENDCHAR
STARTCHAR uni04A0
ENCODING 1184
SWIDTH 798 0
DWIDTH 10 0
BBX 9 9 1 0
BITMAP
BF0280
060A00
061C00
097400
0BD000
0C7000
0C2400
181C00
180A00
ENDCHAR
STARTCHAR uni04A1
ENCODING 1185
SWIDTH 673 0
DWIDTH 8 0
BBX 8 7 0 0
BITMAP
7F46
031C
0774
07D0
0A70
0924
0D1C
ENDCHAR
STARTCHAR uni04A2
ENCODING 1186
SWIDTH 731 0
DWIDTH 9 0
BBX 8 11 0 -2
BITMAP
1C03
1803
2806
2406
3FFD
3009
700C
600C
A01E
000A
0009
ENDCHAR
STARTCHAR uni04A3
ENCODING 1187
SWIDTH 592 0
DWIDTH 7 0
BBX 7 9 0 -2
BITMAP
2424
3430
3030
7FE0
6060
6090
90B4
0030
0070
ENDCHAR
STARTCHAR uni04A4
ENCODING 1188
SWIDTH 951 0
DWIDTH 11 0
BBX 12 9 0 0
BITMAP
1C03FE
180300
280600
240600
3FFD00
300900
700C00
600C00
A01800
ENDCHAR
STARTCHAR uni04A5
ENCODING 1189
SWIDTH 696 0
DWIDTH 8 0
BBX 9 7 0 0
BITMAP
243F40
303000
307000
7FE000
60A000
A09000
909000
ENDCHAR
STARTCHAR uni04A6
ENCODING 1190
SWIDTH 998 0
DWIDTH 12 0
BBX 11 11 0 -2
BITMAP
1FFF00
180700
280600
240A00
340BE0
300D28
700C0C
601C0C
A01818
000034
0000D0
ENDCHAR
STARTCHAR uni04A7
ENCODING 1191
SWIDTH 848 0
DWIDTH 10 0
BBX 10 9 0 -2
BITMAP
2FF400
303000
307000
607E40
60A1C0
A09090
9090D0
000280
000600
ENDCHAR
STARTCHAR uni04A8
ENCODING 1192
SWIDTH 723 0
DWIDTH 9 0
BBX 9 9 0 0
BITMAP
072E00
1CA340
24C240
31C240
718240
618300
718600
28DD00
0BFE00
ENDCHAR
STARTCHAR uni04A9
ENCODING 1193
SWIDTH 589 0
DWIDTH 7 0
BBX 7 7 0 0
BITMAP
1DE0
3664
6328
6324
6324
37A0
1FF4
ENDCHAR
STARTCHAR uni04AA
ENCODING 1194
SWIDTH 636 0
DWIDTH 8 0
BBX 8 11 0 -2
BITMAP
06F4
0D1C
2809
3000
7000
6000
7018
3474
1F90
0600
0900
ENDCHAR
STARTCHAR uni04AB
ENCODING 1195
SWIDTH 512 0
DWIDTH 6 0
BBX 6 9 0 -2
BITMAP
0B80
34A0
6010
6000
6000
70D0
2F40
1C00
1800
ENDCHAR
STARTCHAR uni04AC
ENCODING 1196
SWIDTH 583 0
DWIDTH 7 0
BBX 7 11 1 -2
BITMAP
FFF4
0600
0900
0900
0C00
0C00
1C00
1800
2D00
0D00
0C00
ENDCHAR
STARTCHAR uni04AD
ENCODING 1197
SWIDTH 470 0
DWIDTH 6 0
BBX 6 9 0 -2
BITMAP
7FE0
0A00
0900
0900
0C00
0C00
1E00
0A00
0900
ENDCHAR
STARTCHAR uni04AE
ENCODING 1198
SWIDTH 587 0
DWIDTH 7 0
BBX 7 9 1 0
BITMAP
D024
A060
30C0
2640
1E00
1C00
1C00
1800
2800
ENDCHAR
STARTCHAR uni04AF
ENCODING 1199
SWIDTH 490 0
DWIDTH 6 0
BBX 5 9 1 -2
BITMAP
C1C0
C240
9700
9900
6800
7400
7000
6000
A000
ENDCHAR
STARTCHAR uni04B0
ENCODING 1200
SWIDTH 587 0
DWIDTH 7 0
BBX 7 9 1 0
BITMAP
D024
A060
70D0
3680
2F00
7F40
1C00
1800
2800
ENDCHAR
STARTCHAR uni04B1
ENCODING 1201
SWIDTH 490 0
DWIDTH 6 0
BBX 6 9 0 -2
BITMAP
3070
3090
24C0
2640
1B00
1D00
7F40
1800
2800
ENDCHAR
STARTCHAR uni04B2
ENCODING 1202
SWIDTH 622 0
DWIDTH 7 0
BBX 8 11 0 -2
BITMAP
280D
0C28
0A70
07D0
0380
0BC0
1CD0
7460
D03C
0028
0024
ENDCHAR
STARTCHAR uni04B3
ENCODING 1203
SWIDTH 509 0
DWIDTH 6 0
BBX 6 9 0 -2
BITMAP
30A0
2580
0F00
0E00
2A00
7240
D1D0
00C0
00C0
ENDCHAR
STARTCHAR uni04B4
ENCODING 1204
SWIDTH 874 0
DWIDTH 11 0
BBX 9 11 1 -2
BITMAP
FFE240
0C0240
0C0300
180300
180700
240600
240A00
300900
3FFF00
000600
000600
ENDCHAR
STARTCHAR uni04B5
ENCODING 1205
SWIDTH 654 0
DWIDTH 8 0
BBX 7 9 0 -2
BITMAP
7F8C
0C0C
1C18
1818
1824
2424
2FFC
0018
0014
ENDCHAR
STARTCHAR uni04B6
ENCODING 1206
SWIDTH 700 0
DWIDTH 8 0
BBX 7 11 1 -2
BITMAP
6018
6028
9024
A074
2FB0
0030
0070
0060
00B4
0030
0030
ENDCHAR
STARTCHAR uni04B7
ENCODING 1207
SWIDTH 561 0
DWIDTH 7 0
BBX 5 9 1 -2
BITMAP
C0C0
C180
C280
BF40
0240
0300
03C0
0180
0240
ENDCHAR
STARTCHAR uni04B8
ENCODING 1208
SWIDTH 663 0
DWIDTH 8 0
BBX 7 9 1 0
BITMAP
6018
A028
9224
A674
2FB0
0570
0460
00A0
0090
ENDCHAR
STARTCHAR uni04B9
ENCODING 1209
SWIDTH 540 0
DWIDTH 6 0
BBX 5 7 1 0
BITMAP
90C0
C9C0
D980
7F80
1640
0240
0300
ENDCHAR
STARTCHAR uni04BA
ENCODING 1210
SWIDTH 663 0
DWIDTH 8 0
BBX 7 9 0 0
BITMAP
1800
2400
2400
3BE0
3428
6018
6018
A024
9024
ENDCHAR
STARTCHAR uni04BB
ENCODING 1211
SWIDTH 539 0
DWIDTH 6 0
BBX 6 9 0 0
BITMAP
1800
2400
2BD0
38A0
3060
6060
6090
9090
90C0
ENDCHAR
STARTCHAR uni04BC
ENCODING 1212
SWIDTH 754 0
DWIDTH 9 0
BBX 8 9 1 0
BITMAP
02F4
0A0D
4C06
E806
7FFE
2400
2400
1810
0BE4
ENDCHAR
STARTCHAR uni04BD
ENCODING 1213
SWIDTH 579 0
DWIDTH 7 0
BBX 7 7 0 0
BITMAP
06D0
4D34
A424
7FF4
3400
2860
0B90
ENDCHAR
STARTCHAR uni04BE
ENCODING 1214
SWIDTH 754 0
DWIDTH 9 0
BBX 8 11 1 -2
BITMAP
02F4
0A0D
4C06
E806
7FFE
2400
2400
1810
0BE4
0240
0300
ENDCHAR
STARTCHAR uni04BF
ENCODING 1215
SWIDTH 579 0
DWIDTH 7 0
BBX 7 9 0 -2
BITMAP
06D0
4D34
A424
7FF4
3400
2860
0F90
0600
0600
ENDCHAR
STARTCHAR uni04C0
ENCODING 1216
SWIDTH 268 0
DWIDTH 3 0
BBX 3 9 0 0
BITMAP
1C
18
28
24
34
30
70
60
60
ENDCHAR
STARTCHAR uni04C1
ENCODING 1217
SWIDTH 885 0
DWIDTH 11 0
BBX 11 12 0 0
BITMAP
002300
002E00
000000
281828
0C2870
0924D0
073680
03FF00
0A7340
286180
70A0D0
D090A0
ENDCHAR
STARTCHAR uni04C2
ENCODING 1218
SWIDTH 747 0
DWIDTH 9 0
BBX 10 10 -1 0
BITMAP
006300
002D00
000000
0D24A0
0A25C0
033340
03FE00
0A6700
1C6240
7491C0
ENDCHAR
STARTCHAR uni04C3
ENCODING 1219
SWIDTH 615 0
DWIDTH 7 0
BBX 8 11 0 -2
BITMAP
180D
1828
28A0
2680
3FD0
3074
7028
6028
A024
0070
0280
ENDCHAR
STARTCHAR uni04C4
ENCODING 1220
SWIDTH 532 0
DWIDTH 6 0
BBX 6 9 0 -2
BITMAP
2470
35D0
3740
7F40
61D0
A090
9090
01C0
0600
ENDCHAR
STARTCHAR uni04C5
ENCODING 1221
SWIDTH 731 0
DWIDTH 9 0
BBX 9 11 -1 -2
BITMAP
00FFC0
0181C0
028180
024280
030240
030340
060300
1D0740
740780
000240
000200
ENDCHAR
STARTCHAR uni04C6
ENCODING 1222
SWIDTH 603 0
DWIDTH 7 0
BBX 8 9 -1 -2
BITMAP
03FD
030C
060C
0618
0918
1C28
742D
000C
0014
ENDCHAR
STARTCHAR uni04C7
ENCODING 1223
SWIDTH 695 0
DWIDTH 8 0
BBX 8 12 0 -3
BITMAP
1C03
1807
2806
240A
3FFD
300D
700C
600C
A018
0018
0024
00E0
ENDCHAR
STARTCHAR uni04C8
ENCODING 1224
SWIDTH 554 0
DWIDTH 7 0
BBX 6 9 0 -2
BITMAP
2430
3030
3060
7FE0
6090
A090
90C0
01C0
0B40
ENDCHAR
STARTCHAR uni04C9
ENCODING 1225
SWIDTH 740 0
DWIDTH 9 0
BBX 8 11 0 -2
BITMAP
1C03
1803
2806
2406
3FFD
3009
700C
600D
A01E
0009
0008
ENDCHAR
STARTCHAR uni04CA
ENCODING 1226
SWIDTH 601 0
DWIDTH 7 0
BBX 7 9 0 -2
BITMAP
2424
3430
3030
7FE0
6060
60A0
90B4
0030
0050
ENDCHAR
STARTCHAR uni04CB
ENCODING 1227
SWIDTH 668 0
DWIDTH 8 0
BBX 7 11 1 -2
BITMAP
6018
6028
9024
A074
2FB0
0030
0070
0060
02E0
0240
0300
ENDCHAR
STARTCHAR uni04CC
ENCODING 1228
SWIDTH 532 0
DWIDTH 6 0
BBX 5 9 1 -2
BITMAP
C0C0
C180
C280
BF40
0240
0300
0F00
1800
1800
ENDCHAR
STARTCHAR uni04CD
ENCODING 1229
SWIDTH 891 0
DWIDTH 11 0
BBX 10 11 0 -2
BITMAP
1D00B0
1E01E0
2A02A0
2707A0
330990
3258D0
71A4C0
61E1D0
A0D1E0
000090
000080
ENDCHAR
STARTCHAR uni04CE
ENCODING 1230
SWIDTH 761 0
DWIDTH 9 0
BBX 9 9 0 -2
BITMAP
2C0700
3C0F00
391B00
363600
669A00
63CA00
924F40
000300
000500
ENDCHAR
STARTCHAR uni04CF
ENCODING 1231
SWIDTH 268 0
DWIDTH 3 0
BBX 3 9 0 0
BITMAP
1C
18
28
24
34
30
70
60
60
ENDCHAR
STARTCHAR uni04D0
ENCODING 1232
SWIDTH 637 0
DWIDTH 8 0
BBX 8 12 -1 0
BITMAP
0096
007C
0000
0034
00B4
00D8
0298
030C
0A0C
1FFD
280A
7006
ENDCHAR
STARTCHAR uni04D1
ENCODING 1233
SWIDTH 532 0
DWIDTH 6 0
BBX 6 10 0 0
BITMAP
0660
02D0
0000
0B80
24A0
0060
2FD0
6090
A1C0
7EC0
ENDCHAR
STARTCHAR uni04D2
ENCODING 1234
SWIDTH 637 0
DWIDTH 8 0
BBX 8 11 -1 0
BITMAP
0096
0000
0034
00B4
00D8
0298
030C
0A0C
1FFD
280A
7006
ENDCHAR
STARTCHAR uni04D3
ENCODING 1235
SWIDTH 532 0
DWIDTH 6 0
BBX 6 9 0 0
BITMAP
0960
0000
0B80
24A0
0060
2FD0
6090
A1C0
7EC0
ENDCHAR
STARTCHAR uni04D4
ENCODING 1236
SWIDTH 911 0
DWIDTH 11 0
BBX 12 9 -1 0
BITMAP
000BFF
001F00
003700
00A600
01C7FC
074600
0FFD00
280900
700FFC
ENDCHAR
STARTCHAR uni04D5
ENCODING 1237
SWIDTH 823 0
DWIDTH 10 0
BBX 10 7 0 0
BITMAP
1B9B80
34B490
00A090
2FFFD0
A0D000
91E040
7E2F40
ENDCHAR
STARTCHAR uni04D6
ENCODING 1238
SWIDTH 556 0
DWIDTH 7 0
BBX 7 12 0 0
BITMAP
0324
01E0
0000
1FFC
1800
2800
2400
3FE0
3000
7000
6000
BFE0
ENDCHAR
STARTCHAR uni04D7
ENCODING 1239
SWIDTH 518 0
DWIDTH 6 0
BBX 6 10 0 0
BITMAP
0960
07C0
0000
0B80
28A0
7060
7FE0
6000
7080
1F80
ENDCHAR
STARTCHAR uni04D8
ENCODING 1240
SWIDTH 675 0
DWIDTH 8 0
BBX 8 9 0 0
BITMAP
0BE4
041C
0009
0006
7FFE
6009
601C
3474
1B90
ENDCHAR
STARTCHAR uni04D9
ENCODING 1241
SWIDTH 516 0
DWIDTH 6 0
BBX 6 7 0 0
BITMAP
1F80
1090
0060
7FE0
6090
61C0
2E40
ENDCHAR
STARTCHAR uni04DA
ENCODING 1242
SWIDTH 675 0
DWIDTH 8 0
BBX 8 11 0 0
BITMAP
0324
0000
0BE4
041C
0009
0006
7FFE
6009
601C
3474
1B90
ENDCHAR
STARTCHAR uni04DB
ENCODING 1243
SWIDTH 516 0
DWIDTH 6 0
BBX 6 9 0 0
BITMAP
0960
0000
1F80
1090
0060
7FE0
6090
61C0
2E40
ENDCHAR
STARTCHAR uni04DC
ENCODING 1244
SWIDTH 885 0
DWIDTH 11 0
BBX 11 11 0 0
BITMAP
006300
000000
281828
0C2870
0924D0
073680
03FF00
0A7340
286180
70A0D0
D090A0
ENDCHAR
STARTCHAR uni04DD
ENCODING 1245
SWIDTH 747 0
DWIDTH 9 0
BBX 10 9 -1 0
BITMAP
009300
000000
0D24A0
0A25C0
033340
03FE00
0A6700
1C6240
7491C0
ENDCHAR
STARTCHAR uni04DE
ENCODING 1246
SWIDTH 580 0
DWIDTH 7 0
BBX 7 11 0 0
BITMAP
0224
0000
0BE0
2828
1018
0024
07E0
0070
5034
A0B0
2F80
ENDCHAR
STARTCHAR uni04DF
ENCODING 1247
SWIDTH 497 0
DWIDTH 6 0
BBX 6 9 0 0
BITMAP
0C90
0000
1F80
3490
00D0
0F80
00C0
A1C0
2E40
ENDCHAR
STARTCHAR uni04E0
ENCODING 1248
SWIDTH 569 0
DWIDTH 7 0
BBX 7 9 0 0
BITMAP
1FF8
0070
01D0
0340
0790
00A0
5070
60A0
2F80
ENDCHAR
STARTCHAR uni04E1
ENCODING 1249
SWIDTH 569 0
DWIDTH 7 0
BBX 7 9 0 -2
BITMAP
2FF4
00A0
0280
0700
0F40
0090
4090
91D0
6E40
ENDCHAR
STARTCHAR uni04E2
ENCODING 1250
SWIDTH 696 0
DWIDTH 8 0
BBX 8 11 0 0
BITMAP
02FD
0000
1C07
180F
282A
24AA
35C9
374D
7D0C
781C
B018
ENDCHAR
STARTCHAR uni04E3
ENCODING 1251
SWIDTH 564 0
DWIDTH 7 0
BBX 7 9 0 0
BITMAP
0BF0
0000
2434
34B0
32B0
7660
6D60
7490
A090
ENDCHAR
STARTCHAR uni04E4
ENCODING 1252
SWIDTH 696 0
DWIDTH 8 0
BBX 8 11 0 0
BITMAP
018C
0000
1C07
180F
282A
24AA
35C9
374D
7D0C
781C
B018
ENDCHAR
STARTCHAR uni04E5
ENCODING 1253
SWIDTH 564 0
DWIDTH 7 0
BBX 7 9 0 0
BITMAP
0960
0000
2434
34B0
32B0
7660
6D60
7490
A090
ENDCHAR
STARTCHAR uni04E6
ENCODING 1254
SWIDTH 671 0
DWIDTH 8 0
BBX 8 11 0 0
BITMAP
0258
0000
06F4
0D1C
2809
300A
7009
700D
301C
3474
1B90
ENDCHAR
STARTCHAR uni04E7
ENCODING 1255
SWIDTH 558 0
DWIDTH 7 0
BBX 6 9 0 0
BITMAP
0960
0000
0B90
2860
6030
6030
6070
7090
1F40
ENDCHAR
STARTCHAR uni04E8
ENCODING 1256
SWIDTH 664 0
DWIDTH 8 0
BBX 8 9 0 0
BITMAP
06E4
1D1C
2409
3009
7FFD
600D
7018
3474
1B90
ENDCHAR
STARTCHAR uni04E9
ENCODING 1257
SWIDTH 555 0
DWIDTH 7 0
BBX 6 7 0 0
BITMAP
0B90
2860
6030
7FF0
6070
70D0
2F40
ENDCHAR
STARTCHAR uni04EA
ENCODING 1258
SWIDTH 664 0
DWIDTH 8 0
BBX 8 11 0 0
BITMAP
024C
0000
06E4
1D1C
2409
3009
7FFD
600D
7018
3474
1B90
ENDCHAR
STARTCHAR uni04EB
ENCODING 1259
SWIDTH 555 0
DWIDTH 7 0
BBX 6 9 0 0
BITMAP
0960
0000
0B90
2860
6030
7FF0
6070
70D0
2F40
ENDCHAR
STARTCHAR uni04EC
ENCODING 1260
SWIDTH 658 0
DWIDTH 8 0
BBX 8 11 0 0
BITMAP
0258
0000
06F4
1D1C
2409
0009
03FD
000C
6018
3474
1B90
ENDCHAR
STARTCHAR uni04ED
ENCODING 1261
SWIDTH 526 0
DWIDTH 6 0
BBX 6 9 0 0
BITMAP
0960
0000
1B80
3490
0060
0BE0
4090
A1C0
2E00
ENDCHAR
STARTCHAR uni04EE
ENCODING 1262
SWIDTH 614 0
DWIDTH 7 0
BBX 7 11 1 0
BITMAP
0FE0
0000
A028
7070
30D0
25C0
1B40
1E00
0D00
2800
E000
ENDCHAR
STARTCHAR uni04EF
ENCODING 1263
SWIDTH 463 0
DWIDTH 6 0
BBX 7 11 -1 -2
BITMAP
07F8
0000
1828
0C30
0C60
09C0
0A80
0700
0600
1C00
7400
ENDCHAR
STARTCHAR uni04F0
ENCODING 1264
SWIDTH 614 0
DWIDTH 7 0
BBX 7 11 1 0
BITMAP
0C50
0000
A028
7070
30D0
25C0
1B40
1E00
0D00
2800
E000
ENDCHAR
STARTCHAR uni04F1
ENCODING 1265
SWIDTH 463 0
DWIDTH 6 0
BBX 7 11 -1 -2
BITMAP
0324
0000
1828
0C30
0C60
09C0
0A80
0700
0600
1C00
7400
ENDCHAR
STARTCHAR uni04F2
ENCODING 1266
SWIDTH 614 0
DWIDTH 7 0
BBX 7 12 1 0
BITMAP
03B4
0690
0000
A028
7070
30D0
25C0
1B40
1E00
0D00
2800
E000
ENDCHAR
STARTCHAR uni04F3
ENCODING 1267
SWIDTH 463 0
DWIDTH 6 0
BBX 7 12 -1 -2
BITMAP
00EC
0264
0000
1828
0C30
0C60
09C0
0A80
0700
0600
1C00
7400
ENDCHAR
STARTCHAR uni04F4
ENCODING 1268
SWIDTH 668 0
DWIDTH 8 0
BBX 7 11 1 0
BITMAP
0960
0000
6018
6028
9024
A074
2FB0
0030
0070
0060
00A0
ENDCHAR
STARTCHAR uni04F5
ENCODING 1269
SWIDTH 532 0
DWIDTH 6 0
BBX 5 9 1 0
BITMAP
3240
0000
C0C0
C180
C280
BF40
0240
0300
0300
ENDCHAR
STARTCHAR uni04F6
ENCODING 1270
SWIDTH 544 0
DWIDTH 7 0
BBX 7 11 0 -2
BITMAP
1FFC
1800
2800
2400
3400
3000
7000
6000
B400
2400
3000
ENDCHAR
STARTCHAR uni04F7
ENCODING 1271
SWIDTH 411 0
DWIDTH 5 0
BBX 6 9 0 -2
BITMAP
2FD0
3400
3000
7000
6000
A000
B400
3000
3000
ENDCHAR
STARTCHAR uni04F8
ENCODING 1272
SWIDTH 843 0
DWIDTH 10 0
BBX 10 11 0 0
BITMAP
009300
000000
1C0060
180060
280090
240090
3FE0C0
3028C0
701980
607580
BFD240
ENDCHAR
STARTCHAR uni04F9
ENCODING 1273
SWIDTH 757 0
DWIDTH 9 0
BBX 9 9 0 0
BITMAP
018C00
000000
240240
300240
3F8300
309300
60A600
60D600
BF4900
ENDCHAR
STARTCHAR uni04FA
ENCODING 1274
SWIDTH 576 0
DWIDTH 7 0
BBX 8 11 0 -2
BITMAP
0BFD
0C00
0C00
1800
7F00
2400
2400
3000
3C00
2800
E000
ENDCHAR
STARTCHAR uni04FB
ENCODING 1275
SWIDTH 449 0
DWIDTH 5 0
BBX 6 9 0 -2
BITMAP
1FE0
1800
2400
BF00
3400
3000
7800
2800
E000
ENDCHAR
STARTCHAR uni04FC
ENCODING 1276
SWIDTH 632 0
DWIDTH 8 0
BBX 8 11 0 -2
BITMAP
280D
0C28
0A70
07D0
0380
0BC0
1CD0
7460
D03C
0028
00E0
ENDCHAR
STARTCHAR uni04FD
ENCODING 1277
SWIDTH 520 0
DWIDTH 6 0
BBX 6 9 0 -2
BITMAP
30A0
2580
0F00
0E00
2A00
7240
D1D0
00D0
0780
ENDCHAR
STARTCHAR uni04FE
ENCODING 1278
SWIDTH 612 0
DWIDTH 7 0
BBX 8 9 0 0
BITMAP
280D
0C24
0650
0FE0
0B80
0FC0
2CD0
7470
D034
ENDCHAR
STARTCHAR uni04FF
ENCODING 1279
SWIDTH 485 0
DWIDTH 6 0
BBX 6 7 0 0
BITMAP
3090
1540
3F80
1E00
3B00
B240
D180
ENDCHAR
STARTCHAR uni0500
ENCODING 1280
SWIDTH 606 0
DWIDTH 7 0
BBX 8 9 0 0
BITMAP
000D
000C
000C
0018
1FF8
7424
A024
6030
2FF0
ENDCHAR
STARTCHAR uni0501
ENCODING 1281
SWIDTH 551 0
DWIDTH 7 0
BBX 7 9 0 0
BITMAP
0018
0024
1BB4
3470
6070
6060
A0A0
61D0
2ED0
ENDCHAR
STARTCHAR uni0502
ENCODING 1282
SWIDTH 802 0
DWIDTH 10 0
BBX 10 9 0 0
BITMAP
000D00
000C00
000C00
001800
1BF840
7424D0
A024C0
6031C0
2FFE40
ENDCHAR
STARTCHAR uni0503
ENCODING 1283
SWIDTH 840 0
DWIDTH 10 0
BBX 10 9 0 0
BITMAP
002800
002400
0BB400
347090
707090
606090
A090C0
61E280
2E7E00
ENDCHAR
STARTCHAR uni0504
ENCODING 1284
SWIDTH 772 0
DWIDTH 9 0
BBX 8 9 1 0
BITMAP
FE00
0240
0280
0749
7D09
0A09
070D
0718
02E0
ENDCHAR
STARTCHAR uni0505
ENCODING 1285
SWIDTH 631 0
DWIDTH 8 0
BBX 7 7 0 0
BITMAP
7E00
0240
0348
7D0C
061C
0728
02E0
ENDCHAR
STARTCHAR uni0506
ENCODING 1286
SWIDTH 524 0
DWIDTH 6 0
BBX 5 11 1 -2
BITMAP
BD00
0700
0340
0600
FC00
0900
0A00
0A00
0B40
0300
0500
ENDCHAR
STARTCHAR uni0507
ENCODING 1287
SWIDTH 493 0
DWIDTH 6 0
BBX 4 9 1 -2
BITMAP
FD
06
06
FC
09
09
0B
06
09
ENDCHAR
STARTCHAR uni0508
ENCODING 1288
SWIDTH 944 0
DWIDTH 11 0
BBX 11 9 0 0
BITMAP
03FF00
070600
060600
090918
090918
0C0C18
180C28
240C70
E00B90
ENDCHAR
STARTCHAR uni0509
ENCODING 1289
SWIDTH 787 0
DWIDTH 9 0
BBX 9 7 0 0
BITMAP
0BF000
0C3080
1C60C0
1860C0
24A180
70A240
D02E00
ENDCHAR
STARTCHAR uni050A
ENCODING 1290
SWIDTH 972 0
DWIDTH 12 0
BBX 11 9 0 0
BITMAP
1C0300
180600
280600
240918
3FFD18
300C18
700C28
600C70
A00B90
ENDCHAR
STARTCHAR uni050B
ENCODING 1291
SWIDTH 808 0
DWIDTH 10 0
BBX 9 7 0 0
BITMAP
243400
303080
3070C0
7FE0C0
6061C0
A06240
902E00
ENDCHAR
STARTCHAR uni050C
ENCODING 1292
SWIDTH 606 0
DWIDTH 7 0
BBX 7 9 0 0
BITMAP
06F4
0D04
2400
3000
7014
6018
7024
3470
1B90
ENDCHAR
STARTCHAR uni050D
ENCODING 1293
SWIDTH 503 0
DWIDTH 6 0
BBX 6 7 0 0
BITMAP
0BC0
2800
7000
6040
6090
71C0
1F40
ENDCHAR
STARTCHAR uni050E
ENCODING 1294
SWIDTH 692 0
DWIDTH 8 0
BBX 7 9 1 0
BITMAP
FFF8
0600
0900
0914
0C18
0C28
1824
1C70
0B80
ENDCHAR
STARTCHAR uni050F
ENCODING 1295
SWIDTH 626 0
DWIDTH 8 0
BBX 7 7 0 0
BITMAP
7FF0
0600
0618
0918
0918
0934
07D0
ENDCHAR
STARTCHAR uni0510
ENCODING 1296
SWIDTH 658 0
DWIDTH 8 0
BBX 8 9 0 0
BITMAP
06F8
1D09
1805
1C00
0BD0
3400
7008
3428
1BE0
ENDCHAR
STARTCHAR uni0511
ENCODING 1297
SWIDTH 527 0
DWIDTH 6 0
BBX 6 7 0 0
BITMAP
1F90
3460
2F40
6000
9000
A1D0
2F40
ENDCHAR
STARTCHAR uni0512
ENCODING 1298
SWIDTH 733 0
DWIDTH 9 0
BBX 9 11 -1 -2
BITMAP
00FFC0
0181C0
028180
024280
030240
030340
060300
1D0700
740780
000280
000E00
ENDCHAR
STARTCHAR uni0513
ENCODING 1299
SWIDTH 604 0
DWIDTH 7 0
BBX 8 9 -1 -2
BITMAP
03FD
030C
060C
0618
0918
1C24
742D
000C
0074
ENDCHAR
STARTCHAR uni1E00
ENCODING 7680
SWIDTH 637 0
DWIDTH 8 0
BBX 8 12 -1 -3
BITMAP
0034
00B4
00D8
0298
030C
0A0C
1FFD
280A
7006
0000
0280
0280
ENDCHAR
STARTCHAR uni1E01
ENCODING 7681
SWIDTH 532 0
DWIDTH 6 0
BBX 6 10 0 -3
BITMAP
0B80
24A0
0060
2FD0
6090
A1C0
7EC0
0000
2800
2800
ENDCHAR
STARTCHAR uni1E3E
ENCODING 7742
SWIDTH 851 0
DWIDTH 10 0
BBX 10 12 0 0
BITMAP
000A00
001800
000000
1D00B0
1E01E0
2A02A0
2707A0
330990
3258D0
71A4C0
61E1C0
A0D180
ENDCHAR
STARTCHAR uni1E3F
ENCODING 7743
SWIDTH 854 0
DWIDTH 10 0
BBX 10 10 0 0
BITMAP
000900
001800
000000
2BDB80
34B490
306090
60A090
6090D0
9090C0
90C1C0
ENDCHAR
STARTCHAR Wgrave
ENCODING 7808
SWIDTH 865 0
DWIDTH 10 0
BBX 10 12 1 0
BITMAP
00C000
005000
000000
90A060
90E090
91A0C0
937180
A63340
693700
6C2900
742C00
702800
ENDCHAR
STARTCHAR wgrave
ENCODING 7809
SWIDTH 733 0
DWIDTH 9 0
BBX 9 10 0 0
BITMAP
01C000
009000
000000
609180
31D240
32A300
326600
292800
2C3800
282400
ENDCHAR
STARTCHAR Wacute
ENCODING 7810
SWIDTH 865 0
DWIDTH 10 0
BBX 10 12 1 0
BITMAP
002800
006000
000000
90A060
90E090
91A0C0
937180
A63340
693700
6C2900
742C00
702800
ENDCHAR
STARTCHAR wacute
ENCODING 7811
SWIDTH 733 0
DWIDTH 9 0
BBX 9 10 0 0
BITMAP
002800
006000
000000
609180
31D240
32A300
326600
292800
2C3800
282400
ENDCHAR
STARTCHAR Wdieresis
ENCODING 7812
SWIDTH 865 0
DWIDTH 10 0
BBX 10 11 1 0
BITMAP
018C00
000000
90A060
90E090
91A0C0
937180
A63340
693700
6C2900
742C00
702800
ENDCHAR
STARTCHAR wdieresis
ENCODING 7813
SWIDTH 733 0
DWIDTH 9 0
BBX 9 9 0 0
BITMAP
025800
000000
609180
31D240
32A300
326600
292800
2C3800
282400
ENDCHAR
STARTCHAR uni1EA0
ENCODING 7840
SWIDTH 637 0
DWIDTH 8 0
BBX 8 11 -1 -2
BITMAP
0034
00B4
00D8
0298
030C
0A0C
1FFD
280A
7006
0000
0140
ENDCHAR
STARTCHAR uni1EA1
ENCODING 7841
SWIDTH 532 0
DWIDTH 6 0
BBX 6 9 0 -2
BITMAP
0B80
24A0
0060
2FD0
6090
A1C0
7EC0
0000
2400
ENDCHAR
STARTCHAR uni1EA2
ENCODING 7842
SWIDTH 637 0
DWIDTH 8 0
BBX 8 13 -1 0
BITMAP
0018
0009
0024
0000
0034
00B4
00D8
0298
030C
0A0C
1FFD
280A
7006
ENDCHAR
STARTCHAR uni1EA3
ENCODING 7843
SWIDTH 532 0
DWIDTH 6 0
BBX 6 11 0 0
BITMAP
00D0
0090
0180
0000
0B80
24A0
0060
2FD0
6090
A1C0
7EC0
ENDCHAR
STARTCHAR uni1EA4
ENCODING 7844
SWIDTH 637 0
DWIDTH 8 0
BBX 10 13 -1 0
BITMAP
0000A0
006980
009500
000000
003400
00B400
00D800
029800
030C00
0A0C00
1FFD00
280A00
700600
ENDCHAR
STARTCHAR uni1EA5
ENCODING 7845
SWIDTH 532 0
DWIDTH 6 0
BBX 8 11 0 0
BITMAP
000A
0298
0960
0000
0B80
24A0
0060
2FD0
6090
A1C0
7EC0
ENDCHAR
STARTCHAR uni1EA6
ENCODING 7846
SWIDTH 637 0
DWIDTH 8 0
BBX 8 14 -1 0
BITMAP
0300
0200
0068
0095
0000
0034
00B4
00D8
0298
030C
0A0C
1FFD
280A
7006
ENDCHAR
STARTCHAR uni1EA7
ENCODING 7847
SWIDTH 532 0
DWIDTH 6 0
BBX 6 12 0 0
BITMAP
3000
1400
0280
0960
0000
0B80
24A0
0060
2FD0
6090
A1C0
7EC0
ENDCHAR
STARTCHAR uni1EA8
ENCODING 7848
SWIDTH 637 0
DWIDTH 8 0
BBX 9 15 -1 0
BITMAP
000180
000080
000140
006800
009500
000000
003400
00B400
00D800
029800
030C00
0A0C00
1FFD00
280A00
700600
ENDCHAR
STARTCHAR uni1EA9
ENCODING 7849
SWIDTH 532 0
DWIDTH 6 0
BBX 8 13 0 0
BITMAP
000C
0009
0018
0290
0960
0000
0B80
24A0
0060
2FD0
6090
A1C0
7EC0
ENDCHAR
STARTCHAR uni1EAA
ENCODING 7850
SWIDTH 637 0
DWIDTH 8 0
BBX 8 15 -1 0
BITMAP
0035
0059
0000
0068
0095
0000
0034
00B4
00D8
0298
030C
0A0C
1FFD
280A
7006
ENDCHAR
STARTCHAR uni1EAB
ENCODING 7851
SWIDTH 532 0
DWIDTH 6 0
BBX 6 13 0 0
BITMAP
0260
0190
0000
0280
0960
0000
0B80
24A0
0060
2FD0
6090
A1C0
7EC0
ENDCHAR
STARTCHAR uni1EAC
ENCODING 7852
SWIDTH 637 0
DWIDTH 8 0
BBX 8 14 -1 -2
BITMAP
0068
00DA
0000
0034
00B4
00D8
0298
030C
0A0C
1FFD
280A
7006
0000
0140
ENDCHAR
STARTCHAR uni1EAD
ENCODING 7853
SWIDTH 532 0
DWIDTH 6 0
BBX 6 12 0 -2
BITMAP
02D0
0A60
0000
0B80
24A0
0060
2FD0
6090
A1C0
7EC0
0000
2400
ENDCHAR
STARTCHAR uni1EAE
ENCODING 7854
SWIDTH 637 0
DWIDTH 8 0
BBX 8 15 -1 0
BITMAP
0008
0018
0000
0096
007C
0000
0034
00B4
00D8
0298
030C
0A0C
1FFD
280A
7006
ENDCHAR
STARTCHAR uni1EAF
ENCODING 7855
SWIDTH 532 0
DWIDTH 6 0
BBX 6 13 0 0
BITMAP
0090
0080
0000
0960
03D0
0000
0B80
24A0
0060
2FD0
6090
A1C0
7EC0
ENDCHAR
STARTCHAR uni1EB0
ENCODING 7856
SWIDTH 637 0
DWIDTH 8 0
BBX 8 13 -1 0
BITMAP
0010
0096
007C
0000
0034
00B4
00D8
0298
030C
0A0C
1FFD
280A
7006
ENDCHAR
STARTCHAR uni1EB1
ENCODING 7857
SWIDTH 532 0
DWIDTH 6 0
BBX 6 11 0 0
BITMAP
0140
0960
03D0
0000
0B80
24A0
0060
2FD0
6090
A1C0
7EC0
ENDCHAR
STARTCHAR uni1EB2
ENCODING 7858
SWIDTH 637 0
DWIDTH 8 0
BBX 8 14 -1 0
BITMAP
001D
0018
0099
0078
0000
0034
00B4
00D8
0298
030C
0A0C
1FFD
280A
7006
ENDCHAR
STARTCHAR uni1EB3
ENCODING 7859
SWIDTH 532 0
DWIDTH 6 0
BBX 6 12 0 0
BITMAP
00D0
0080
0560
03D0
0000
0B80
24A0
0060
2FD0
6090
A1C0
7EC0
ENDCHAR
STARTCHAR uni1EB4
ENCODING 7860
SWIDTH 637 0
DWIDTH 8 0
BBX 8 15 -1 0
BITMAP
0036
0059
0000
0096
0078
0000
0034
00B4
00D8
0298
030C
0A0C
1FFD
280A
7006
ENDCHAR
STARTCHAR uni1EB5
ENCODING 7861
SWIDTH 532 0
DWIDTH 6 0
BBX 6 13 0 0
BITMAP
0260
05A0
0000
0560
03D0
0000
0B80
24A0
0060
2FD0
6090
A1C0
7EC0
ENDCHAR
STARTCHAR uni1EB6
ENCODING 7862
SWIDTH 637 0
DWIDTH 8 0
BBX 8 14 -1 -2
BITMAP
0096
007C
0000
0034
00B4
00D8
0298
030C
0A0C
1FFD
280A
7006
0000
0140
ENDCHAR
STARTCHAR uni1EB7
ENCODING 7863
SWIDTH 532 0
DWIDTH 6 0
BBX 6 12 0 -2
BITMAP
0660
02D0
0000
0B80
24A0
0060
2FD0
6090
A1C0
7EC0
0000
2400
ENDCHAR
STARTCHAR uni1EB8
ENCODING 7864
SWIDTH 556 0
DWIDTH 7 0
BBX 7 11 0 -2
BITMAP
1FFC
1800
2800
2400
3FE0
3000
7000
6000
BFE0
0000
0800
ENDCHAR
STARTCHAR uni1EB9
ENCODING 7865
SWIDTH 518 0
DWIDTH 6 0
BBX 6 9 0 -2
BITMAP
0B80
28A0
7060
7FE0
6000
7080
1F80
0000
0C00
ENDCHAR
STARTCHAR uni1EBA
ENCODING 7866
SWIDTH 556 0
DWIDTH 7 0
BBX 7 13 0 0
BITMAP
00A0
0030
0090
0000
1FFC
1800
2800
2400
3FE0
3000
7000
6000
BFE0
ENDCHAR
STARTCHAR uni1EBB
ENCODING 7867
SWIDTH 518 0
DWIDTH 6 0
BBX 6 11 0 0
BITMAP
0180
0090
0140
0000
0B80
28A0
7060
7FE0
6000
7080
1F80
ENDCHAR
STARTCHAR uni1EBC
ENCODING 7868
SWIDTH 556 0
DWIDTH 7 0
BBX 7 12 0 0
BITMAP
0398
0574
0000
1FFC
1800
2800
2400
3FE0
3000
7000
6000
BFE0
ENDCHAR
STARTCHAR uni1EBD
ENCODING 7869
SWIDTH 518 0
DWIDTH 6 0
BBX 6 10 0 0
BITMAP
0A20
09D0
0000
0B80
28A0
7060
7FE0
6000
7080
1F80
ENDCHAR
STARTCHAR uni1EBE
ENCODING 7870
SWIDTH 556 0
DWIDTH 7 0
BBX 9 13 0 0
BITMAP
000340
01E600
062400
000000
1FFC00
180000
280000
240000
3FE000
300000
700000
600000
BFE000
ENDCHAR
STARTCHAR uni1EBF
ENCODING 7871
SWIDTH 518 0
DWIDTH 6 0
BBX 8 11 0 0
BITMAP
000A
0698
0950
0000
0B80
28A0
7060
7FE0
6000
7080
1F80
ENDCHAR
STARTCHAR uni1EC0
ENCODING 7872
SWIDTH 556 0
DWIDTH 7 0
BBX 7 14 0 0
BITMAP
1800
0800
01E0
0624
0000
1FFC
1800
2800
2400
3FE0
3000
7000
6000
BFE0
ENDCHAR
STARTCHAR uni1EC1
ENCODING 7873
SWIDTH 518 0
DWIDTH 6 0
BBX 6 12 0 0
BITMAP
3000
2000
0680
0950
0000
0B80
28A0
7060
7FE0
6000
7080
1F80
ENDCHAR
STARTCHAR uni1EC2
ENCODING 7874
SWIDTH 556 0
DWIDTH 7 0
BBX 8 15 0 0
BITMAP
0009
0002
0008
01A0
0624
0000
1FFC
1800
2800
2400
3FE0
3000
7000
6000
BFE0
ENDCHAR
STARTCHAR uni1EC3
ENCODING 7875
SWIDTH 518 0
DWIDTH 6 0
BBX 7 13 0 0
BITMAP
0018
0008
0014
0680
0950
0000
0B80
28A0
7060
7FE0
6000
7080
1F80
ENDCHAR
STARTCHAR uni1EC4
ENCODING 7876
SWIDTH 556 0
DWIDTH 7 0
BBX 7 15 0 0
BITMAP
0194
0170
0000
01A0
0624
0000
1FFC
1800
2800
2400
3FE0
3000
7000
6000
BFE0
ENDCHAR
STARTCHAR uni1EC5
ENCODING 7877
SWIDTH 518 0
DWIDTH 6 0
BBX 6 13 0 0
BITMAP
0350
0590
0000
0680
0950
0000
0B80
28A0
7060
7FE0
6000
7080
1F80
ENDCHAR
STARTCHAR uni1EC6
ENCODING 7878
SWIDTH 556 0
DWIDTH 7 0
BBX 7 14 0 -2
BITMAP
01E0
0734
0000
1FFC
1800
2800
2400
3FE0
3000
7000
6000
BFE0
0000
0800
ENDCHAR
STARTCHAR uni1EC7
ENCODING 7879
SWIDTH 518 0
DWIDTH 6 0
BBX 6 12 0 -2
BITMAP
0680
0DA0
0000
0B80
28A0
7060
7FE0
6000
7080
1F80
0000
0C00
ENDCHAR
STARTCHAR uni1EC8
ENCODING 7880
SWIDTH 268 0
DWIDTH 3 0
BBX 4 13 0 0
BITMAP
0A
03
09
00
1C
18
28
24
34
30
70
60
60
ENDCHAR
STARTCHAR uni1EC9
ENCODING 7881
SWIDTH 244 0
DWIDTH 3 0
BBX 4 11 0 0
BITMAP
0D
0A
18
00
24
34
30
70
60
60
90
ENDCHAR
STARTCHAR uni1ECA
ENCODING 7882
SWIDTH 268 0
DWIDTH 3 0
BBX 3 11 0 -2
BITMAP
1C
18
28
24
34
30
70
60
60
00
90
ENDCHAR
STARTCHAR uni1ECB
ENCODING 7883
SWIDTH 240 0
DWIDTH 3 0
BBX 3 11 0 -2
BITMAP
18
00
24
34
30
70
60
60
90
00
C0
ENDCHAR
STARTCHAR uni1ECC
ENCODING 7884
SWIDTH 671 0
DWIDTH 8 0
BBX 8 11 0 -2
BITMAP
06F4
0D1C
2809
300A
7009
700D
301C
3474
1B90
0000
0600
ENDCHAR
STARTCHAR uni1ECD
ENCODING 7885
SWIDTH 558 0
DWIDTH 7 0
BBX 6 9 0 -2
BITMAP
0B90
2860
6030
6030
6070
7090
1F40
0000
0C00
ENDCHAR
STARTCHAR uni1ECE
ENCODING 7886
SWIDTH 671 0
DWIDTH 8 0
BBX 8 13 0 0
BITMAP
0034
0024
0060
0000
06F4
0D1C
2809
300A
7009
700D
301C
3474
1B90
ENDCHAR
STARTCHAR uni1ECF
ENCODING 7887
SWIDTH 558 0
DWIDTH 7 0
BBX 6 11 0 0
BITMAP
01C0
0090
0180
0000
0B90
2860
6030
6030
6070
7090
1F40
ENDCHAR
STARTCHAR uni1ED0
ENCODING 7888
SWIDTH 671 0
DWIDTH 8 0
BBX 9 13 0 0
BITMAP
000180
00B600
025800
000000
06F400
0D1C00
280900
300A00
700900
700D00
301C00
347400
1B9000
ENDCHAR
STARTCHAR uni1ED1
ENCODING 7889
SWIDTH 558 0
DWIDTH 7 0
BBX 8 11 0 0
BITMAP
000A
0298
0960
0000
0B90
2860
6030
6030
6070
7090
1F40
ENDCHAR
STARTCHAR uni1ED2
ENCODING 7890
SWIDTH 671 0
DWIDTH 8 0
BBX 8 14 0 0
BITMAP
0C00
0500
00A0
0258
0000
06F4
0D1C
2809
300A
7009
700D
301C
3474
1B90
ENDCHAR
STARTCHAR uni1ED3
ENCODING 7891
SWIDTH 558 0
DWIDTH 7 0
BBX 6 12 0 0
BITMAP
3000
2000
0680
0960
0000
0B90
2860
6030
6030
6070
7090
1F40
ENDCHAR
STARTCHAR uni1ED4
ENCODING 7892
SWIDTH 671 0
DWIDTH 8 0
BBX 9 15 0 0
BITMAP
000300
000240
000600
00A400
025800
000000
06F400
0D1C00
280900
300A00
700900
700D00
301C00
347400
1B9000
ENDCHAR
STARTCHAR uni1ED5
ENCODING 7893
SWIDTH 558 0
DWIDTH 7 0
BBX 7 13 0 0
BITMAP
0018
0008
0014
0680
0960
0000
0B90
2860
6030
6030
6070
7090
1F40
ENDCHAR
STARTCHAR uni1ED6
ENCODING 7894
SWIDTH 671 0
DWIDTH 8 0
BBX 8 15 0 0
BITMAP
0098
0064
0000
00A0
0258
0000
06F4
0D1C
2809
300A
7009
700D
301C
3474
1B90
ENDCHAR
STARTCHAR uni1ED7
ENCODING 7895
SWIDTH 558 0
DWIDTH 7 0
BBX 6 13 0 0
BITMAP
0360
0590
0000
0680
0960
0000
0B90
2860
6030
6030
6070
7090
1F40
ENDCHAR
STARTCHAR uni1ED8
ENCODING 7896
SWIDTH 671 0
DWIDTH 8 0
BBX 8 14 0 -2
BITMAP
00B4
0298
0000
06F4
0D1C
2809
300A
7009
700D
301C
3474
1B90
0000
0600
ENDCHAR
STARTCHAR uni1ED9
ENCODING 7897
SWIDTH 558 0
DWIDTH 7 0
BBX 6 12 0 -2
BITMAP
0680
0DA0
0000
0B90
2860
6030
6030
6070
7090
1F40
0000
0C00
ENDCHAR
STARTCHAR uni1EDA
ENCODING 7898
SWIDTH 670 0
DWIDTH 8 0
BBX 9 12 0 0
BITMAP
002800
006000
000040
06E5C0
1D1F40
240900
300900
600900
600D00
701C00
347400
1B9000
ENDCHAR
STARTCHAR uni1EDB
ENCODING 7899
SWIDTH 559 0
DWIDTH 7 0
BBX 8 10 0 0
BITMAP
00A0
0180
0001
0B99
2878
7030
6030
6070
70D0
2F40
ENDCHAR
STARTCHAR uni1EDC
ENCODING 7900
SWIDTH 670 0
DWIDTH 8 0
BBX 9 12 0 0
BITMAP
01C000
009000
000040
06E5C0
1D1F40
240900
300900
600900
600D00
701C00
347400
1B9000
ENDCHAR
STARTCHAR uni1EDD
ENCODING 7901
SWIDTH 559 0
DWIDTH 7 0
BBX 8 10 0 0
BITMAP
0700
0240
0001
0B99
2878
7030
6030
6070
70D0
2F40
ENDCHAR
STARTCHAR uni1EDE
ENCODING 7902
SWIDTH 670 0
DWIDTH 8 0
BBX 9 13 0 0
BITMAP
003400
002400
006000
000040
06E5C0
1D1F40
240900
300900
600900
600D00
701C00
347400
1B9000
ENDCHAR
STARTCHAR uni1EDF
ENCODING 7903
SWIDTH 559 0
DWIDTH 7 0
BBX 8 11 0 0
BITMAP
00D0
0090
0180
0001
0B99
2878
7030
6030
6070
70D0
2F40
ENDCHAR
STARTCHAR uni1EE0
ENCODING 7904
SWIDTH 670 0
DWIDTH 8 0
BBX 9 12 0 0
BITMAP
02D800
022800
000040
06E5C0
1D1F40
240900
300900
600900
600D00
701C00
347400
1B9000
ENDCHAR
STARTCHAR uni1EE1
ENCODING 7905
SWIDTH 559 0
DWIDTH 7 0
BBX 8 10 0 0
BITMAP
0760
08A0
0001
0B99
2878
7030
6030
6070
70D0
2F40
ENDCHAR
STARTCHAR uni1EE2
ENCODING 7906
SWIDTH 670 0
DWIDTH 8 0
BBX 9 12 0 -2
BITMAP
000040
06E5C0
1D1F40
240900
300900
600900
600D00
701C00
347400
1B9000
000000
060000
ENDCHAR
STARTCHAR uni1EE3
ENCODING 7907
SWIDTH 559 0
DWIDTH 7 0
BBX 8 10 0 -2
BITMAP
0001
0B99
2878
7030
6030
6070
70D0
2F40
0000
0C00
ENDCHAR
STARTCHAR uni1EE4
ENCODING 7908
SWIDTH 633 0
DWIDTH 8 0
BBX 8 11 0 -2
BITMAP
180A
2809
240D
340C
300C
7018
6028
3470
1F90
0000
0900
ENDCHAR
STARTCHAR uni1EE5
ENCODING 7909
SWIDTH 539 0
DWIDTH 6 0
BBX 6 9 0 -2
BITMAP
2430
3030
3060
7060
6090
71D0
2EC0
0000
1400
ENDCHAR
STARTCHAR uni1EE6
ENCODING 7910
SWIDTH 633 0
DWIDTH 8 0
BBX 8 13 0 0
BITMAP
0060
0024
0090
0000
180A
2809
240D
340C
300C
7018
6028
3470
1F90
ENDCHAR
STARTCHAR uni1EE7
ENCODING 7911
SWIDTH 539 0
DWIDTH 6 0
BBX 6 11 0 0
BITMAP
01C0
0090
0180
0000
2430
3030
3060
7060
6090
71D0
2EC0
ENDCHAR
STARTCHAR uni1EE8
ENCODING 7912
SWIDTH 679 0
DWIDTH 8 0
BBX 10 12 0 0
BITMAP
002800
006000
000020
1806A0
280B80
240900
340C00
300C00
701800
702800
347400
1F9000
ENDCHAR
STARTCHAR uni1EE9
ENCODING 7913
SWIDTH 604 0
DWIDTH 7 0
BBX 8 10 0 0
BITMAP
00A0
0180
0001
2436
303D
3070
7060
60A0
71D0
2EC0
ENDCHAR
STARTCHAR uni1EEA
ENCODING 7914
SWIDTH 679 0
DWIDTH 8 0
BBX 10 12 0 0
BITMAP
01C000
009000
000020
1806A0
280B80
240900
340C00
300C00
701800
702800
347400
1F9000
ENDCHAR
STARTCHAR uni1EEB
ENCODING 7915
SWIDTH 604 0
DWIDTH 7 0
BBX 8 10 0 0
BITMAP
0700
0240
0001
2436
303D
3070
7060
60A0
71D0
2EC0
ENDCHAR
STARTCHAR uni1EEC
ENCODING 7916
SWIDTH 679 0
DWIDTH 8 0
BBX 10 13 0 0
BITMAP
007000
002400
006000
000020
1806A0
280B80
240900
340C00
300C00
701800
702800
347400
1F9000
ENDCHAR
STARTCHAR uni1EED
ENCODING 7917
SWIDTH 604 0
DWIDTH 7 0
BBX 8 11 0 0
BITMAP
01C0
0090
0180
0001
2436
303D
3070
7060
60A0
71D0
2EC0
ENDCHAR
STARTCHAR uni1EEE
ENCODING 7918
SWIDTH 679 0
DWIDTH 8 0
BBX 10 12 0 0
BITMAP
02C800
022800
000020
1806A0
280B80
240900
340C00
300C00
701800
702800
347400
1F9000
ENDCHAR
STARTCHAR uni1EEF
ENCODING 7919
SWIDTH 604 0
DWIDTH 7 0
BBX 8 10 0 0
BITMAP
0B20
08A0
0001
2436
303D
3070
7060
60A0
71D0
2EC0
ENDCHAR
STARTCHAR uni1EF0
ENCODING 7920
SWIDTH 679 0
DWIDTH 8 0
BBX 10 12 0 -2
BITMAP
000020
1806A0
280B80
240900
340C00
300C00
701800
702800
347400
1F9000
000000
060000
ENDCHAR
STARTCHAR uni1EF1
ENCODING 7921
SWIDTH 604 0
DWIDTH 7 0
BBX 8 10 0 -2
BITMAP
0001
2436
303D
3070
7060
60A0
71D0
2EC0
0000
1800
ENDCHAR
STARTCHAR Ygrave
ENCODING 7922
SWIDTH 587 0
DWIDTH 7 0
BBX 7 12 1 0
BITMAP
0900
0200
0000
D024
A060
30C0
2640
1E00
1C00
1C00
1800
2800
ENDCHAR
STARTCHAR ygrave
ENCODING 7923
SWIDTH 463 0
DWIDTH 6 0
BBX 7 12 -1 -2
BITMAP
0280
0080
0000
1828
0C30
0C60
09C0
0A80
0700
0600
1C00
7400
ENDCHAR
STARTCHAR uni1EF4
ENCODING 7924
SWIDTH 587 0
DWIDTH 7 0
BBX 7 11 1 -2
BITMAP
D024
A060
30C0
2640
1E00
1C00
1C00
1800
2800
0000
3000
ENDCHAR
STARTCHAR uni1EF5
ENCODING 7925
SWIDTH 463 0
DWIDTH 6 0
BBX 7 10 -1 -3
BITMAP
1828
0C30
0C60
09C0
0A80
0700
0600
1C00
7400
0140
ENDCHAR
STARTCHAR uni1EF6
ENCODING 7926
SWIDTH 587 0
DWIDTH 7 0
BBX 7 13 1 0
BITMAP
0280
01C0
0240
0000
D024
A060
30C0
2640
1E00
1C00
1C00
1800
2800
ENDCHAR
STARTCHAR uni1EF7
ENCODING 7927
SWIDTH 463 0
DWIDTH 6 0
BBX 7 13 -1 -2
BITMAP
00A0
0030
0090
0000
1828
0C30
0C60
09C0
0A80
0700
0600
1C00
7400
ENDCHAR
STARTCHAR uni1EF8
ENCODING 7928
SWIDTH 587 0
DWIDTH 7 0
BBX 7 12 1 0
BITMAP
0E60
15D0
0000
D024
A060
30C0
2640
1E00
1C00
1C00
1800
2800
ENDCHAR
STARTCHAR uni1EF9
ENCODING 7929
SWIDTH 463 0
DWIDTH 6 0
BBX 7 12 -1 -2
BITMAP
0388
0574
0000
1828
0C30
0C60
09C0
0A80
0700
0600
1C00
7400
ENDCHAR
STARTCHAR uni1F4D
ENCODING 8013
SWIDTH 706 0
DWIDTH 8 0
BBX 10 9 -2 0
BITMAP
992F80
58A0A0
01C070
028030
024070
034060
024090
018280
00BE00
ENDCHAR
STARTCHAR uni2000
ENCODING 8192
SWIDTH 499 0
DWIDTH 6 0
BBX 1 1 0 0
BITMAP
00
ENDCHAR
STARTCHAR uni2001
ENCODING 8193
SWIDTH 994 0
DWIDTH 12 0
BBX 1 1 0 0
BITMAP
00
ENDCHAR
STARTCHAR uni2002
ENCODING 8194
SWIDTH 499 0
DWIDTH 6 0
BBX 1 1 0 0
BITMAP
00
ENDCHAR
STARTCHAR uni2003
ENCODING 8195
SWIDTH 994 0
DWIDTH 12 0
BBX 1 1 0 0
BITMAP
00
ENDCHAR
STARTCHAR uni2004
ENCODING 8196
SWIDTH 334 0
DWIDTH 4 0
BBX 1 1 0 0
BITMAP
00
ENDCHAR
STARTCHAR uni2005
ENCODING 8197
SWIDTH 251 0
DWIDTH 3 0
BBX 1 1 0 0
BITMAP
00
ENDCHAR
STARTCHAR uni2006
ENCODING 8198
SWIDTH 169 0
DWIDTH 2 0
BBX 1 1 0 0
BITMAP
00
ENDCHAR
STARTCHAR uni2007
ENCODING 8199
SWIDTH 549 0
DWIDTH 7 0
BBX 1 1 0 0
BITMAP
00
ENDCHAR
STARTCHAR uni2008
ENCODING 8200
SWIDTH 270 0
DWIDTH 3 0
BBX 1 1 0 0
BITMAP
00
ENDCHAR
STARTCHAR uni2009
ENCODING 8201
SWIDTH 202 0
DWIDTH 2 0
BBX 1 1 0 0
BITMAP
00
ENDCHAR
STARTCHAR uni200A
ENCODING 8202
SWIDTH 104 0
DWIDTH 1 0
BBX 1 1 0 0
BITMAP
00
ENDCHAR
STARTCHAR uni200B
ENCODING 8203
SWIDTH 0 0
DWIDTH 0 0
BBX 1 1 0 0
BITMAP
00
ENDCHAR
STARTCHAR uni2010
ENCODING 8208
SWIDTH 271 0
DWIDTH 3 0
BBX 3 1 0 3
BITMAP
BC
ENDCHAR
STARTCHAR uni2011
ENCODING 8209
SWIDTH 271 0
DWIDTH 3 0
BBX 3 1 0 3
BITMAP
BC
ENDCHAR
STARTCHAR endash
ENCODING 8211
SWIDTH 641 0
DWIDTH 8 0
BBX 6 1 1 4
BITMAP
FFE0
ENDCHAR
STARTCHAR emdash
ENCODING 8212
SWIDTH 762 0
DWIDTH 9 0
BBX 8 1 1 4
BITMAP
FFFE
ENDCHAR
STARTCHAR uni2015
ENCODING 8213
SWIDTH 762 0
DWIDTH 9 0
BBX 8 1 1 4
BITMAP
FFFE
ENDCHAR
STARTCHAR underscoredbl
ENCODING 8215
SWIDTH 446 0
DWIDTH 5 0
BBX 6 3 -1 -3
BITMAP
BFE0
0000
FFD0
ENDCHAR
STARTCHAR quoteleft
ENCODING 8216
SWIDTH 198 0
DWIDTH 2 0
BBX 2 3 1 6
BITMAP
20
90
C0
ENDCHAR
STARTCHAR quoteright
ENCODING 8217
SWIDTH 198 0
DWIDTH 2 0
BBX 2 3 1 6
BITMAP
60
90
80
ENDCHAR
STARTCHAR quotesinglbase
ENCODING 8218
SWIDTH 197 0
DWIDTH 2 0
BBX 3 3 -1 -2
BITMAP
24
30
50
ENDCHAR
STARTCHAR quotereversed
ENCODING 8219
SWIDTH 198 0
DWIDTH 2 0
BBX 2 3 1 6
BITMAP
90
90
50
ENDCHAR
STARTCHAR quotedblleft
ENCODING 8220
SWIDTH 347 0
DWIDTH 4 0
BBX 4 3 1 6
BITMAP
26
A9
DC
ENDCHAR
STARTCHAR quotedblright
ENCODING 8221
SWIDTH 351 0
DWIDTH 4 0
BBX 4 3 1 6
BITMAP
6A
A9
98
ENDCHAR
STARTCHAR quotedblbase
ENCODING 8222
SWIDTH 338 0
DWIDTH 4 0
BBX 4 4 -1 -2
BITMAP
14
27
36
59
ENDCHAR
STARTCHAR dagger
ENCODING 8224
SWIDTH 539 0
DWIDTH 6 0
BBX 7 9 0 0
BITMAP
0240
0240
7FF4
0300
0600
0600
0A00
0900
0900
ENDCHAR
STARTCHAR daggerdbl
ENCODING 8225
SWIDTH 557 0
DWIDTH 7 0
BBX 7 11 0 -2
BITMAP
0280
0240
3FF4
0300
0300
0600
0600
0900
FFE0
0D00
0C00
ENDCHAR
STARTCHAR bullet
ENCODING 8226
SWIDTH 331 0
DWIDTH 4 0
BBX 3 3 1 3
BITMAP
B0
F4
50
ENDCHAR
STARTCHAR twodotenleader
ENCODING 8229
SWIDTH 461 0
DWIDTH 6 0
BBX 4 2 0 0
BITMAP
01
93
ENDCHAR
STARTCHAR ellipsis
ENCODING 8230
SWIDTH 653 0
DWIDTH 8 0
BBX 7 2 0 0
BITMAP
0100
9324
ENDCHAR
STARTCHAR uni2027
ENCODING 8231
SWIDTH 186 0
DWIDTH 2 0
BBX 2 1 0 3
BITMAP
60
ENDCHAR
STARTCHAR perthousand
ENCODING 8240
SWIDTH 934 0
DWIDTH 11 0
BBX 10 9 1 0
BITMAP
780000
C92000
C99000
B98000
060000
08BBC0
254C90
525C90
01EB80
ENDCHAR
STARTCHAR minute
ENCODING 8242
SWIDTH 173 0
DWIDTH 2 0
BBX 2 3 1 6
BITMAP
90
80
80
ENDCHAR
STARTCHAR second
ENCODING 8243
SWIDTH 314 0
DWIDTH 4 0
BBX 3 3 1 6
BITMAP
58
98
94
ENDCHAR
STARTCHAR guilsinglleft
ENCODING 8249
SWIDTH 295 0
DWIDTH 4 0
BBX 3 5 0 1
BITMAP
08
24
60
20
14
ENDCHAR
STARTCHAR guilsinglright
ENCODING 8250
SWIDTH 295 0
DWIDTH 4 0
BBX 3 5 0 1
BITMAP
20
14
18
24
90
ENDCHAR
STARTCHAR exclamdbl
ENCODING 8252
SWIDTH 508 0
DWIDTH 6 0
BBX 6 9 0 0
BITMAP
1C70
1860
24A0
2490
30C0
30C0
0000
0000
6180
ENDCHAR
STARTCHAR fraction
ENCODING 8260
SWIDTH 445 0
DWIDTH 5 0
BBX 6 7 0 1
BITMAP
0050
0080
0200
0900
1400
6000
8000
ENDCHAR
STARTCHAR uni2074
ENCODING 8308
SWIDTH 360 0
DWIDTH 4 0
BBX 5 5 0 4
BITMAP
0700
0B00
2600
7F40
0600
ENDCHAR
STARTCHAR uni207F
ENCODING 8319
SWIDTH 414 0
DWIDTH 5 0
BBX 5 5 0 4
BITMAP
2B40
25C0
3180
3180
6240
ENDCHAR
STARTCHAR franc
ENCODING 8355
SWIDTH 541 0
DWIDTH 7 0
BBX 8 9 -1 0
BITMAP
07FF
0600
0A00
0900
0FF8
0C00
7F40
1800
2800
ENDCHAR
STARTCHAR lira
ENCODING 8356
SWIDTH 568 0
DWIDTH 7 0
BBX 7 9 0 0
BITMAP
06E0
0D28
1C04
7F80
1800
BF40
2400
3000
FFF0
ENDCHAR
STARTCHAR uni20A6
ENCODING 8358
SWIDTH 772 0
DWIDTH 9 0
BBX 10 9 0 0
BITMAP
0A0280
0F0240
0E8340
BFFFD0
18D700
FFFFC0
243A00
302D00
300D00
ENDCHAR
STARTCHAR peseta
ENCODING 8359
SWIDTH 800 0
DWIDTH 10 0
BBX 9 9 0 0
BITMAP
1FD240
187300
243FC0
243700
34A600
3F8A00
700900
600900
900740
ENDCHAR
STARTCHAR uni20A8
ENCODING 8360
SWIDTH 1030 0
DWIDTH 12 0
BBX 12 9 0 0
BITMAP
1FE400
181C00
240CB9
242A86
3FE280
30D0B8
60A009
607709
A036F4
ENDCHAR
STARTCHAR uni20A9
ENCODING 8361
SWIDTH 722 0
DWIDTH 9 0
BBX 9 9 0 0
BITMAP
2460C0
24A180
24E240
BFFF80
266A00
FFFF40
292800
2C3400
283000
ENDCHAR
STARTCHAR uni20AA
ENCODING 8362
SWIDTH 752 0
DWIDTH 9 0
BBX 9 7 0 0
BITMAP
2FD180
307240
327240
637300
676300
960A00
9BF800
ENDCHAR
STARTCHAR dong
ENCODING 8363
SWIDTH 566 0
DWIDTH 7 0
BBX 8 11 0 -2
BITMAP
0018
00FE
1BB4
3470
6070
6060
A0A0
61D0
2ED0
0000
FFD0
ENDCHAR
STARTCHAR Euro
ENCODING 8364
SWIDTH 549 0
DWIDTH 7 0
BBX 7 9 0 0
BITMAP
01F8
0640
0C00
7FC0
1800
7FC0
1800
1C00
07D0
ENDCHAR
STARTCHAR uni20B1
ENCODING 8369
SWIDTH 714 0
DWIDTH 9 0
BBX 9 9 0 0
BITMAP
0FF800
0C0D00
7FFFC0
180600
BFFF80
281C00
2FE400
340000
700000
ENDCHAR
STARTCHAR uni20B9
ENCODING 8377
SWIDTH 505 0
DWIDTH 6 0
BBX 7 9 0 0
BITMAP
3FF4
01C0
7FF0
0280
BE00
7400
2800
0D00
0700
ENDCHAR
STARTCHAR uni20BA
ENCODING 8378
SWIDTH 544 0
DWIDTH 7 0
BBX 6 9 0 0
BITMAP
0900
0A80
2E00
6E40
6D30
A870
2490
25C0
3E00
ENDCHAR
STARTCHAR uni20BC
ENCODING 8380
SWIDTH 645 0
DWIDTH 8 0
BBX 7 7 0 0
BITMAP
0180
0BE0
2AA4
6258
9318
D318
C618
ENDCHAR
STARTCHAR uni20BD
ENCODING 8381
SWIDTH 648 0
DWIDTH 8 0
BBX 8 9 0 0
BITMAP
0FF8
0C0A
1C06
181D
BFF4
2400
FF00
3000
7000
ENDCHAR
STARTCHAR uni2105
ENCODING 8453
SWIDTH 720 0
DWIDTH 9 0
BBX 7 9 1 0
BITMAP
3D00
9020
9050
7980
0200
09B4
2658
5258
01F4
ENDCHAR
STARTCHAR uni2113
ENCODING 8467
SWIDTH 466 0
DWIDTH 6 0
BBX 6 9 0 0
BITMAP
02D0
0AA0
0990
0DC0
1F00
7C00
1800
1C00
0A00
ENDCHAR
STARTCHAR uni2116
ENCODING 8470
SWIDTH 1002 0
DWIDTH 12 0
BBX 12 9 0 0
BITMAP
1C097D
1D0CD6
2A0CC2
2718C6
3258B8
31A400
60E6FC
60B000
907000
ENDCHAR
STARTCHAR trademark
ENCODING 8482
SWIDTH 611 0
DWIDTH 7 0
BBX 6 3 1 6
BITMAP
BA20
2660
1560
ENDCHAR
STARTCHAR uni03A9.dup2
ENCODING 8486
SWIDTH 649 0
DWIDTH 8 0
BBX 8 9 0 0
BITMAP
06E4
1D1C
240D
300D
700C
601C
3024
2460
FDF4
ENDCHAR
STARTCHAR estimated
ENCODING 8494
SWIDTH 622 0
DWIDTH 7 0
BBX 6 7 1 0
BITMAP
1F80
6490
D060
FFE0
C000
9000
2E40
ENDCHAR
STARTCHAR oneeighth
ENCODING 8539
SWIDTH 750 0
DWIDTH 9 0
BBX 7 9 1 0
BITMAP
2400
B420
2080
3240
26B8
18DC
20B8
919C
00F4
ENDCHAR
STARTCHAR threeeighths
ENCODING 8540
SWIDTH 833 0
DWIDTH 10 0
BBX 8 9 1 0
BITMAP
7D00
5908
2C24
8990
B9AE
0233
082E
1466
007D
ENDCHAR
STARTCHAR fiveeighths
ENCODING 8541
SWIDTH 830 0
DWIDTH 10 0
BBX 8 9 1 0
BITMAP
7D00
9018
B820
4D90
B96E
0633
083D
2066
007D
ENDCHAR
STARTCHAR seveneighths
ENCODING 8542
SWIDTH 782 0
DWIDTH 9 0
BBX 8 9 1 0
BITMAP
BE00
0920
1850
2180
927D
0869
247C
50C9
00B8
ENDCHAR
STARTCHAR partialdiff
ENCODING 8706
SWIDTH 557 0
DWIDTH 7 0
BBX 7 9 0 0
BITMAP
0BD0
0470
0034
1BA4
3474
6030
6060
70D0
2F40
ENDCHAR
STARTCHAR uni0394.dup3
ENCODING 8710
SWIDTH 688 0
DWIDTH 8 0
BBX 9 9 -1 0
BITMAP
002800
007800
00DC00
018900
030900
0A0600
0C0600
280300
7FFF40
ENDCHAR
STARTCHAR product
ENCODING 8719
SWIDTH 678 0
DWIDTH 8 0
BBX 8 10 0 -1
BITMAP
1FFE
1806
240A
2409
3009
300C
600C
6018
9018
9024
ENDCHAR
STARTCHAR summation
ENCODING 8721
SWIDTH 572 0
DWIDTH 7 0
BBX 8 11 -1 -2
BITMAP
0BFF
0A00
0340
0180
0090
0070
01D0
0340
0D00
2400
7FFC
ENDCHAR
STARTCHAR minus
ENCODING 8722
SWIDTH 559 0
DWIDTH 7 0
BBX 5 1 1 4
BITMAP
FF80
ENDCHAR
STARTCHAR radical
ENCODING 8730
SWIDTH 583 0
DWIDTH 7 0
BBX 8 9 0 0
BITMAP
0009
0018
0024
0060
B490
1980
1A40
0E00
0D00
ENDCHAR
STARTCHAR infinity
ENCODING 8734
SWIDTH 1002 0
DWIDTH 12 0
BBX 12 7 0 0
BITMAP
0B91F4
28761C
702C09
602809
60380C
309D28
1F47E0
ENDCHAR
STARTCHAR integral
ENCODING 8747
SWIDTH 252 0
DWIDTH 3 0
BBX 7 11 -2 -2
BITMAP
00B4
01C0
0280
0240
0340
0300
0700
0600
0A00
0D00
7800
ENDCHAR
STARTCHAR approxequal
ENCODING 8776
SWIDTH 551 0
DWIDTH 7 0
BBX 6 4 0 1
BITMAP
2E10
51E0
7910
46D0
ENDCHAR
STARTCHAR notequal
ENCODING 8800
SWIDTH 537 0
DWIDTH 6 0
BBX 6 7 0 0
BITMAP
0010
0090
3FF0
0600
7FD0
2000
1000
ENDCHAR
STARTCHAR lessequal
ENCODING 8804
SWIDTH 498 0
DWIDTH 6 0
BBX 7 7 -1 0
BITMAP
0074
1A40
1A40
01A0
0000
0000
7FE0
ENDCHAR
STARTCHAR greaterequal
ENCODING 8805
SWIDTH 512 0
DWIDTH 6 0
BBX 6 7 0 0
BITMAP
2900
01A0
0690
6400
0000
0000
BFC0
ENDCHAR
STARTCHAR lozenge
ENCODING 9674
SWIDTH 493 0
DWIDTH 6 0
BBX 6 9 0 0
BITMAP
0340
0A80
18C0
3490
A060
60C0
3240
2A00
1C00
ENDCHAR
STARTCHAR uniEE01
ENCODING 60929
SWIDTH 283 0
DWIDTH 3 0
BBX 3 7 0 1
BITMAP
04
18
00
00
00
10
60
ENDCHAR
STARTCHAR uniEE02
ENCODING 60930
SWIDTH 314 0
DWIDTH 4 0
BBX 4 3 0 4
BITMAP
26
25
69
ENDCHAR
STARTCHAR uniF6C3
ENCODING 63171
SWIDTH 249 0
DWIDTH 3 0
BBX 2 2 0 -1
BITMAP
90
80
ENDCHAR
STARTCHAR uniFB01
ENCODING 64257
SWIDTH 541 0
DWIDTH 7 0
BBX 6 9 0 0
BITMAP
07E0
1C00
7F30
2460
2460
3090
3090
70C0
60C0
ENDCHAR
STARTCHAR uniFB02
ENCODING 64258
SWIDTH 555 0
DWIDTH 7 0
BBX 7 9 0 0
BITMAP
07F4
0D24
7F24
1830
2470
2460
30A0
3090
70D0
ENDCHAR
STARTCHAR uniFB03
ENCODING 64259
SWIDTH 833 0
DWIDTH 10 0
BBX 10 9 0 0
BITMAP
07CBD0
0D2400
7FFD90
183090
2460C0
2460C0
309180
309180
70D240
ENDCHAR
STARTCHAR uniFB04
ENCODING 64260
SWIDTH 833 0
DWIDTH 10 0
BBX 10 9 0 0
BITMAP
07DBE0
0D2460
7FFD60
183090
2460D0
2460C0
3091C0
309180
70D240
ENDCHAR
STARTCHAR uniFEFF
ENCODING 65279
SWIDTH 0 0
DWIDTH 0 0
BBX 1 1 0 0
BITMAP
00
ENDCHAR
STARTCHAR uniFFFC
ENCODING 65532
SWIDTH 999 0
DWIDTH 12 0
BBX 14 11 -1 -2
BITMAP
0B77ADD0
08000050
00000000
04000080
02DB4540
222F5940
02DF2840
20000100
20000200
00000200
77ADDE00
ENDCHAR
STARTCHAR uniFFFD
ENCODING 65533
SWIDTH 1025 0
DWIDTH 12 0
BBX 11 12 1 -2
BITMAP
006000
01F800
07FD00
1E0B40
3EA3D0
FFD7F4
FF9FF4
3FFFD0
1F5F40
07FD00
01F800
006000
ENDCHAR
STARTCHAR .notdef
ENCODING -1
SWIDTH 448 0
DWIDTH 5 0
BBX 5 9 0 0
BITMAP
7F80
4040
5140
4540
4840
4540
5140
4040
7F80
ENDCHAR
STARTCHAR glyph369
ENCODING -1
SWIDTH 383 0
DWIDTH 5 0
BBX 4 2 1 7
BITMAP
56
68
ENDCHAR
STARTCHAR uni2009.locl
ENCODING -1
SWIDTH 125 0
DWIDTH 2 0
BBX 1 1 0 0
BITMAP
00
ENDCHAR
STARTCHAR f_f.dlig
ENCODING -1
SWIDTH 604 0
DWIDTH 7 0
BBX 8 9 0 0
BITMAP
07DF
0D34
7FFD
1860
2460
2490
3090
30C0
70C0
ENDCHAR
STARTCHAR longs_t.dlig
ENCODING -1
SWIDTH 602 0
DWIDTH 7 0
BBX 7 9 0 0
BITMAP
07E4
0D30
7DFC
1860
2860
2490
3490
3090
7070
ENDCHAR
STARTCHAR s_t.dlig
ENCODING -1
SWIDTH 805 0
DWIDTH 10 0
BBX 10 9 0 0
BITMAP
002F40
00A280
1BDBE0
34A240
340300
1B4300
01C700
A1C600
2F4380
ENDCHAR
STARTCHAR two.dnom
ENCODING -1
SWIDTH 360 0
DWIDTH 4 0
BBX 4 5 0 0
BITMAP
2D
56
18
60
FD
ENDCHAR
STARTCHAR one.dnom
ENCODING -1
SWIDTH 360 0
DWIDTH 4 0
BBX 3 5 0 0
BITMAP
18
68
18
14
24
ENDCHAR
STARTCHAR zero.dnom
ENCODING -1
SWIDTH 360 0
DWIDTH 4 0
BBX 4 5 0 0
BITMAP
2D
96
96
99
78
ENDCHAR
STARTCHAR nine.c2sc
ENCODING -1
SWIDTH 497 0
DWIDTH 6 0
BBX 6 7 0 0
BITMAP
1F80
34D0
6090
71D0
2EC0
0640
3900
ENDCHAR
STARTCHAR eight.c2sc
ENCODING -1
SWIDTH 497 0
DWIDTH 6 0
BBX 6 7 0 0
BITMAP
1B80
3490
34D0
2F80
61C0
A1C0
6E40
ENDCHAR
STARTCHAR seven.c2sc
ENCODING -1
SWIDTH 497 0
DWIDTH 6 0
BBX 5 7 1 0
BITMAP
FFC0
0240
0600
0C00
2400
6000
D000
ENDCHAR
STARTCHAR six.c2sc
ENCODING -1
SWIDTH 496 0
DWIDTH 6 0
BBX 6 7 0 0
BITMAP
06C0
1900
3B80
74C0
60D0
61C0
2E40
ENDCHAR
STARTCHAR five.c2sc
ENCODING -1
SWIDTH 497 0
DWIDTH 6 0
BBX 6 7 0 0
BITMAP
1FE0
2400
3F80
10C0
00D0
61C0
2E40
ENDCHAR
STARTCHAR four.c2sc
ENCODING -1
SWIDTH 497 0
DWIDTH 6 0
BBX 6 7 0 0
BITMAP
01C0
07C0
1980
6180
FFD0
0240
0300
ENDCHAR
STARTCHAR three.c2sc
ENCODING -1
SWIDTH 497 0
DWIDTH 6 0
BBX 6 7 0 0
BITMAP
1F80
3490
00D0
0F40
01C0
91C0
6E40
ENDCHAR
STARTCHAR two.c2sc
ENCODING -1
SWIDTH 497 0
DWIDTH 6 0
BBX 6 7 0 0
BITMAP
1F80
3490
00D0
0280
0D00
7400
FFC0
ENDCHAR
STARTCHAR one.c2sc
ENCODING -1
SWIDTH 497 0
DWIDTH 6 0
BBX 4 7 1 0
BITMAP
19
AC
0C
18
18
24
24
ENDCHAR
STARTCHAR zero.c2sc
ENCODING -1
SWIDTH 497 0
DWIDTH 6 0
BBX 6 7 0 0
BITMAP
1B80
3490
6090
6090
A0C0
6180
2E00
ENDCHAR
STARTCHAR Z.c2sc
ENCODING -1
SWIDTH 506 0
DWIDTH 6 0
BBX 6 7 0 0
BITMAP
3FF0
0090
0240
0A00
2800
A000
FFC0
ENDCHAR
STARTCHAR Y.c2sc
ENCODING -1
SWIDTH 510 0
DWIDTH 6 0
BBX 6 7 1 0
BITMAP
C0D0
9280
6600
3C00
2400
3400
3000
ENDCHAR
STARTCHAR X.c2sc
ENCODING -1
SWIDTH 529 0
DWIDTH 6 0
BBX 7 7 0 0
BITMAP
3434
18D0
0E80
0B00
1F40
7180
D0D0
ENDCHAR
STARTCHAR W.c2sc
ENCODING -1
SWIDTH 742 0
DWIDTH 9 0
BBX 8 7 1 0
BITMAP
C283
C386
C989
C898
94A4
B0B0
A0A0
ENDCHAR
STARTCHAR V.c2sc
ENCODING -1
SWIDTH 538 0
DWIDTH 6 0
BBX 7 7 0 0
BITMAP
7028
3030
24A0
24C0
1A40
1F00
0D00
ENDCHAR
STARTCHAR U.c2sc
ENCODING -1
SWIDTH 548 0
DWIDTH 7 0
BBX 7 7 0 0
BITMAP
2424
3024
3030
6030
6060
6090
2F40
ENDCHAR
STARTCHAR T.c2sc
ENCODING -1
SWIDTH 507 0
DWIDTH 6 0
BBX 7 7 0 0
BITMAP
7FF4
0700
0600
0A00
0900
0D00
0C00
ENDCHAR
STARTCHAR S.c2sc
ENCODING -1
SWIDTH 504 0
DWIDTH 6 0
BBX 6 7 0 0
BITMAP
1B80
3460
3410
1B40
40D0
A1D0
2F40
ENDCHAR
STARTCHAR R.c2sc
ENCODING -1
SWIDTH 524 0
DWIDTH 6 0
BBX 6 7 0 0
BITMAP
2FD0
3070
3060
7F80
6280
91C0
90D0
ENDCHAR
STARTCHAR Q.c2sc
ENCODING -1
SWIDTH 578 0
DWIDTH 7 0
BBX 7 8 0 -1
BITMAP
0BD0
2870
7024
6024
6030
70A0
1FC0
0090
ENDCHAR
STARTCHAR P.c2sc
ENCODING -1
SWIDTH 533 0
DWIDTH 6 0
BBX 6 7 0 0
BITMAP
2FD0
3030
3070
7F90
6000
9000
9000
ENDCHAR
STARTCHAR O.c2sc
ENCODING -1
SWIDTH 578 0
DWIDTH 7 0
BBX 7 7 0 0
BITMAP
0BD0
2870
7024
6024
6030
70A0
1F80
ENDCHAR
STARTCHAR N.c2sc
ENCODING -1
SWIDTH 597 0
DWIDTH 7 0
BBX 7 7 0 0
BITMAP
2818
3C18
3624
6324
62B0
90F0
90A0
ENDCHAR
STARTCHAR M.c2sc
ENCODING -1
SWIDTH 733 0
DWIDTH 9 0
BBX 9 7 0 0
BITMAP
280740
3C0B40
391B00
663700
666600
93C600
924900
ENDCHAR
STARTCHAR L.c2sc
ENCODING -1
SWIDTH 454 0
DWIDTH 5 0
BBX 5 7 0 0
BITMAP
2400
3000
3000
6000
6000
9000
BF80
ENDCHAR
STARTCHAR K.c2sc
ENCODING -1
SWIDTH 529 0
DWIDTH 6 0
BBX 7 7 0 0
BITMAP
2474
31D0
3740
7E00
7740
9180
9090
ENDCHAR
STARTCHAR J.c2sc
ENCODING -1
SWIDTH 466 0
DWIDTH 6 0
BBX 6 7 0 0
BITMAP
0090
00C0
00C0
0180
0180
D240
7E00
ENDCHAR
STARTCHAR I.c2sc
ENCODING -1
SWIDTH 235 0
DWIDTH 3 0
BBX 3 7 0 0
BITMAP
24
24
30
30
60
60
90
ENDCHAR
STARTCHAR H.c2sc
ENCODING -1
SWIDTH 597 0
DWIDTH 7 0
BBX 7 7 0 0
BITMAP
2418
3018
3024
7FF4
6030
9030
9060
ENDCHAR
STARTCHAR G.c2sc
ENCODING -1
SWIDTH 571 0
DWIDTH 7 0
BBX 7 7 0 0
BITMAP
0BD0
2834
7000
62F0
6030
7460
1F90
ENDCHAR
STARTCHAR F.c2sc
ENCODING -1
SWIDTH 464 0
DWIDTH 6 0
BBX 6 7 0 0
BITMAP
2FE0
3400
3000
7F80
6000
9000
9000
ENDCHAR
STARTCHAR dollar.c2sc
ENCODING -1
SWIDTH 504 0
DWIDTH 6 0
BBX 6 10 0 -2
BITMAP
0240
1BD0
3460
3400
1B40
00D0
90D0
6F40
0C00
0400
ENDCHAR
STARTCHAR sterling.c2sc
ENCODING -1
SWIDTH 514 0
DWIDTH 6 0
BBX 6 7 0 0
BITMAP
0B80
18A0
2410
BF80
3000
6000
FFD0
ENDCHAR
STARTCHAR yen.c2sc
ENCODING -1
SWIDTH 444 0
DWIDTH 5 0
BBX 6 7 0 0
BITMAP
3090
2180
1600
BF80
0C00
BF40
1800
ENDCHAR
STARTCHAR Gamma.c2sc
ENCODING -1
SWIDTH 451 0
DWIDTH 5 0
BBX 6 7 0 0
BITMAP
2FE0
3400
3000
7000
6000
9000
9000
ENDCHAR
STARTCHAR uni0394.c2sc
ENCODING -1
SWIDTH 538 0
DWIDTH 6 0
BBX 7 7 -1 0
BITMAP
00D0
02A0
0360
0930
0834
2424
7FF8
ENDCHAR
STARTCHAR Theta.c2sc
ENCODING -1
SWIDTH 578 0
DWIDTH 7 0
BBX 7 7 0 0
BITMAP
0BD0
2834
3024
6BE4
6030
34A0
1F80
ENDCHAR
STARTCHAR Lambda.c2sc
ENCODING -1
SWIDTH 538 0
DWIDTH 6 0
BBX 7 7 -1 0
BITMAP
00D0
02A0
0360
0930
0C34
2424
7028
ENDCHAR
STARTCHAR Xi.c2sc
ENCODING -1
SWIDTH 433 0
DWIDTH 5 0
BBX 7 7 -1 0
BITMAP
0FF4
0000
0000
1FD0
0000
0000
7FD0
ENDCHAR
STARTCHAR Pi.c2sc
ENCODING -1
SWIDTH 587 0
DWIDTH 7 0
BBX 7 7 0 0
BITMAP
2FF8
3428
3024
7034
6030
9070
9060
ENDCHAR
STARTCHAR Sigma.c2sc
ENCODING -1
SWIDTH 481 0
DWIDTH 6 0
BBX 7 7 -1 0
BITMAP
0FF8
0D00
0700
0340
0A00
2800
7FF0
ENDCHAR
STARTCHAR Phi.c2sc
ENCODING -1
SWIDTH 660 0
DWIDTH 8 0
BBX 8 7 0 0
BITMAP
00C0
1BF4
359D
6249
725C
1FE0
0300
ENDCHAR
STARTCHAR Psi.c2sc
ENCODING -1
SWIDTH 622 0
DWIDTH 7 0
BBX 8 7 0 0
BITMAP
3189
328D
725C
3764
1FD0
0700
0600
ENDCHAR
STARTCHAR uni03A9.c2sc
ENCODING -1
SWIDTH 604 0
DWIDTH 7 0
BBX 7 7 0 0
BITMAP
0BE0
2834
3028
6024
6030
3490
FAF0
ENDCHAR
STARTCHAR uni0402.c2sc
ENCODING -1
SWIDTH 665 0
DWIDTH 8 0
BBX 8 7 0 0
BITMAP
7FF0
0600
0BF4
090C
0C09
0C1C
18A4
ENDCHAR
STARTCHAR uni0404.c2sc
ENCODING -1
SWIDTH 548 0
DWIDTH 7 0
BBX 6 7 0 0
BITMAP
0BD0
2830
7010
7F00
6010
70A0
2F80
ENDCHAR
STARTCHAR uni0409.c2sc
ENCODING -1
SWIDTH 884 0
DWIDTH 11 0
BBX 11 7 -1 0
BITMAP
03FE00
030900
060900
060FF4
090C1C
1C1828
741FE0
ENDCHAR
STARTCHAR uni040A.c2sc
ENCODING -1
SWIDTH 891 0
DWIDTH 11 0
BBX 10 7 0 0
BITMAP
241800
302800
302400
7FFFD0
603070
907060
907F80
ENDCHAR
STARTCHAR uni040B.c2sc
ENCODING -1
SWIDTH 666 0
DWIDTH 8 0
BBX 8 7 0 0
BITMAP
7FF0
0600
0BF4
090C
0C09
0C0C
180C
ENDCHAR
STARTCHAR uni040F.c2sc
ENCODING -1
SWIDTH 586 0
DWIDTH 7 0
BBX 7 9 0 -2
BITMAP
2418
3028
3024
6034
6030
9070
BFE0
0900
0C00
ENDCHAR
STARTCHAR uni0411.c2sc
ENCODING -1
SWIDTH 532 0
DWIDTH 6 0
BBX 6 7 0 0
BITMAP
2FE0
3400
3000
7F80
60A0
9090
BF80
ENDCHAR
STARTCHAR uni0414.c2sc
ENCODING -1
SWIDTH 628 0
DWIDTH 8 0
BBX 8 9 -1 -2
BITMAP
02FE
0246
0309
0609
090C
1C0C
7FFE
6009
9009
ENDCHAR
STARTCHAR uni0416.c2sc
ENCODING -1
SWIDTH 737 0
DWIDTH 9 0
BBX 9 7 0 0
BITMAP
249280
189600
0DDC00
0BF800
299C00
718D00
D24600
ENDCHAR
STARTCHAR uni0417.c2sc
ENCODING -1
SWIDTH 519 0
DWIDTH 6 0
BBX 6 7 0 0
BITMAP
1F90
34A0
00A0
0B80
00D0
91D0
6E40
ENDCHAR
STARTCHAR uni0418.c2sc
ENCODING -1
SWIDTH 601 0
DWIDTH 7 0
BBX 7 7 0 0
BITMAP
241C
3078
31A8
6224
6934
B430
A070
ENDCHAR
STARTCHAR uni041A.c2sc
ENCODING -1
SWIDTH 526 0
DWIDTH 6 0
BBX 6 7 0 0
BITMAP
2470
31D0
3740
7D00
6700
9280
90C0
ENDCHAR
STARTCHAR uni041B.c2sc
ENCODING -1
SWIDTH 581 0
DWIDTH 7 0
BBX 8 7 -1 0
BITMAP
03FE
0309
0609
060C
090C
1C18
7418
ENDCHAR
STARTCHAR uni0423.c2sc
ENCODING -1
SWIDTH 504 0
DWIDTH 6 0
BBX 7 7 0 0
BITMAP
3034
24A0
28C0
1A40
0E00
0D00
7400
ENDCHAR
STARTCHAR uni0426.c2sc
ENCODING -1
SWIDTH 629 0
DWIDTH 8 0
BBX 7 9 0 -2
BITMAP
2418
3028
3024
6034
6030
9070
BFF8
0024
0024
ENDCHAR
STARTCHAR uni0427.c2sc
ENCODING -1
SWIDTH 540 0
DWIDTH 6 0
BBX 7 7 0 0
BITMAP
3034
6030
7070
2FE0
00A0
0090
00D0
ENDCHAR
STARTCHAR uni0428.c2sc
ENCODING -1
SWIDTH 770 0
DWIDTH 9 0
BBX 9 7 0 0
BITMAP
2460C0
309180
309280
60C240
60C340
918300
BFFF00
ENDCHAR
STARTCHAR uni0429.c2sc
ENCODING -1
SWIDTH 813 0
DWIDTH 10 0
BBX 9 9 0 -2
BITMAP
2460C0
309180
309280
60C240
60C340
918300
BFFFC0
000180
000240
ENDCHAR
STARTCHAR uni042A.c2sc
ENCODING -1
SWIDTH 625 0
DWIDTH 8 0
BBX 7 7 0 0
BITMAP
7E00
0900
0D00
0FF4
1C18
1828
2FE0
ENDCHAR
STARTCHAR uni042B.c2sc
ENCODING -1
SWIDTH 725 0
DWIDTH 9 0
BBX 9 7 0 0
BITMAP
240240
340340
300300
7F8700
60A600
909A00
BF8900
ENDCHAR
STARTCHAR uni042C.c2sc
ENCODING -1
SWIDTH 526 0
DWIDTH 6 0
BBX 6 7 0 0
BITMAP
2400
3400
3000
7F80
60A0
9090
BF80
ENDCHAR
STARTCHAR uni042D.c2sc
ENCODING -1
SWIDTH 548 0
DWIDTH 7 0
BBX 6 7 0 0
BITMAP
1B80
3460
1030
0BF0
4060
A1D0
2F40
ENDCHAR
STARTCHAR uni042E.c2sc
ENCODING -1
SWIDTH 788 0
DWIDTH 9 0
BBX 9 7 0 0
BITMAP
247E00
31D280
3241C0
7F0180
630180
924700
90B900
ENDCHAR
STARTCHAR uni042F.c2sc
ENCODING -1
SWIDTH 553 0
DWIDTH 7 0
BBX 7 7 0 0
BITMAP
1BF4
3430
3430
1FE0
2860
7090
9090
ENDCHAR
STARTCHAR uni0492.c2sc
ENCODING -1
SWIDTH 498 0
DWIDTH 6 0
BBX 7 7 0 0
BITMAP
0FF4
1800
2800
FE00
3400
3000
7000
ENDCHAR
STARTCHAR uni0496.c2sc
ENCODING -1
SWIDTH 766 0
DWIDTH 9 0
BBX 9 9 0 -2
BITMAP
249280
189600
0DDC00
0BF800
299C00
718D00
D24B40
000240
000300
ENDCHAR
STARTCHAR uni049A.c2sc
ENCODING -1
SWIDTH 547 0
DWIDTH 7 0
BBX 6 9 0 -2
BITMAP
2470
31D0
3740
7D00
6700
9280
90E0
0060
0090
ENDCHAR
STARTCHAR uni049C.c2sc
ENCODING -1
SWIDTH 615 0
DWIDTH 7 0
BBX 8 7 0 0
BITMAP
241D
3474
39D0
7F80
6DC0
94A0
9034
ENDCHAR
STARTCHAR uni04A0.c2sc
ENCODING -1
SWIDTH 637 0
DWIDTH 8 0
BBX 8 7 0 0
BITMAP
7E0D
0924
09A0
0F80
0CD0
1860
1824
ENDCHAR
STARTCHAR uni04A8.c2sc
ENCODING -1
SWIDTH 703 0
DWIDTH 8 0
BBX 8 7 0 0
BITMAP
0A7D
29C6
3286
6246
6249
3598
1BFD
ENDCHAR
STARTCHAR uni04B0.c2sc
ENCODING -1
SWIDTH 534 0
DWIDTH 6 0
BBX 6 7 1 0
BITMAP
C0D0
9280
6600
3C00
FE00
3400
3000
ENDCHAR
STARTCHAR uni04B2.c2sc
ENCODING -1
SWIDTH 569 0
DWIDTH 7 0
BBX 7 9 0 -2
BITMAP
3434
18D0
0E80
0B00
1F40
7180
D0F0
0060
0060
ENDCHAR
STARTCHAR uni04B4.c2sc
ENCODING -1
SWIDTH 778 0
DWIDTH 9 0
BBX 8 9 0 -2
BITMAP
7FF3
0603
0906
0906
0C09
0C09
1FFF
0003
0006
ENDCHAR
STARTCHAR uni04B8.c2sc
ENCODING -1
SWIDTH 540 0
DWIDTH 6 0
BBX 7 7 0 0
BITMAP
3034
6130
6670
2FE0
09A0
0090
00C0
ENDCHAR
STARTCHAR uni04BA.c2sc
ENCODING -1
SWIDTH 540 0
DWIDTH 6 0
BBX 6 7 0 0
BITMAP
2400
3000
3F90
70A0
6060
9060
90A0
ENDCHAR
STARTCHAR uni04BC.c2sc
ENCODING -1
SWIDTH 703 0
DWIDTH 8 0
BBX 8 7 0 0
BITMAP
01B8
4746
9903
2FFF
0C00
0904
02F4
ENDCHAR
STARTCHAR uni04D8.c2sc
ENCODING -1
SWIDTH 585 0
DWIDTH 7 0
BBX 7 7 0 0
BITMAP
0BD0
0474
0024
7FF4
A034
60A0
2F80
ENDCHAR
STARTCHAR uni04E0.c2sc
ENCODING -1
SWIDTH 519 0
DWIDTH 6 0
BBX 6 7 0 0
BITMAP
3FE0
01D0
0740
0B40
00D0
91D0
6E40
ENDCHAR
STARTCHAR uni04E8.c2sc
ENCODING -1
SWIDTH 578 0
DWIDTH 7 0
BBX 7 7 0 0
BITMAP
0BD0
2834
3024
7FF4
6030
34A0
1F80
ENDCHAR
STARTCHAR lira.c2sc
ENCODING -1
SWIDTH 514 0
DWIDTH 6 0
BBX 6 7 0 0
BITMAP
0BD0
2850
BF80
3000
FF40
6000
FFD0
ENDCHAR
STARTCHAR Euro.c2sc
ENCODING -1
SWIDTH 476 0
DWIDTH 6 0
BBX 6 7 0 0
BITMAP
07E0
1800
BF80
2400
BF80
2400
1F80
ENDCHAR
STARTCHAR uni2116.c2sc
ENCODING -1
SWIDTH 991 0
DWIDTH 12 0
BBX 12 7 0 0
BITMAP
2818B8
3C1989
362689
6324F8
62B000
90F2F4
90A000
ENDCHAR
STARTCHAR uni20BD.c2sc
ENCODING -1
SWIDTH 570 0
DWIDTH 7 0
BBX 7 7 0 0
BITMAP
1FE0
1828
2424
BFE0
3400
FE00
7000
ENDCHAR
STARTCHAR three.dnom
ENCODING -1
SWIDTH 360 0
DWIDTH 4 0
BBX 4 5 0 0
BITMAP
3D
56
2C
89
B8
ENDCHAR
STARTCHAR four.dnom
ENCODING -1
SWIDTH 360 0
DWIDTH 4 0
BBX 4 5 0 0
BITMAP
09
2D
98
FE
0C
ENDCHAR
STARTCHAR five.dnom
ENCODING -1
SWIDTH 360 0
DWIDTH 4 0
BBX 4 5 0 0
BITMAP
3E
60
7D
49
78
ENDCHAR
STARTCHAR six.dnom
ENCODING -1
SWIDTH 360 0
DWIDTH 4 0
BBX 4 5 0 0
BITMAP
1D
60
BD
9A
7C
ENDCHAR
STARTCHAR seven.dnom
ENCODING -1
SWIDTH 360 0
DWIDTH 4 0
BBX 4 5 0 0
BITMAP
BF
05
08
24
60
ENDCHAR
STARTCHAR eight.dnom
ENCODING -1
SWIDTH 360 0
DWIDTH 4 0
BBX 4 5 0 0
BITMAP
3D
66
7C
99
B8
ENDCHAR
STARTCHAR nine.dnom
ENCODING -1
SWIDTH 360 0
DWIDTH 4 0
BBX 4 5 0 0
BITMAP
7D
96
7E
0D
74
ENDCHAR
STARTCHAR glyph550
ENCODING -1
SWIDTH 439 0
DWIDTH 5 0
BBX 4 1 1 4
BITMAP
FE
ENDCHAR
STARTCHAR glyph551
ENCODING -1
SWIDTH 333 0
DWIDTH 4 0
BBX 4 4 1 7
BITMAP
09
18
74
74
ENDCHAR
STARTCHAR E.c2sc
ENCODING -1
SWIDTH 477 0
DWIDTH 6 0
BBX 6 7 0 0
BITMAP
2FE0
3400
3000
7FC0
6000
9000
BF80
ENDCHAR
STARTCHAR g.ss01
ENCODING -1
SWIDTH 517 0
DWIDTH 6 0
BBX 8 9 -1 -2
BITMAP
07FD
0D28
1C24
0FE0
1800
1FE0
6030
A070
2F80
ENDCHAR
STARTCHAR alpha.ss02
ENCODING -1
SWIDTH 582 0
DWIDTH 7 0
BBX 7 7 0 0
BITMAP
0B98
34B4
7070
6060
A0A0
61E0
2E60
ENDCHAR
STARTCHAR R.ss03
ENCODING -1
SWIDTH 646 0
DWIDTH 8 0
BBX 8 9 0 0
BITMAP
1FF4
181C
280D
2418
3FF0
3034
7024
6024
A024
ENDCHAR
STARTCHAR K.ss04
ENCODING -1
SWIDTH 628 0
DWIDTH 8 0
BBX 8 9 0 0
BITMAP
1C0A
1828
28B0
25C0
3F40
3280
70D0
6070
A028
ENDCHAR
STARTCHAR k.ss04
ENCODING -1
SWIDTH 499 0
DWIDTH 6 0
BBX 6 9 0 0
BITMAP
1800
1800
24A0
25C0
3340
7E00
6700
A280
90C0
ENDCHAR
STARTCHAR K.ss05
ENCODING -1
SWIDTH 640 0
DWIDTH 8 0
BBX 8 9 0 0
BITMAP
1C0D
1874
29D0
2B40
3E00
3740
7180
60A0
A034
ENDCHAR
STARTCHAR k.ss05
ENCODING -1
SWIDTH 497 0
DWIDTH 6 0
BBX 6 9 0 0
BITMAP
1800
1800
24A0
2680
3A00
3C00
6D00
A700
9180
ENDCHAR
STARTCHAR D.c2sc
ENCODING -1
SWIDTH 550 0
DWIDTH 7 0
BBX 6 7 0 0
BITMAP
2F80
34A0
3030
6030
6060
91D0
BE40
ENDCHAR
STARTCHAR C.c2sc
ENCODING -1
SWIDTH 548 0
DWIDTH 7 0
BBX 6 7 0 0
BITMAP
0BD0
2830
7010
6000
6010
70A0
2F80
ENDCHAR
STARTCHAR B.c2sc
ENCODING -1
SWIDTH 527 0
DWIDTH 6 0
BBX 6 7 0 0
BITMAP
2F90
3460
30A0
7FC0
6090
90D0
BF80
ENDCHAR
STARTCHAR A.c2sc
ENCODING -1
SWIDTH 552 0
DWIDTH 7 0
BBX 7 7 -1 0
BITMAP
00D0
01A0
0330
0930
0FF4
2418
6018
ENDCHAR
STARTCHAR glyph564
ENCODING -1
SWIDTH 246 0
DWIDTH 3 0
BBX 2 3 1 7
BITMAP
20
70
60
ENDCHAR
STARTCHAR glyph565
ENCODING -1
SWIDTH 446 0
DWIDTH 5 0
BBX 4 3 1 7
BITMAP
14
63
2D
ENDCHAR
STARTCHAR glyph566
ENCODING -1
SWIDTH 0 0
DWIDTH 0 0
BBX 3 5 -4 7
BITMAP
18
24
00
98
68
ENDCHAR
STARTCHAR glyph567
ENCODING -1
SWIDTH 481 0
DWIDTH 6 0
BBX 6 3 1 7
BITMAP
0030
1D90
6200
ENDCHAR
STARTCHAR glyph568
ENCODING -1
SWIDTH 483 0
DWIDTH 6 0
BBX 5 4 0 7
BITMAP
9000
2000
0B40
1880
ENDCHAR
STARTCHAR glyph569
ENCODING -1
SWIDTH 496 0
DWIDTH 6 0
BBX 6 5 1 7
BITMAP
0090
0060
0080
2A00
6200
ENDCHAR
STARTCHAR glyph570
ENCODING -1
SWIDTH 484 0
DWIDTH 6 0
BBX 5 5 1 7
BITMAP
1940
2700
0000
1900
6200
ENDCHAR
STARTCHAR uni0490.c2sc
ENCODING -1
SWIDTH 451 0
DWIDTH 5 0
BBX 6 9 0 0
BITMAP
0020
0060
2FE0
3400
3000
7000
6000
9000
9000
ENDCHAR
STARTCHAR glyph572
ENCODING -1
SWIDTH 443 0
DWIDTH 5 0
BBX 4 5 1 7
BITMAP
05
08
00
63
2D
ENDCHAR
STARTCHAR glyph573
ENCODING -1
SWIDTH 443 0
DWIDTH 5 0
BBX 4 4 1 7
BITMAP
09
09
66
2D
ENDCHAR
STARTCHAR zero.numr
ENCODING -1
SWIDTH 360 0
DWIDTH 4 0
BBX 4 5 1 4
BITMAP
78
C9
C9
CC
B8
ENDCHAR
STARTCHAR four.numr
ENCODING -1
SWIDTH 360 0
DWIDTH 4 0
BBX 5 5 0 4
BITMAP
0700
0B00
2600
7F40
0600
ENDCHAR
STARTCHAR five.numr
ENCODING -1
SWIDTH 360 0
DWIDTH 4 0
BBX 4 5 1 4
BITMAP
7D
90
B8
4C
B8
ENDCHAR
STARTCHAR six.numr
ENCODING -1
SWIDTH 360 0
DWIDTH 4 0
BBX 4 5 1 4
BITMAP
2C
A0
F8
C9
B8
ENDCHAR
STARTCHAR seven.numr
ENCODING -1
SWIDTH 360 0
DWIDTH 4 0
BBX 4 5 1 4
BITMAP
FE
09
18
20
90
ENDCHAR
STARTCHAR eight.numr
ENCODING -1
SWIDTH 360 0
DWIDTH 4 0
BBX 4 5 1 4
BITMAP
7C
99
B8
8C
B8
ENDCHAR
STARTCHAR nine.numr
ENCODING -1
SWIDTH 360 0
DWIDTH 4 0
BBX 4 5 1 4
BITMAP
78
C9
BD
1C
A4
ENDCHAR
STARTCHAR C.ss06
ENCODING -1
SWIDTH 672 0
DWIDTH 8 0
BBX 7 9 1 0
BITMAP
0BE0
3824
A018
D000
C000
C000
C030
A0A0
2F80
ENDCHAR
STARTCHAR G.ss06
ENCODING -1
SWIDTH 693 0
DWIDTH 8 0
BBX 8 9 0 0
BITMAP
02F8
0E0A
2806
3400
3000
70BD
3009
281C
0BE4
ENDCHAR
STARTCHAR D.ss06
ENCODING -1
SWIDTH 680 0
DWIDTH 8 0
BBX 8 9 0 0
BITMAP
1FE0
181C
2809
240A
3409
300D
701C
6074
BF80
ENDCHAR
STARTCHAR O.ss06
ENCODING -1
SWIDTH 717 0
DWIDTH 9 0
BBX 7 9 1 0
BITMAP
0BE0
2824
601C
D00C
C00C
C018
C024
A0A0
2F80
ENDCHAR
STARTCHAR Q.ss06
ENCODING -1
SWIDTH 718 0
DWIDTH 9 0
BBX 7 10 1 -1
BITMAP
0BE0
2824
601C
D00C
C00C
C018
C024
A0A0
2F80
00D0
ENDCHAR
STARTCHAR one.oldstyle.pnum
ENCODING -1
SWIDTH 469 0
DWIDTH 6 0
BBX 4 7 1 0
BITMAP
19
A9
0D
0C
1C
18
28
ENDCHAR
STARTCHAR two.oldstyle.pnum
ENCODING -1
SWIDTH 551 0
DWIDTH 7 0
BBX 6 7 0 0
BITMAP
0BD0
2870
1060
01C0
0A00
2800
BFD0
ENDCHAR
STARTCHAR three.oldstyle.pnum
ENCODING -1
SWIDTH 531 0
DWIDTH 6 0
BBX 7 9 -1 -2
BITMAP
0FFC
0024
0180
03D0
0070
0030
0030
51A0
6F40
ENDCHAR
STARTCHAR four.oldstyle.pnum
ENCODING -1
SWIDTH 587 0
DWIDTH 7 0
BBX 8 9 -1 -2
BITMAP
001C
007C
00D8
0258
0924
2824
7FFD
0030
0060
ENDCHAR
STARTCHAR five.oldstyle.pnum
ENCODING -1
SWIDTH 540 0
DWIDTH 6 0
BBX 7 9 0 -2
BITMAP
1FF4
2400
3000
3F80
60D0
0090
00D0
4280
BE00
ENDCHAR
STARTCHAR seven.oldstyle.pnum
ENCODING -1
SWIDTH 511 0
DWIDTH 6 0
BBX 7 9 0 -2
BITMAP
3FF4
0060
00D0
0180
0300
0900
1800
3400
6000
ENDCHAR
STARTCHAR glyph592
ENCODING -1
SWIDTH 446 0
DWIDTH 5 0
BBX 4 5 1 7
BITMAP
25
26
00
67
2D
ENDCHAR
STARTCHAR glyph593
ENCODING -1
SWIDTH 194 0
DWIDTH 2 0
BBX 2 3 -1 -2
BITMAP
30
30
60
ENDCHAR
STARTCHAR OE.c2sc
ENCODING -1
SWIDTH 810 0
DWIDTH 10 0
BBX 10 7 0 0
BITMAP
0BFFF0
282400
303000
603FC0
606000
30A000
1FFFC0
ENDCHAR
STARTCHAR nine.oldstyle.pnum
ENCODING -1
SWIDTH 577 0
DWIDTH 7 0
BBX 7 9 0 -2
BITMAP
0BD0
2870
3034
7030
34B0
1FA0
0090
0280
7E00
ENDCHAR
STARTCHAR glyph596
ENCODING -1
SWIDTH 245 0
DWIDTH 3 0
BBX 4 3 -2 -2
BITMAP
0A
0D
78
ENDCHAR
STARTCHAR three.oldstyle
ENCODING -1
SWIDTH 549 0
DWIDTH 7 0
BBX 8 9 -1 -2
BITMAP
0BFD
0024
0090
02E0
0074
0024
0034
10A0
6F80
ENDCHAR
STARTCHAR five.oldstyle
ENCODING -1
SWIDTH 549 0
DWIDTH 7 0
BBX 7 9 0 -2
BITMAP
0FF4
1800
2400
3F80
60D0
0090
0090
4280
BE00
ENDCHAR
STARTCHAR four.oldstyle
ENCODING -1
SWIDTH 549 0
DWIDTH 7 0
BBX 7 9 -1 -2
BITMAP
002C
0078
01E8
0324
0924
2430
7FFC
0060
0060
ENDCHAR
STARTCHAR two.oldstyle
ENCODING -1
SWIDTH 549 0
DWIDTH 7 0
BBX 6 7 0 0
BITMAP
0B90
2460
1060
01C0
0A00
2800
BFD0
ENDCHAR
STARTCHAR seven.oldstyle
ENCODING -1
SWIDTH 549 0
DWIDTH 7 0
BBX 7 9 0 -2
BITMAP
2FF4
0030
0090
0180
0240
0600
0C00
2800
7000
ENDCHAR
STARTCHAR zero.oldstyle
ENCODING -1
SWIDTH 549 0
DWIDTH 7 0
BBX 7 7 0 0
BITMAP
0BD0
3470
6024
9034
9030
60A0
2F80
ENDCHAR
STARTCHAR six.oldstyle
ENCODING -1
SWIDTH 549 0
DWIDTH 7 0
BBX 6 9 0 0
BITMAP
02E0
0A00
1800
3BC0
34A0
6070
6060
3490
1F40
ENDCHAR
STARTCHAR nine.oldstyle
ENCODING -1
SWIDTH 549 0
DWIDTH 7 0
BBX 6 9 0 -2
BITMAP
0B80
2460
7030
6030
70A0
2FA0
00D0
0280
BE00
ENDCHAR
STARTCHAR eight.oldstyle
ENCODING -1
SWIDTH 549 0
DWIDTH 7 0
BBX 7 9 0 0
BITMAP
07D0
1C70
2434
1860
0FC0
34A0
6060
6090
2F40
ENDCHAR
STARTCHAR one.oldstyle
ENCODING -1
SWIDTH 549 0
DWIDTH 7 0
BBX 4 7 1 0
BITMAP
1B
6A
06
09
09
0C
0C
ENDCHAR
STARTCHAR glyph607
ENCODING -1
SWIDTH 250 0
DWIDTH 3 0
BBX 5 9 -2 -2
BITMAP
0240
0240
0300
0300
0600
0600
0900
0D00
7800
ENDCHAR
STARTCHAR glyph608
ENCODING -1
SWIDTH 249 0
DWIDTH 3 0
BBX 5 9 -2 -2
BITMAP
0240
0240
0300
0300
0600
0600
0900
0D00
7800
ENDCHAR
STARTCHAR glyph609
ENCODING -1
SWIDTH 245 0
DWIDTH 3 0
BBX 3 7 0 0
BITMAP
24
34
30
70
60
60
90
ENDCHAR
STARTCHAR glyph610
ENCODING -1
SWIDTH 245 0
DWIDTH 3 0
BBX 4 9 -1 -2
BITMAP
09
0D
0C
1C
18
18
24
50
B0
ENDCHAR
STARTCHAR glyph611
ENCODING -1
SWIDTH 245 0
DWIDTH 3 0
BBX 3 7 0 0
BITMAP
24
34
30
70
60
60
90
ENDCHAR
STARTCHAR germandbls.sc
ENCODING -1
SWIDTH 527 0
DWIDTH 6 0
BBX 6 7 0 0
BITMAP
0B90
28D0
3240
6780
6090
9090
9F80
ENDCHAR
STARTCHAR zero.oldstyle.pnum
ENCODING -1
SWIDTH 611 0
DWIDTH 7 0
BBX 7 7 0 0
BITMAP
0BE0
2824
3018
6018
6024
3470
1F80
ENDCHAR
STARTCHAR seven.pnum
ENCODING -1
SWIDTH 504 0
DWIDTH 6 0
BBX 6 9 1 0
BITMAP
FFD0
00C0
0240
0600
0900
1800
3000
A000
C000
ENDCHAR
STARTCHAR b.ss06
ENCODING -1
SWIDTH 549 0
DWIDTH 7 0
BBX 6 9 0 0
BITMAP
1800
2400
2BD0
3870
3030
6030
6060
B0D0
AF40
ENDCHAR
STARTCHAR c.ss06
ENCODING -1
SWIDTH 513 0
DWIDTH 6 0
BBX 6 7 0 0
BITMAP
0B80
2860
7010
6000
6000
70D0
1F40
ENDCHAR
STARTCHAR d.ss06
ENCODING -1
SWIDTH 559 0
DWIDTH 7 0
BBX 7 9 0 0
BITMAP
0018
0028
0BB4
3874
6030
A060
A060
71D0
2E90
ENDCHAR
STARTCHAR g.ss06
ENCODING -1
SWIDTH 556 0
DWIDTH 7 0
BBX 7 9 0 -2
BITMAP
0BA4
3470
7030
A060
A060
71D0
2EC0
4180
7E00
ENDCHAR
STARTCHAR o.ss06
ENCODING -1
SWIDTH 564 0
DWIDTH 7 0
BBX 6 7 0 0
BITMAP
0B90
2870
6030
A030
A070
7090
2F40
ENDCHAR
STARTCHAR p.ss06
ENCODING -1
SWIDTH 556 0
DWIDTH 7 0
BBX 6 9 0 -2
BITMAP
2BD0
3870
3030
6030
6060
A1D0
AF40
C000
C000
ENDCHAR
STARTCHAR q.ss06
ENCODING -1
SWIDTH 563 0
DWIDTH 7 0
BBX 7 9 0 -2
BITMAP
0BA4
2870
6030
A060
A060
71D0
2ED0
00C0
00C0
ENDCHAR
STARTCHAR e.ss07
ENCODING -1
SWIDTH 518 0
DWIDTH 6 0
BBX 6 7 0 0
BITMAP
0B80
28A0
7060
7FE0
6000
3440
1F80
ENDCHAR
STARTCHAR g.ss07
ENCODING -1
SWIDTH 549 0
DWIDTH 7 0
BBX 6 9 0 -2
BITMAP
1BB0
3470
6060
6060
A090
71D0
2EC0
0180
7E00
ENDCHAR
STARTCHAR one.pnum
ENCODING -1
SWIDTH 425 0
DWIDTH 5 0
BBX 4 9 1 0
BITMAP
19
AD
0C
0C
18
18
24
24
30
ENDCHAR
STARTCHAR ampersand.c2sc
ENCODING -1
SWIDTH 591 0
DWIDTH 7 0
BBX 6 7 0 0
BITMAP
0B80
29C0
1A40
1E10
6370
A1D0
7EA0
ENDCHAR
STARTCHAR Lslash.c2sc
ENCODING -1
SWIDTH 454 0
DWIDTH 5 0
BBX 5 7 0 0
BITMAP
2400
3000
3900
F400
6000
9000
BF80
ENDCHAR
STARTCHAR AE.c2sc
ENCODING -1
SWIDTH 759 0
DWIDTH 9 0
BBX 10 7 -1 0
BITMAP
003FF0
00A800
01A800
022FC0
0BF400
283000
703FC0
ENDCHAR
STARTCHAR Thorn.c2sc
ENCODING -1
SWIDTH 486 0
DWIDTH 6 0
BBX 6 7 0 0
BITMAP
2400
3F80
30D0
7090
61C0
BF40
9000
ENDCHAR
STARTCHAR Oslash.c2sc
ENCODING -1
SWIDTH 578 0
DWIDTH 7 0
BBX 7 8 0 -1
BITMAP
0BE4
2870
71A4
6224
6830
74A0
6F80
4000
ENDCHAR
STARTCHAR Hbar.c2sc
ENCODING -1
SWIDTH 597 0
DWIDTH 7 0
BBX 8 7 0 0
BITMAP
2418
7FFD
3024
7FF4
6030
9030
9060
ENDCHAR
STARTCHAR Eng.c2sc
ENCODING -1
SWIDTH 597 0
DWIDTH 7 0
BBX 7 9 0 -2
BITMAP
2818
3C18
3624
6324
61B0
90B0
9060
00A0
0380
ENDCHAR
STARTCHAR Dcroat.c2sc
ENCODING -1
SWIDTH 550 0
DWIDTH 7 0
BBX 7 7 -1 0
BITMAP
0BE0
0D28
0C0C
7F4C
1818
2474
2F90
ENDCHAR
STARTCHAR Eth.c2sc
ENCODING -1
SWIDTH 550 0
DWIDTH 7 0
BBX 7 7 -1 0
BITMAP
0BE0
0D28
0C0C
7F4C
1818
2474
2F90
ENDCHAR
STARTCHAR Tbar.c2sc
ENCODING -1
SWIDTH 507 0
DWIDTH 6 0
BBX 7 7 0 0
BITMAP
7FF4
0700
2FC0
0A00
0900
0D00
0C00
ENDCHAR
STARTCHAR Agrave.c2sc
ENCODING -1
SWIDTH 552 0
DWIDTH 7 0
BBX 7 10 -1 0
BITMAP
01C0
0090
0000
00D0
01A0
0330
0930
0FF4
2418
6018
ENDCHAR
STARTCHAR Aacute.c2sc
ENCODING -1
SWIDTH 552 0
DWIDTH 7 0
BBX 7 10 -1 0
BITMAP
0028
0060
0000
00D0
01A0
0330
0930
0FF4
2418
6018
ENDCHAR
STARTCHAR Acircumflex.c2sc
ENCODING -1
SWIDTH 552 0
DWIDTH 7 0
BBX 7 10 -1 0
BITMAP
00B4
0298
0000
00D0
01A0
0330
0930
0FF4
2418
6018
ENDCHAR
STARTCHAR Atilde.c2sc
ENCODING -1
SWIDTH 552 0
DWIDTH 7 0
BBX 7 10 -1 0
BITMAP
01D8
0228
0000
00D0
01A0
0330
0930
0FF4
2418
6018
ENDCHAR
STARTCHAR Adieresis.c2sc
ENCODING -1
SWIDTH 552 0
DWIDTH 7 0
BBX 7 9 -1 0
BITMAP
0258
0000
00D0
01A0
0330
0930
0FF4
2418
6018
ENDCHAR
STARTCHAR Aring.c2sc
ENCODING -1
SWIDTH 552 0
DWIDTH 7 0
BBX 7 11 -1 0
BITMAP
00B0
0094
00B0
0000
00D0
01A0
0330
0930
0FF4
2418
6018
ENDCHAR
STARTCHAR Aringacute.c2sc
ENCODING -1
SWIDTH 552 0
DWIDTH 7 0
BBX 7 11 -1 0
BITMAP
0018
0020
00A0
00A0
00D0
01A0
0330
0930
0FF4
2418
6018
ENDCHAR
STARTCHAR Ccedilla.c2sc
ENCODING -1
SWIDTH 548 0
DWIDTH 7 0
BBX 6 9 0 -2
BITMAP
0BD0
2830
7010
6000
6010
70A0
2F80
0900
1D00
ENDCHAR
STARTCHAR Egrave.c2sc
ENCODING -1
SWIDTH 477 0
DWIDTH 6 0
BBX 6 10 0 0
BITMAP
0600
0200
0000
2FE0
3400
3000
7FC0
6000
9000
BF80
ENDCHAR
STARTCHAR Eacute.c2sc
ENCODING -1
SWIDTH 477 0
DWIDTH 6 0
BBX 6 10 0 0
BITMAP
00D0
0240
0000
2FE0
3400
3000
7FC0
6000
9000
BF80
ENDCHAR
STARTCHAR Ecircumflex.c2sc
ENCODING -1
SWIDTH 477 0
DWIDTH 6 0
BBX 6 10 0 0
BITMAP
0680
0D90
0000
2FE0
3400
3000
7FC0
6000
9000
BF80
ENDCHAR
STARTCHAR Edieresis.c2sc
ENCODING -1
SWIDTH 477 0
DWIDTH 6 0
BBX 6 9 0 0
BITMAP
0860
0000
2FE0
3400
3000
7FC0
6000
9000
BF80
ENDCHAR
STARTCHAR Igrave.c2sc
ENCODING -1
SWIDTH 235 0
DWIDTH 3 0
BBX 3 10 0 0
BITMAP
30
14
00
24
24
30
30
60
60
90
ENDCHAR
STARTCHAR Iacute.c2sc
ENCODING -1
SWIDTH 235 0
DWIDTH 3 0
BBX 4 10 0 0
BITMAP
0A
18
00
24
24
30
30
60
60
90
ENDCHAR
STARTCHAR Icircumflex.c2sc
ENCODING -1
SWIDTH 235 0
DWIDTH 3 0
BBX 4 10 0 0
BITMAP
2D
A7
00
24
24
30
30
60
60
90
ENDCHAR
STARTCHAR Idieresis.c2sc
ENCODING -1
SWIDTH 235 0
DWIDTH 3 0
BBX 4 9 0 0
BITMAP
93
00
24
24
30
30
60
60
90
ENDCHAR
STARTCHAR Ntilde.c2sc
ENCODING -1
SWIDTH 597 0
DWIDTH 7 0
BBX 7 10 0 0
BITMAP
0754
09B0
0000
2818
3C18
3624
6324
62B0
90F0
90A0
ENDCHAR
STARTCHAR Ograve.c2sc
ENCODING -1
SWIDTH 578 0
DWIDTH 7 0
BBX 7 10 0 0
BITMAP
0300
0140
0000
0BD0
2870
7024
6024
6030
70A0
1F80
ENDCHAR
STARTCHAR Oacute.c2sc
ENCODING -1
SWIDTH 578 0
DWIDTH 7 0
BBX 7 10 0 0
BITMAP
00A0
0180
0000
0BD0
2870
7024
6024
6030
70A0
1F80
ENDCHAR
STARTCHAR Ocircumflex.c2sc
ENCODING -1
SWIDTH 578 0
DWIDTH 7 0
BBX 7 10 0 0
BITMAP
02D0
0A70
0000
0BD0
2870
7024
6024
6030
70A0
1F80
ENDCHAR
STARTCHAR Otilde.c2sc
ENCODING -1
SWIDTH 578 0
DWIDTH 7 0
BBX 7 10 0 0
BITMAP
0764
08A0
0000
0BD0
2870
7024
6024
6030
70A0
1F80
ENDCHAR
STARTCHAR Odieresis.c2sc
ENCODING -1
SWIDTH 578 0
DWIDTH 7 0
BBX 7 9 0 0
BITMAP
0630
0000
0BD0
2870
7024
6024
6030
70A0
1F80
ENDCHAR
STARTCHAR Ugrave.c2sc
ENCODING -1
SWIDTH 548 0
DWIDTH 7 0
BBX 7 10 0 0
BITMAP
0700
0240
0000
2424
3024
3030
6030
6060
6090
2F40
ENDCHAR
STARTCHAR Uacute.c2sc
ENCODING -1
SWIDTH 548 0
DWIDTH 7 0
BBX 7 10 0 0
BITMAP
00A0
0180
0000
2424
3024
3030
6030
6060
6090
2F40
ENDCHAR
STARTCHAR Ucircumflex.c2sc
ENCODING -1
SWIDTH 548 0
DWIDTH 7 0
BBX 7 10 0 0
BITMAP
02D0
0A60
0000
2424
3024
3030
6030
6060
6090
2F40
ENDCHAR
STARTCHAR Udieresis.c2sc
ENCODING -1
SWIDTH 548 0
DWIDTH 7 0
BBX 7 9 0 0
BITMAP
0960
0000
2424
3024
3030
6030
6060
6090
2F40
ENDCHAR
STARTCHAR Yacute.c2sc
ENCODING -1
SWIDTH 510 0
DWIDTH 6 0
BBX 6 10 1 0
BITMAP
0340
0900
0000
C0D0
9280
6600
3C00
2400
3400
3000
ENDCHAR
STARTCHAR Amacron.c2sc
ENCODING -1
SWIDTH 552 0
DWIDTH 7 0
BBX 7 9 -1 0
BITMAP
02FC
0000
00D0
01A0
0330
0930
0FF4
2418
6018
ENDCHAR
STARTCHAR Abreve.c2sc
ENCODING -1
SWIDTH 552 0
DWIDTH 7 0
BBX 7 10 -1 0
BITMAP
0198
00B4
0000
00D0
01A0
0330
0930
0FF4
2418
6018
ENDCHAR
STARTCHAR Aogonek.c2sc
ENCODING -1
SWIDTH 552 0
DWIDTH 7 0
BBX 7 9 -1 -2
BITMAP
00D0
01A0
0330
0930
0FF4
2418
6018
0060
0074
ENDCHAR
STARTCHAR Cacute.c2sc
ENCODING -1
SWIDTH 548 0
DWIDTH 7 0
BBX 6 10 0 0
BITMAP
00A0
0180
0000
0BD0
2830
7010
6000
6010
70A0
2F80
ENDCHAR
STARTCHAR Ccircumflex.c2sc
ENCODING -1
SWIDTH 548 0
DWIDTH 7 0
BBX 6 10 0 0
BITMAP
02D0
0A60
0000
0BD0
2830
7010
6000
6010
70A0
2F80
ENDCHAR
STARTCHAR Cdotaccent.c2sc
ENCODING -1
SWIDTH 548 0
DWIDTH 7 0
BBX 6 9 0 0
BITMAP
0180
0000
0BD0
2830
7010
6000
6010
70A0
2F80
ENDCHAR
STARTCHAR Ccaron.c2sc
ENCODING -1
SWIDTH 548 0
DWIDTH 7 0
BBX 6 10 0 0
BITMAP
0660
0280
0000
0BD0
2830
7010
6000
6010
70A0
2F80
ENDCHAR
STARTCHAR Dcaron.c2sc
ENCODING -1
SWIDTH 550 0
DWIDTH 7 0
BBX 6 10 0 0
BITMAP
0990
0340
0000
2F80
34A0
3030
6030
6060
91D0
BE40
ENDCHAR
STARTCHAR Emacron.c2sc
ENCODING -1
SWIDTH 477 0
DWIDTH 6 0
BBX 6 9 0 0
BITMAP
0FE0
0000
2FE0
3400
3000
7FC0
6000
9000
BF80
ENDCHAR
STARTCHAR Ebreve.c2sc
ENCODING -1
SWIDTH 477 0
DWIDTH 6 0
BBX 6 10 0 0
BITMAP
0960
0780
0000
2FE0
3400
3000
7FC0
6000
9000
BF80
ENDCHAR
STARTCHAR Edotaccent.c2sc
ENCODING -1
SWIDTH 477 0
DWIDTH 6 0
BBX 6 9 0 0
BITMAP
0240
0000
2FE0
3400
3000
7FC0
6000
9000
BF80
ENDCHAR
STARTCHAR Eogonek.c2sc
ENCODING -1
SWIDTH 477 0
DWIDTH 6 0
BBX 6 9 0 -2
BITMAP
2FE0
3400
3000
7FC0
6000
9000
BF80
0600
0700
ENDCHAR
STARTCHAR Ecaron.c2sc
ENCODING -1
SWIDTH 477 0
DWIDTH 6 0
BBX 6 10 0 0
BITMAP
0590
0280
0000
2FE0
3400
3000
7FC0
6000
9000
BF80
ENDCHAR
STARTCHAR Gcircumflex.c2sc
ENCODING -1
SWIDTH 571 0
DWIDTH 7 0
BBX 7 10 0 0
BITMAP
02D0
0A60
0000
0BD0
2834
7000
62F0
6030
7460
1F90
ENDCHAR
STARTCHAR Gbreve.c2sc
ENCODING -1
SWIDTH 571 0
DWIDTH 7 0
BBX 7 10 0 0
BITMAP
0660
02D0
0000
0BD0
2834
7000
62F0
6030
7460
1F90
ENDCHAR
STARTCHAR Gdotaccent.c2sc
ENCODING -1
SWIDTH 571 0
DWIDTH 7 0
BBX 7 9 0 0
BITMAP
0180
0000
0BD0
2834
7000
62F0
6030
7460
1F90
ENDCHAR
STARTCHAR uni0122.c2sc
ENCODING -1
SWIDTH 571 0
DWIDTH 7 0
BBX 7 10 0 -3
BITMAP
0BD0
2834
7000
62F0
6030
7460
1F90
0000
0C00
1400
ENDCHAR
STARTCHAR Hcircumflex.c2sc
ENCODING -1
SWIDTH 597 0
DWIDTH 7 0
BBX 7 10 0 0
BITMAP
02D0
0A70
0000
2418
3018
3024
7FF4
6030
9030
9060
ENDCHAR
STARTCHAR Itilde.c2sc
ENCODING -1
SWIDTH 235 0
DWIDTH 3 0
BBX 5 10 0 0
BITMAP
7640
8A00
0000
2400
2400
3000
3000
6000
6000
9000
ENDCHAR
STARTCHAR Imacron.c2sc
ENCODING -1
SWIDTH 235 0
DWIDTH 3 0
BBX 4 9 0 0
BITMAP
BF
00
24
24
30
30
60
60
90
ENDCHAR
STARTCHAR Ibreve.c2sc
ENCODING -1
SWIDTH 235 0
DWIDTH 3 0
BBX 4 10 0 0
BITMAP
63
2D
00
24
24
30
30
60
60
90
ENDCHAR
STARTCHAR Iogonek.c2sc
ENCODING -1
SWIDTH 235 0
DWIDTH 3 0
BBX 4 9 -1 -2
BITMAP
09
09
0C
0C
18
18
24
50
B0
ENDCHAR
STARTCHAR Idotaccent.c2sc
ENCODING -1
SWIDTH 235 0
DWIDTH 3 0
BBX 3 9 0 0
BITMAP
18
00
24
24
30
30
60
60
90
ENDCHAR
STARTCHAR Jcircumflex.c2sc
ENCODING -1
SWIDTH 466 0
DWIDTH 6 0
BBX 7 10 0 0
BITMAP
01A0
0258
0000
0090
00C0
00C0
0180
0180
D240
7E00
ENDCHAR
STARTCHAR uni0136.c2sc
ENCODING -1
SWIDTH 529 0
DWIDTH 6 0
BBX 7 10 0 -3
BITMAP
2474
31D0
3740
7E00
7740
9180
9090
0000
1800
2400
ENDCHAR
STARTCHAR Lacute.c2sc
ENCODING -1
SWIDTH 454 0
DWIDTH 5 0
BBX 5 10 0 0
BITMAP
0A00
1800
0000
2400
3000
3000
6000
6000
9000
BF80
ENDCHAR
STARTCHAR uni013B.c2sc
ENCODING -1
SWIDTH 454 0
DWIDTH 5 0
BBX 5 10 0 -3
BITMAP
2400
3000
3000
6000
6000
9000
BF80
0000
1800
2400
ENDCHAR
STARTCHAR Lcaron.c2sc
ENCODING -1
SWIDTH 454 0
DWIDTH 5 0
BBX 5 7 0 0
BITMAP
2580
3600
3000
6000
6000
9000
BF80
ENDCHAR
STARTCHAR Ldot.c2sc
ENCODING -1
SWIDTH 454 0
DWIDTH 5 0
BBX 5 7 0 0
BITMAP
2400
3000
3000
6300
6000
9000
BF80
ENDCHAR
STARTCHAR Nacute.c2sc
ENCODING -1
SWIDTH 597 0
DWIDTH 7 0
BBX 7 10 0 0
BITMAP
0070
0080
0000
2818
3C18
3624
6324
62B0
90F0
90A0
ENDCHAR
STARTCHAR uni0145.c2sc
ENCODING -1
SWIDTH 597 0
DWIDTH 7 0
BBX 7 10 0 -3
BITMAP
2818
3C18
3624
6324
62B0
90F0
90A0
0000
0D00
1800
ENDCHAR
STARTCHAR Ncaron.c2sc
ENCODING -1
SWIDTH 597 0
DWIDTH 7 0
BBX 7 10 0 0
BITMAP
0260
01C0
0000
2818
3C18
3624
6324
62B0
90F0
90A0
ENDCHAR
STARTCHAR Omacron.c2sc
ENCODING -1
SWIDTH 578 0
DWIDTH 7 0
BBX 7 9 0 0
BITMAP
0BF4
0000
0BD0
2870
7024
6024
6030
70A0
1F80
ENDCHAR
STARTCHAR Obreve.c2sc
ENCODING -1
SWIDTH 578 0
DWIDTH 7 0
BBX 7 10 0 0
BITMAP
0630
02D0
0000
0BD0
2870
7024
6024
6030
70A0
1F80
ENDCHAR
STARTCHAR Ohungarumlaut.c2sc
ENCODING -1
SWIDTH 578 0
DWIDTH 7 0
BBX 7 10 0 0
BITMAP
01A8
0260
0000
0BD0
2870
7024
6024
6030
70A0
1F80
ENDCHAR
STARTCHAR Racute.c2sc
ENCODING -1
SWIDTH 524 0
DWIDTH 6 0
BBX 6 10 0 0
BITMAP
00D0
0240
0000
2FD0
3070
3060
7F80
6280
91C0
90D0
ENDCHAR
STARTCHAR uni0156.c2sc
ENCODING -1
SWIDTH 524 0
DWIDTH 6 0
BBX 6 10 0 -3
BITMAP
2FD0
3070
3060
7F80
6280
91C0
90D0
0000
1800
2000
ENDCHAR
STARTCHAR Rcaron.c2sc
ENCODING -1
SWIDTH 524 0
DWIDTH 6 0
BBX 6 10 0 0
BITMAP
0990
0340
0000
2FD0
3070
3060
7F80
6280
91C0
90D0
ENDCHAR
STARTCHAR Sacute.c2sc
ENCODING -1
SWIDTH 504 0
DWIDTH 6 0
BBX 6 10 0 0
BITMAP
00D0
0180
0000
1B80
3460
3410
1B40
40D0
A1D0
2F40
ENDCHAR
STARTCHAR Scircumflex.c2sc
ENCODING -1
SWIDTH 504 0
DWIDTH 6 0
BBX 6 10 0 0
BITMAP
0680
0DA0
0000
1B80
3460
3410
1B40
40D0
A1D0
2F40
ENDCHAR
STARTCHAR Scedilla.c2sc
ENCODING -1
SWIDTH 504 0
DWIDTH 6 0
BBX 6 9 0 -2
BITMAP
1B80
3460
3410
1B40
40D0
A1D0
2F40
0900
1D00
ENDCHAR
STARTCHAR Scaron.c2sc
ENCODING -1
SWIDTH 504 0
DWIDTH 6 0
BBX 6 10 0 0
BITMAP
0590
0280
0000
1B80
3460
3410
1B40
40D0
A1D0
2F40
ENDCHAR
STARTCHAR uni021A.c2sc
ENCODING -1
SWIDTH 507 0
DWIDTH 6 0
BBX 7 10 0 -3
BITMAP
7FF4
0700
0600
0A00
0900
0D00
0C00
0000
1800
2400
ENDCHAR
STARTCHAR Tcaron.c2sc
ENCODING -1
SWIDTH 507 0
DWIDTH 6 0
BBX 7 10 0 0
BITMAP
0990
0280
0000
7FF4
0700
0600
0A00
0900
0D00
0C00
ENDCHAR
STARTCHAR uni0162.c2sc
ENCODING -1
SWIDTH 507 0
DWIDTH 6 0
BBX 7 9 0 -2
BITMAP
7FF4
0700
0600
0A00
0900
0D00
0C00
0900
1D00
ENDCHAR
STARTCHAR Utilde.c2sc
ENCODING -1
SWIDTH 548 0
DWIDTH 7 0
BBX 7 10 0 0
BITMAP
0B60
08A0
0000
2424
3024
3030
6030
6060
6090
2F40
ENDCHAR
STARTCHAR Umacron.c2sc
ENCODING -1
SWIDTH 548 0
DWIDTH 7 0
BBX 7 9 0 0
BITMAP
0BF0
0000
2424
3024
3030
6030
6060
6090
2F40
ENDCHAR
STARTCHAR Ubreve.c2sc
ENCODING -1
SWIDTH 548 0
DWIDTH 7 0
BBX 7 10 0 0
BITMAP
0660
02D0
0000
2424
3024
3030
6030
6060
6090
2F40
ENDCHAR
STARTCHAR Uring.c2sc
ENCODING -1
SWIDTH 548 0
DWIDTH 7 0
BBX 7 11 0 0
BITMAP
02C0
0250
02C0
0000
2424
3024
3030
6030
6060
6090
2F40
ENDCHAR
STARTCHAR Uhungarumlaut.c2sc
ENCODING -1
SWIDTH 548 0
DWIDTH 7 0
BBX 7 10 0 0
BITMAP
02A4
06A0
0000
2424
3024
3030
6030
6060
6090
2F40
ENDCHAR
STARTCHAR Uogonek.c2sc
ENCODING -1
SWIDTH 548 0
DWIDTH 7 0
BBX 7 9 0 -2
BITMAP
2424
3024
3030
6030
6060
6090
2F80
0900
0A00
ENDCHAR
STARTCHAR Wcircumflex.c2sc
ENCODING -1
SWIDTH 742 0
DWIDTH 9 0
BBX 8 10 1 0
BITMAP
02D0
0A70
0000
C283
C386
C989
C898
94A4
B0B0
A0A0
ENDCHAR
STARTCHAR Ycircumflex.c2sc
ENCODING -1
SWIDTH 510 0
DWIDTH 6 0
BBX 6 10 1 0
BITMAP
1A00
3640
0000
C0D0
9280
6600
3C00
2400
3400
3000
ENDCHAR
STARTCHAR Ydieresis.c2sc
ENCODING -1
SWIDTH 510 0
DWIDTH 6 0
BBX 6 9 1 0
BITMAP
3180
0000
C0D0
9280
6600
3C00
2400
3400
3000
ENDCHAR
STARTCHAR Zacute.c2sc
ENCODING -1
SWIDTH 506 0
DWIDTH 6 0
BBX 6 10 0 0
BITMAP
00D0
0240
0000
3FF0
0090
0240
0A00
2800
A000
FFC0
ENDCHAR
STARTCHAR Zdotaccent.c2sc
ENCODING -1
SWIDTH 506 0
DWIDTH 6 0
BBX 6 9 0 0
BITMAP
0240
0000
3FF0
0090
0240
0A00
2800
A000
FFC0
ENDCHAR
STARTCHAR Zcaron.c2sc
ENCODING -1
SWIDTH 506 0
DWIDTH 6 0
BBX 6 10 0 0
BITMAP
0990
0280
0000
3FF0
0090
0240
0A00
2800
A000
FFC0
ENDCHAR
STARTCHAR two.pnum
ENCODING -1
SWIDTH 549 0
DWIDTH 7 0
BBX 6 9 0 0
BITMAP
0BD0
2870
2030
0060
01C0
0740
1D00
7400
BFE0
ENDCHAR
STARTCHAR three.pnum
ENCODING -1
SWIDTH 549 0
DWIDTH 7 0
BBX 6 9 0 0
BITMAP
0BD0
2870
1030
00A0
0BC0
0090
4060
61D0
2F40
ENDCHAR
STARTCHAR four.pnum
ENCODING -1
SWIDTH 549 0
DWIDTH 7 0
BBX 6 9 0 0
BITMAP
00B0
01E0
03A0
0990
2890
60C0
FFF0
0180
0180
ENDCHAR
STARTCHAR five.pnum
ENCODING -1
SWIDTH 549 0
DWIDTH 7 0
BBX 6 9 1 0
BITMAP
2FE0
3000
6000
BF40
5280
00C0
4180
C240
7E00
ENDCHAR
STARTCHAR six.pnum
ENCODING -1
SWIDTH 559 0
DWIDTH 7 0
BBX 5 9 1 0
BITMAP
0780
2900
6000
AF40
E1C0
C0C0
C1C0
D240
7E00
ENDCHAR
STARTCHAR eight.pnum
ENCODING -1
SWIDTH 569 0
DWIDTH 7 0
BBX 7 9 0 0
BITMAP
07E0
1D34
1824
1870
0FD0
34A0
6060
70A0
2F80
ENDCHAR
STARTCHAR nine.pnum
ENCODING -1
SWIDTH 559 0
DWIDTH 7 0
BBX 5 9 1 0
BITMAP
2F40
A180
C0C0
C0C0
D2C0
7E80
0240
1A00
B400
ENDCHAR
STARTCHAR zero.pnum
ENCODING -1
SWIDTH 569 0
DWIDTH 7 0
BBX 7 9 0 0
BITMAP
07D0
1D30
2424
3024
3030
7030
6060
3490
1F40
ENDCHAR
STARTCHAR G_acutecomb.ccmp
ENCODING -1
SWIDTH 665 0
DWIDTH 8 0
BBX 8 12 0 0
BITMAP
0024
0060
0000
06F4
0D1D
2805
3000
30FC
700C
301C
2828
0BE0
ENDCHAR
STARTCHAR g_acutecomb.ccmp
ENCODING -1
SWIDTH 549 0
DWIDTH 7 0
BBX 6 12 0 -2
BITMAP
0090
0180
0000
1BB0
3470
6060
6060
A090
71D0
2EC0
4180
7E00
ENDCHAR
STARTCHAR N_gravecomb.ccmp
ENCODING -1
SWIDTH 696 0
DWIDTH 8 0
BBX 8 12 0 0
BITMAP
00C0
0050
0000
1C03
1E03
2B06
2646
35C9
30D9
706C
603C
A028
ENDCHAR
STARTCHAR n_gravecomb.ccmp
ENCODING -1
SWIDTH 540 0
DWIDTH 6 0
BBX 6 10 0 0
BITMAP
0700
0240
0000
2BD0
38A0
3060
6060
6090
9090
90C0
ENDCHAR
STARTCHAR A_uni030F.ccmp
ENCODING -1
SWIDTH 637 0
DWIDTH 8 0
BBX 8 12 -1 0
BITMAP
02A4
0098
0000
0034
00B4
00D8
0298
030C
0A0C
1FFD
280A
7006
ENDCHAR
STARTCHAR a_uni030F.ccmp
ENCODING -1
SWIDTH 532 0
DWIDTH 6 0
BBX 6 10 0 0
BITMAP
1E80
0980
0000
0B80
24A0
0060
2FD0
6090
A1C0
7EC0
ENDCHAR
STARTCHAR E_uni030F.ccmp
ENCODING -1
SWIDTH 556 0
DWIDTH 7 0
BBX 7 12 0 0
BITMAP
0ED0
0690
0000
1FFC
1800
2800
2400
3FE0
3000
7000
6000
BFE0
ENDCHAR
STARTCHAR e_uni030F.ccmp
ENCODING -1
SWIDTH 518 0
DWIDTH 6 0
BBX 6 10 0 0
BITMAP
2A80
0980
0000
0B80
28A0
7060
7FE0
6000
7080
1F80
ENDCHAR
STARTCHAR I_uni030F.ccmp
ENCODING -1
SWIDTH 268 0
DWIDTH 3 0
BBX 4 12 0 0
BITMAP
AD
26
00
1C
18
28
24
34
30
70
60
60
ENDCHAR
STARTCHAR dotlessi_uni030F.ccmp
ENCODING -1
SWIDTH 244 0
DWIDTH 3 0
BBX 4 10 -1 0
BITMAP
7A
2A
00
09
0D
0C
1C
18
18
24
ENDCHAR
STARTCHAR O_uni030F.ccmp
ENCODING -1
SWIDTH 671 0
DWIDTH 8 0
BBX 8 12 0 0
BITMAP
07A0
0260
0000
06F4
0D1C
2809
300A
7009
700D
301C
3474
1B90
ENDCHAR
STARTCHAR o_uni030F.ccmp
ENCODING -1
SWIDTH 558 0
DWIDTH 7 0
BBX 6 10 0 0
BITMAP
2A80
0980
0000
0B90
2860
6030
6030
6070
7090
1F40
ENDCHAR
STARTCHAR R_uni030F.ccmp
ENCODING -1
SWIDTH 602 0
DWIDTH 7 0
BBX 7 12 0 0
BITMAP
0EC0
0690
0000
1FE4
181C
240C
2428
3FE0
30D0
60A0
6070
A034
ENDCHAR
STARTCHAR r_uni030F.ccmp
ENCODING -1
SWIDTH 333 0
DWIDTH 4 0
BBX 5 10 0 0
BITMAP
7A00
2600
0000
2B40
3800
3000
6000
6000
9000
9000
ENDCHAR
STARTCHAR U_uni030F.ccmp
ENCODING -1
SWIDTH 633 0
DWIDTH 8 0
BBX 8 12 0 0
BITMAP
0A90
0260
0000
180A
2809
240D
340C
300C
7018
6028
3470
1F90
ENDCHAR
STARTCHAR u_uni030F.ccmp
ENCODING -1
SWIDTH 539 0
DWIDTH 6 0
BBX 6 10 0 0
BITMAP
2E80
0980
0000
2430
3030
3060
7060
6090
71D0
2EC0
ENDCHAR
STARTCHAR Upsilon1_acutecomb.ccmp
ENCODING -1
SWIDTH 569 0
DWIDTH 7 0
BBX 9 9 -1 0
BITMAP
9A0280
834A00
024C00
01A400
00E000
00D000
00C000
01C000
018000
ENDCHAR
STARTCHAR B_dotbelowcomb.ccmp
ENCODING -1
SWIDTH 608 0
DWIDTH 7 0
BBX 7 11 0 -2
BITMAP
1FE0
1828
2818
2424
3FE0
3034
7024
6070
BF90
0000
0C00
ENDCHAR
STARTCHAR b_dotbelowcomb.ccmp
ENCODING -1
SWIDTH 549 0
DWIDTH 7 0
BBX 6 11 0 -2
BITMAP
1800
2400
2BD0
3860
3030
6070
6060
B0D0
AF40
0000
0C00
ENDCHAR
STARTCHAR D_dotbelowcomb.ccmp
ENCODING -1
SWIDTH 641 0
DWIDTH 8 0
BBX 7 11 0 -2
BITMAP
1FE0
1828
280C
240C
340C
301C
7024
60A0
BF80
0000
0C00
ENDCHAR
STARTCHAR d_dotbelowcomb.ccmp
ENCODING -1
SWIDTH 551 0
DWIDTH 7 0
BBX 7 11 0 -2
BITMAP
0018
0024
1BB4
3470
6070
6060
A0A0
61D0
2ED0
0000
0C00
ENDCHAR
STARTCHAR D_uniF6C3.ccmp
ENCODING -1
SWIDTH 641 0
DWIDTH 8 0
BBX 7 12 0 -3
BITMAP
1FE0
1828
280C
240C
340C
301C
7024
60A0
BF80
0000
0C00
1800
ENDCHAR
STARTCHAR d_uniF6C3.ccmp
ENCODING -1
SWIDTH 551 0
DWIDTH 7 0
BBX 7 12 0 -3
BITMAP
0018
0024
1BB4
3470
6070
6060
A0A0
61D0
2ED0
0000
0C00
1800
ENDCHAR
STARTCHAR H_dotbelowcomb.ccmp
ENCODING -1
SWIDTH 696 0
DWIDTH 8 0
BBX 8 11 0 -2
BITMAP
1C03
1803
2806
2406
3FFD
3009
700C
600C
A018
0000
0600
ENDCHAR
STARTCHAR h_dotbelowcomb.ccmp
ENCODING -1
SWIDTH 539 0
DWIDTH 6 0
BBX 6 11 0 -2
BITMAP
1800
2400
2BD0
38A0
3060
6060
6090
9090
90C0
0000
0C00
ENDCHAR
STARTCHAR K_acutecomb.ccmp
ENCODING -1
SWIDTH 612 0
DWIDTH 7 0
BBX 8 12 0 0
BITMAP
0070
0090
0000
1C0D
1824
28A0
2680
3B40
3580
7090
6070
A024
ENDCHAR
STARTCHAR k_acutecomb.ccmp
ENCODING -1
SWIDTH 496 0
DWIDTH 6 0
BBX 6 12 0 0
BITMAP
00A0
0180
0000
1800
2800
24A0
3680
3A00
7900
6300
9240
90C0
ENDCHAR
STARTCHAR K_dotbelowcomb.ccmp
ENCODING -1
SWIDTH 612 0
DWIDTH 7 0
BBX 8 10 0 -1
BITMAP
1C0D
1824
28A0
2680
3B40
3580
7090
6070
A024
0900
ENDCHAR
STARTCHAR k_dotbelowcomb.ccmp
ENCODING -1
SWIDTH 496 0
DWIDTH 6 0
BBX 6 11 0 -2
BITMAP
1800
2800
24A0
3680
3A00
7900
6300
9240
90C0
0000
1800
ENDCHAR
STARTCHAR L_dotbelowcomb.ccmp
ENCODING -1
SWIDTH 526 0
DWIDTH 6 0
BBX 6 11 0 -2
BITMAP
1C00
1800
2800
2400
3400
3000
7000
6000
BFD0
0000
0800
ENDCHAR
STARTCHAR l_dotbelowcomb.ccmp
ENCODING -1
SWIDTH 240 0
DWIDTH 3 0
BBX 3 11 0 -2
BITMAP
18
18
24
24
30
30
60
60
90
00
C0
ENDCHAR
STARTCHAR M_dotbelowcomb.ccmp
ENCODING -1
SWIDTH 851 0
DWIDTH 10 0
BBX 10 11 0 -2
BITMAP
1D00B0
1E01E0
2A02A0
2707A0
330990
3258D0
71A4C0
61E1C0
A0D180
000000
018000
ENDCHAR
STARTCHAR m_dotbelowcomb.ccmp
ENCODING -1
SWIDTH 854 0
DWIDTH 10 0
BBX 10 9 0 -2
BITMAP
2BDB80
34B490
306090
60A090
6090D0
9090C0
90C1C0
000000
018000
ENDCHAR
STARTCHAR N_dotbelowcomb.ccmp
ENCODING -1
SWIDTH 696 0
DWIDTH 8 0
BBX 8 11 0 -2
BITMAP
1C03
1E03
2B06
2646
35C9
30D9
706C
603C
A028
0000
0600
ENDCHAR
STARTCHAR n_dotbelowcomb.ccmp
ENCODING -1
SWIDTH 540 0
DWIDTH 6 0
BBX 6 9 0 -2
BITMAP
2BD0
38A0
3060
6060
6090
9090
90C0
0000
1800
ENDCHAR
STARTCHAR O_tildecomb_acutecomb.ccmp
ENCODING -1
SWIDTH 671 0
DWIDTH 8 0
BBX 8 15 0 0
BITMAP
0024
0020
0000
01D8
0164
0000
06F4
0D1C
2809
300A
7009
700D
301C
3474
1B90
ENDCHAR
STARTCHAR P_acutecomb.ccmp
ENCODING -1
SWIDTH 616 0
DWIDTH 7 0
BBX 8 12 0 0
BITMAP
0070
0090
0000
1FF4
181C
2409
241C
3FE4
3000
6000
6000
A000
ENDCHAR
STARTCHAR p_acutecomb.ccmp
ENCODING -1
SWIDTH 549 0
DWIDTH 7 0
BBX 6 12 0 -2
BITMAP
0060
0080
0000
2BD0
38A0
3030
6030
6060
A1D0
AF40
C000
C000
ENDCHAR
STARTCHAR R_dotbelowcomb.ccmp
ENCODING -1
SWIDTH 602 0
DWIDTH 7 0
BBX 7 11 0 -2
BITMAP
1FE4
181C
240C
2428
3FE0
30D0
60A0
6070
A034
0000
0C00
ENDCHAR
STARTCHAR r_dotbelowcomb.ccmp
ENCODING -1
SWIDTH 333 0
DWIDTH 4 0
BBX 5 9 0 -2
BITMAP
2B40
3800
3000
6000
6000
9000
9000
0000
C000
ENDCHAR
STARTCHAR S_dotbelowcomb.ccmp
ENCODING -1
SWIDTH 580 0
DWIDTH 7 0
BBX 7 11 0 -2
BITMAP
0BE0
1828
2408
2800
0790
0070
5034
6070
2F90
0000
0900
ENDCHAR
STARTCHAR s_dotbelowcomb.ccmp
ENCODING -1
SWIDTH 504 0
DWIDTH 6 0
BBX 6 9 0 -2
BITMAP
1B80
3490
3400
1B40
00C0
A1C0
2F40
0000
0800
ENDCHAR
STARTCHAR T_dotbelowcomb.ccmp
ENCODING -1
SWIDTH 583 0
DWIDTH 7 0
BBX 7 11 1 -2
BITMAP
FFF4
0600
0900
0900
0C00
0C00
1C00
1800
2800
0000
3000
ENDCHAR
STARTCHAR t_dotbelowcomb.ccmp
ENCODING -1
SWIDTH 321 0
DWIDTH 4 0
BBX 4 11 0 -2
BITMAP
0C
18
BE
24
24
34
30
30
2C
00
24
ENDCHAR
STARTCHAR U_tildecomb_acutecomb.ccmp
ENCODING -1
SWIDTH 633 0
DWIDTH 8 0
BBX 8 15 0 0
BITMAP
0024
0060
0000
0194
0270
0000
180A
2809
240D
340C
300C
7018
6028
3470
1F90
ENDCHAR
STARTCHAR V_tildecomb.ccmp
ENCODING -1
SWIDTH 622 0
DWIDTH 7 0
BBX 7 12 1 0
BITMAP
0A20
19D0
0000
D018
9034
A060
6090
71C0
3240
2700
2D00
1C00
ENDCHAR
STARTCHAR v_tildecomb.ccmp
ENCODING -1
SWIDTH 474 0
DWIDTH 6 0
BBX 6 10 0 0
BITMAP
0E60
15D0
0000
6060
30D0
3180
2640
2A00
1D00
1C00
ENDCHAR
STARTCHAR V_dotbelowcomb.ccmp
ENCODING -1
SWIDTH 622 0
DWIDTH 7 0
BBX 7 11 1 -2
BITMAP
D018
9034
A060
6090
71C0
3240
2700
2D00
1C00
0000
2400
ENDCHAR
STARTCHAR v_dotbelowcomb.ccmp
ENCODING -1
SWIDTH 474 0
DWIDTH 6 0
BBX 6 9 0 -2
BITMAP
6060
30D0
3180
2640
2A00
1D00
1C00
0000
1800
ENDCHAR
STARTCHAR W_dotbelowcomb.ccmp
ENCODING -1
SWIDTH 865 0
DWIDTH 10 0
BBX 10 11 1 -2
BITMAP
90A060
90E090
91A0C0
937180
A63340
693700
6C2900
742C00
702800
000000
030000
ENDCHAR
STARTCHAR w_dotbelowcomb.ccmp
ENCODING -1
SWIDTH 733 0
DWIDTH 9 0
BBX 9 9 0 -2
BITMAP
609180
31D240
32A300
326600
292800
2C3800
282400
000000
030000
ENDCHAR
STARTCHAR Z_dotbelowcomb.ccmp
ENCODING -1
SWIDTH 585 0
DWIDTH 7 0
BBX 7 11 0 -2
BITMAP
2FFC
0028
00A0
01C0
0740
0D00
2800
A000
FFF0
0000
0C00
ENDCHAR
STARTCHAR z_dotbelowcomb.ccmp
ENCODING -1
SWIDTH 485 0
DWIDTH 6 0
BBX 6 9 0 -2
BITMAP
3FE0
01C0
0340
0900
2800
A000
FFC0
0000
1800
ENDCHAR
STARTCHAR Alphatonos.c2sc
ENCODING -1
SWIDTH 552 0
DWIDTH 7 0
BBX 7 7 -1 0
BITMAP
06D0
0AA0
0330
0930
0FF4
2418
6018
ENDCHAR
STARTCHAR Epsilontonos.c2sc
ENCODING -1
SWIDTH 506 0
DWIDTH 6 0
BBX 8 7 -1 0
BITMAP
37FD
5A00
0900
0FF4
0C00
1C00
1FF4
ENDCHAR
STARTCHAR Etatonos.c2sc
ENCODING -1
SWIDTH 626 0
DWIDTH 8 0
BBX 9 7 -1 0
BITMAP
360340
6A0300
090700
0FFE00
0C0A00
1C0900
180C00
ENDCHAR
STARTCHAR Iotatonos.c2sc
ENCODING -1
SWIDTH 265 0
DWIDTH 3 0
BBX 4 7 -1 0
BITMAP
36
66
09
09
0C
0C
18
ENDCHAR
STARTCHAR Omicrontonos.c2sc
ENCODING -1
SWIDTH 583 0
DWIDTH 7 0
BBX 7 7 0 0
BITMAP
6BD0
A834
3024
6024
6030
70A0
1F80
ENDCHAR
STARTCHAR Upsilontonos.c2sc
ENCODING -1
SWIDTH 539 0
DWIDTH 6 0
BBX 8 7 -1 0
BITMAP
990A
861C
0334
02D0
0180
0280
0240
ENDCHAR
STARTCHAR Omegatonos.c2sc
ENCODING -1
SWIDTH 609 0
DWIDTH 7 0
BBX 7 7 0 0
BITMAP
6BE0
A824
3018
6028
6024
34A0
BAF0
ENDCHAR
STARTCHAR Alpha.c2sc
ENCODING -1
SWIDTH 552 0
DWIDTH 7 0
BBX 7 7 -1 0
BITMAP
00D0
01A0
0330
0930
0FF4
2418
6018
ENDCHAR
STARTCHAR Beta.c2sc
ENCODING -1
SWIDTH 527 0
DWIDTH 6 0
BBX 6 7 0 0
BITMAP
2F90
3460
30A0
7FC0
6090
90D0
BF80
ENDCHAR
STARTCHAR Epsilon.c2sc
ENCODING -1
SWIDTH 477 0
DWIDTH 6 0
BBX 6 7 0 0
BITMAP
2FE0
3400
3000
7FC0
6000
9000
BF80
ENDCHAR
STARTCHAR Zeta.c2sc
ENCODING -1
SWIDTH 506 0
DWIDTH 6 0
BBX 6 7 0 0
BITMAP
3FF0
0090
0240
0A00
2800
A000
FFC0
ENDCHAR
STARTCHAR Eta.c2sc
ENCODING -1
SWIDTH 597 0
DWIDTH 7 0
BBX 7 7 0 0
BITMAP
2418
3018
3024
7FF4
6030
9030
9060
ENDCHAR
STARTCHAR Iota.c2sc
ENCODING -1
SWIDTH 235 0
DWIDTH 3 0
BBX 3 7 0 0
BITMAP
24
24
30
30
60
60
90
ENDCHAR
STARTCHAR Kappa.c2sc
ENCODING -1
SWIDTH 529 0
DWIDTH 6 0
BBX 7 7 0 0
BITMAP
2474
31D0
3740
7E00
7740
9180
9090
ENDCHAR
STARTCHAR Mu.c2sc
ENCODING -1
SWIDTH 733 0
DWIDTH 9 0
BBX 9 7 0 0
BITMAP
280740
3C0B40
391B00
663700
666600
93C600
924900
ENDCHAR
STARTCHAR Nu.c2sc
ENCODING -1
SWIDTH 597 0
DWIDTH 7 0
BBX 7 7 0 0
BITMAP
2818
3C18
3624
6324
62B0
90F0
90A0
ENDCHAR
STARTCHAR Omicron.c2sc
ENCODING -1
SWIDTH 578 0
DWIDTH 7 0
BBX 7 7 0 0
BITMAP
0BD0
2870
7024
6024
6030
70A0
1F80
ENDCHAR
STARTCHAR Rho.c2sc
ENCODING -1
SWIDTH 533 0
DWIDTH 6 0
BBX 6 7 0 0
BITMAP
2FD0
3030
3070
7F90
6000
9000
9000
ENDCHAR
STARTCHAR Tau.c2sc
ENCODING -1
SWIDTH 507 0
DWIDTH 6 0
BBX 7 7 0 0
BITMAP
7FF4
0700
0600
0A00
0900
0D00
0C00
ENDCHAR
STARTCHAR Upsilon.c2sc
ENCODING -1
SWIDTH 510 0
DWIDTH 6 0
BBX 6 7 1 0
BITMAP
C0D0
9280
6600
3C00
2400
3400
3000
ENDCHAR
STARTCHAR Chi.c2sc
ENCODING -1
SWIDTH 529 0
DWIDTH 6 0
BBX 7 7 0 0
BITMAP
3434
18D0
0E80
0B00
1F40
7180
D0D0
ENDCHAR
STARTCHAR Iotadieresis.c2sc
ENCODING -1
SWIDTH 235 0
DWIDTH 3 0
BBX 4 9 0 0
BITMAP
93
00
24
24
30
30
60
60
90
ENDCHAR
STARTCHAR Upsilondieresis.c2sc
ENCODING -1
SWIDTH 510 0
DWIDTH 6 0
BBX 6 9 1 0
BITMAP
3180
0000
C0D0
9280
6600
3C00
2400
3400
3000
ENDCHAR
STARTCHAR uni0401.c2sc
ENCODING -1
SWIDTH 477 0
DWIDTH 6 0
BBX 6 9 0 0
BITMAP
0860
0000
2FE0
3400
3000
7FC0
6000
9000
BF80
ENDCHAR
STARTCHAR uni0403.c2sc
ENCODING -1
SWIDTH 451 0
DWIDTH 5 0
BBX 6 10 0 0
BITMAP
00D0
0240
0000
2FE0
3400
3000
7000
6000
9000
9000
ENDCHAR
STARTCHAR uni0405.c2sc
ENCODING -1
SWIDTH 504 0
DWIDTH 6 0
BBX 6 7 0 0
BITMAP
1B80
3460
3410
1B40
40D0
A1D0
2F40
ENDCHAR
STARTCHAR uni0406.c2sc
ENCODING -1
SWIDTH 235 0
DWIDTH 3 0
BBX 3 7 0 0
BITMAP
24
24
30
30
60
60
90
ENDCHAR
STARTCHAR uni0407.c2sc
ENCODING -1
SWIDTH 235 0
DWIDTH 3 0
BBX 4 9 0 0
BITMAP
93
00
24
24
30
30
60
60
90
ENDCHAR
STARTCHAR uni0408.c2sc
ENCODING -1
SWIDTH 466 0
DWIDTH 6 0
BBX 6 7 0 0
BITMAP
0090
00C0
00C0
0180
0180
D240
7E00
ENDCHAR
STARTCHAR uni040C.c2sc
ENCODING -1
SWIDTH 529 0
DWIDTH 6 0
BBX 7 10 0 0
BITMAP
00D0
0240
0000
2474
31D0
3740
7E00
7740
9180
9090
ENDCHAR
STARTCHAR uni040E.c2sc
ENCODING -1
SWIDTH 504 0
DWIDTH 6 0
BBX 7 10 0 0
BITMAP
0960
0780
0000
3034
24A0
28C0
1A40
0E00
0D00
7400
ENDCHAR
STARTCHAR uni0410.c2sc
ENCODING -1
SWIDTH 552 0
DWIDTH 7 0
BBX 7 7 -1 0
BITMAP
00D0
01A0
0330
0930
0FF4
2418
6018
ENDCHAR
STARTCHAR uni0412.c2sc
ENCODING -1
SWIDTH 527 0
DWIDTH 6 0
BBX 6 7 0 0
BITMAP
2F90
3460
30A0
7FC0
6090
90D0
BF80
ENDCHAR
STARTCHAR uni0413.c2sc
ENCODING -1
SWIDTH 451 0
DWIDTH 5 0
BBX 6 7 0 0
BITMAP
2FE0
3400
3000
7000
6000
9000
9000
ENDCHAR
STARTCHAR uni0415.c2sc
ENCODING -1
SWIDTH 477 0
DWIDTH 6 0
BBX 6 7 0 0
BITMAP
2FE0
3400
3000
7FC0
6000
9000
BF80
ENDCHAR
STARTCHAR uni0419.c2sc
ENCODING -1
SWIDTH 601 0
DWIDTH 7 0
BBX 7 10 0 0
BITMAP
0230
02E0
0000
241C
3078
31A8
6224
6934
B430
A070
ENDCHAR
STARTCHAR uni041C.c2sc
ENCODING -1
SWIDTH 733 0
DWIDTH 9 0
BBX 9 7 0 0
BITMAP
280740
3C0B40
391B00
663700
666600
93C600
924900
ENDCHAR
STARTCHAR uni041D.c2sc
ENCODING -1
SWIDTH 597 0
DWIDTH 7 0
BBX 7 7 0 0
BITMAP
2418
3018
3024
7FF4
6030
9030
9060
ENDCHAR
STARTCHAR uni041E.c2sc
ENCODING -1
SWIDTH 578 0
DWIDTH 7 0
BBX 7 7 0 0
BITMAP
0BD0
2870
7024
6024
6030
70A0
1F80
ENDCHAR
STARTCHAR uni041F.c2sc
ENCODING -1
SWIDTH 587 0
DWIDTH 7 0
BBX 7 7 0 0
BITMAP
2FF8
3428
3024
7034
6030
9070
9060
ENDCHAR
STARTCHAR uni0420.c2sc
ENCODING -1
SWIDTH 533 0
DWIDTH 6 0
BBX 6 7 0 0
BITMAP
2FD0
3030
3070
7F90
6000
9000
9000
ENDCHAR
STARTCHAR uni0421.c2sc
ENCODING -1
SWIDTH 548 0
DWIDTH 7 0
BBX 6 7 0 0
BITMAP
0BD0
2830
7010
6000
6010
70A0
2F80
ENDCHAR
STARTCHAR uni0422.c2sc
ENCODING -1
SWIDTH 507 0
DWIDTH 6 0
BBX 7 7 0 0
BITMAP
7FF4
0700
0600
0A00
0900
0D00
0C00
ENDCHAR
STARTCHAR uni0425.c2sc
ENCODING -1
SWIDTH 529 0
DWIDTH 6 0
BBX 7 7 0 0
BITMAP
3434
18D0
0E80
0B00
1F40
7180
D0D0
ENDCHAR
STARTCHAR uni0498.c2sc
ENCODING -1
SWIDTH 519 0
DWIDTH 6 0
BBX 6 9 0 -2
BITMAP
1F90
34A0
00A0
0B80
00D0
90D0
7F40
1800
2400
ENDCHAR
STARTCHAR uni04A2.c2sc
ENCODING -1
SWIDTH 597 0
DWIDTH 7 0
BBX 7 9 0 -2
BITMAP
2418
3018
3024
7FF4
6030
9030
9078
0028
0024
ENDCHAR
STARTCHAR uni04AA.c2sc
ENCODING -1
SWIDTH 548 0
DWIDTH 7 0
BBX 7 9 0 -2
BITMAP
0BD0
2834
3010
6000
6010
70A0
1F80
0D00
0C00
ENDCHAR
STARTCHAR uni04AE.c2sc
ENCODING -1
SWIDTH 510 0
DWIDTH 6 0
BBX 6 7 1 0
BITMAP
C0D0
9280
6600
3C00
2400
3400
3000
ENDCHAR
STARTCHAR uni04BE.c2sc
ENCODING -1
SWIDTH 703 0
DWIDTH 8 0
BBX 8 9 0 -2
BITMAP
01B8
4746
9903
2FFF
0C00
0904
02F4
01C0
0180
ENDCHAR
STARTCHAR uni04E2.c2sc
ENCODING -1
SWIDTH 601 0
DWIDTH 7 0
BBX 7 9 0 0
BITMAP
07F4
0000
241C
3078
31A8
6224
6934
B430
A070
ENDCHAR
STARTCHAR uni04EE.c2sc
ENCODING -1
SWIDTH 504 0
DWIDTH 6 0
BBX 7 9 0 0
BITMAP
0FE0
0000
3034
24A0
28C0
1A40
0E00
0D00
7400
ENDCHAR
STARTCHAR uni0424.c2sc
ENCODING -1
SWIDTH 660 0
DWIDTH 8 0
BBX 8 7 0 0
BITMAP
00C0
1BF4
359D
6249
725C
1FE0
0300
ENDCHAR
STARTCHAR IJ.c2sc
ENCODING -1
SWIDTH 702 0
DWIDTH 8 0
BBX 8 7 0 0
BITMAP
2403
2403
3006
3006
6009
630D
91F4
ENDCHAR
STARTCHAR AEacute.c2sc
ENCODING -1
SWIDTH 759 0
DWIDTH 9 0
BBX 10 9 -1 0
BITMAP
000340
000A00
003FF0
00A800
01A800
022FC0
0BF400
283000
703FC0
ENDCHAR
STARTCHAR Oslashacute.c2sc
ENCODING -1
SWIDTH 578 0
DWIDTH 7 0
BBX 7 10 0 -1
BITMAP
00A0
0180
0BE4
2870
71A4
6224
6830
74A0
6F80
4000
ENDCHAR
STARTCHAR uni0218.c2sc
ENCODING -1
SWIDTH 504 0
DWIDTH 6 0
BBX 6 10 0 -3
BITMAP
1B80
3460
3410
1B40
40D0
A1D0
2F40
0000
1800
2400
ENDCHAR
STARTCHAR Wgrave.c2sc
ENCODING -1
SWIDTH 742 0
DWIDTH 9 0
BBX 8 9 1 0
BITMAP
0340
0140
C283
C386
C989
C898
94A4
B0B0
A0A0
ENDCHAR
STARTCHAR Wacute.c2sc
ENCODING -1
SWIDTH 742 0
DWIDTH 9 0
BBX 8 9 1 0
BITMAP
00A0
0180
C283
C386
C989
C898
94A4
B0B0
A0A0
ENDCHAR
STARTCHAR Wdieresis.c2sc
ENCODING -1
SWIDTH 742 0
DWIDTH 9 0
BBX 8 8 1 0
BITMAP
0630
C283
C386
C989
C898
94A4
B0B0
A0A0
ENDCHAR
STARTCHAR Ygrave.c2sc
ENCODING -1
SWIDTH 510 0
DWIDTH 6 0
BBX 6 9 1 0
BITMAP
1800
0800
C0D0
9280
6600
3C00
2400
3400
3000
ENDCHAR
STARTCHAR Aogonek.locl
ENCODING -1
SWIDTH 637 0
DWIDTH 8 0
BBX 8 11 -1 -2
BITMAP
0034
00B4
00D8
0298
030C
0A0C
1FFD
280A
7006
0240
0740
ENDCHAR
STARTCHAR aogonek.locl
ENCODING -1
SWIDTH 532 0
DWIDTH 6 0
BBX 6 9 0 -2
BITMAP
0B80
24A0
0060
2FD0
6090
A1C0
7EC0
2400
7400
ENDCHAR
STARTCHAR Eogonek.locl
ENCODING -1
SWIDTH 556 0
DWIDTH 7 0
BBX 7 11 0 -2
BITMAP
1FFC
1800
2800
2400
3FE0
3000
7000
6000
BFE0
1400
2C00
ENDCHAR
STARTCHAR eogonek.locl
ENCODING -1
SWIDTH 518 0
DWIDTH 6 0
BBX 6 9 0 -2
BITMAP
0B80
28A0
7060
7FE0
6000
7080
1F80
1400
2800
ENDCHAR
STARTCHAR Aogonek.c2sc.locl
ENCODING -1
SWIDTH 552 0
DWIDTH 7 0
BBX 7 9 -1 -2
BITMAP
00D0
01A0
0330
0930
0FF4
2418
6018
0500
0B00
ENDCHAR
STARTCHAR Eogonek.c2sc.locl
ENCODING -1
SWIDTH 477 0
DWIDTH 6 0
BBX 6 9 0 -2
BITMAP
2FE0
3400
3000
7FC0
6000
9000
BF80
1400
3800
ENDCHAR
STARTCHAR glyph1293
ENCODING -1
SWIDTH 244 0
DWIDTH 3 0
BBX 3 9 0 -2
BITMAP
24
34
30
70
60
60
90
00
C0
ENDCHAR
ENDFONT
